<svg width="32" height="32" viewBox="0 0 32 32" fill="none" xmlns="http://www.w3.org/2000/svg">
<g id="n-app-icon-goals">
<g id="Vector">
<path d="M16 1C24.2843 1 31 7.71573 31 16C31 24.2843 24.2843 31 16 31C12.943 31 10.0995 30.0855 7.72834 28.5151L9.17612 27.0671C11.1596 28.2927 13.4972 29 16 29C23.1797 29 29 23.1797 29 16C29 8.8203 23.1797 3 16 3C8.8203 3 3 8.8203 3 16C3 18.5028 3.70727 20.8404 4.93285 22.8239L3.48485 24.2717C1.9145 21.9005 1 19.057 1 16C1 7.71573 7.71573 1 16 1Z" fill="black"/>
<path d="M16 7C20.9706 7 25 11.0294 25 16C25 20.9706 20.9706 25 16 25C14.6106 25 13.2948 24.6852 12.1199 24.1229L13.6484 22.5952C14.3834 22.8573 15.175 23 16 23C19.866 23 23 19.866 23 16C23 12.134 19.866 9 16 9C12.134 9 9 12.134 9 16C9 16.825 9.14272 17.6166 9.4048 18.3516L7.87705 19.8801C7.31483 18.7052 7 17.3894 7 16C7 11.0294 11.0294 7 16 7Z" fill="black"/>
<path d="M19 13V20H17L16.9994 16.414L6.12061 27.2936L4.70639 25.8794L15.5844 15H12V13H19Z" fill="black"/>
</g>
</g>
</svg>
