<svg width="24" height="24" viewBox="0 0 24 24" fill="none" xmlns="http://www.w3.org/2000/svg">
<g id="n-icon-campaign">
<path id="Union" fill-rule="evenodd" clip-rule="evenodd" d="M3.55171 8.03906C3.51228 8.08315 3.46758 8.138 3.4213 8.20405C3.24182 8.46016 3 8.93589 3 9.72833C3 10.5208 3.24182 10.9965 3.4213 11.2526C3.46758 11.3186 3.51228 11.3735 3.55171 11.4176L6.29706 12.2882C6.12846 11.5627 6 10.6934 6 9.72759C6 8.76248 6.12828 7.89379 6.29669 7.16861L3.55171 8.03906ZM8.59683 6.43922C8.551 6.56162 8.50266 6.69926 8.45415 6.85083C8.22667 7.5615 8 8.5635 8 9.72759C8 10.8917 8.22667 11.8937 8.45415 12.6044C8.50288 12.7566 8.55144 12.8948 8.59745 13.0176L14.8293 14.9938C14.3671 13.3849 13.9394 11.443 13.9394 9.72833C13.9394 8.0137 14.3671 6.07176 14.8293 4.46288L8.59683 6.43922ZM2.54545 13.1588L15.9444 17.4077C16.7551 17.6648 17.5287 16.8632 17.2596 16.0708C16.6688 14.3307 15.9394 11.7693 15.9394 9.72833C15.9394 7.68736 16.6688 5.12599 17.2596 3.38587C17.5287 2.59343 16.7551 1.79185 15.9444 2.04893L2.54545 6.29782C2.54545 6.29782 1 7.27796 1 9.72833C1 12.1787 2.54545 13.1588 2.54545 13.1588ZM5.43785 15.641L6.79278 20.2891C6.91544 20.7099 7.30782 21 7.7543 21H8.67427C9.33865 21 9.81831 20.3767 9.63579 19.7506L8.74954 16.7103L5.43785 15.641ZM18.5312 7.16695C18.513 7.15505 18.4997 7.14674 18.4935 7.14296L18.4936 7.14299C18.0185 6.86954 17.8584 6.27068 18.1362 5.80395C18.4145 5.33637 19.0268 5.17843 19.5039 5.45119C19.5216 5.4615 19.5032 5.45078 19.5054 5.45208L19.5072 5.45309L19.5113 5.45544L19.5216 5.4615L19.5508 5.47902C19.5739 5.49311 19.6042 5.51206 19.6406 5.53589C19.7135 5.58348 19.8116 5.65097 19.9264 5.73854C20.155 5.91279 20.4568 6.17168 20.7593 6.51757C21.3646 7.20983 22 8.28522 22 9.72833C22 11.1714 21.3646 12.2468 20.7593 12.9391C20.4568 13.285 20.155 13.5439 19.9264 13.7181C19.8116 13.8057 19.7135 13.8732 19.6406 13.9208C19.6042 13.9446 19.5739 13.9635 19.5508 13.9776L19.5216 13.9952L19.5113 14.0012L19.5072 14.0036L19.5054 14.0046L19.5039 14.0055C19.0268 14.2782 18.4145 14.1203 18.1362 13.6527C17.8591 13.187 18.0178 12.5898 18.4904 12.3155L18.4916 12.3148L18.4917 12.3147L18.4954 12.3126L18.4942 12.3132C18.5004 12.3095 18.513 12.3016 18.5312 12.2897C18.5678 12.2658 18.6259 12.2261 18.6986 12.1707C18.845 12.0591 19.0432 11.8892 19.2407 11.6633C19.6354 11.2121 20 10.5722 20 9.72833C20 8.88443 19.6354 8.24457 19.2407 7.79331C19.0432 7.56746 18.845 7.39753 18.6986 7.2859C18.6259 7.23054 18.5678 7.19082 18.5312 7.16695Z" fill="black"/>
</g>
</svg>
