<svg width="24" height="24" viewBox="0 0 24 24" fill="none" xmlns="http://www.w3.org/2000/svg">
<g id="n-icon-archive">
<path id="Shape" fill-rule="evenodd" clip-rule="evenodd" d="M19.382 2C19.7607 2 20.107 2.214 20.2764 2.55279L22 6V21C22 21.5523 21.5523 22 21 22H3C2.44772 22 2 21.5523 2 21V6L3.72361 2.55279C3.893 2.214 4.23926 2 4.61803 2H19.382ZM20 8H4V20H20V8ZM5 4H19L20 6H4L5 4Z" fill="black"/>
<path id="Combined Shape" fill-rule="evenodd" clip-rule="evenodd" d="M11 14.5864V10.5C11 10.2239 11.2239 10 11.5 10H12.5C12.7761 10 13 10.2239 13 10.5V14.6568L14.5104 13.1464C14.7057 12.9512 15.0223 12.9512 15.2175 13.1464L15.9246 13.8536C16.1199 14.0488 16.1199 14.3654 15.9246 14.5607L12.3891 18.0962C12.3023 18.183 12.1916 18.2312 12.0781 18.2408H11.9929C11.8795 18.2312 11.7688 18.183 11.682 18.0962L8.14645 14.5607C7.95118 14.3654 7.95118 14.0488 8.14645 13.8536L8.85355 13.1464C9.04882 12.9512 9.3654 12.9512 9.56066 13.1464L11 14.5864Z" fill="black"/>
</g>
</svg>
