<svg width="24" height="24" viewBox="0 0 24 24" fill="none" xmlns="http://www.w3.org/2000/svg">
<g id="n-icon-proposal">
<path id="Shape" fill-rule="evenodd" clip-rule="evenodd" d="M15.288 2.13945C15.1949 2.04997 15.0707 2 14.9416 2H4.5C4.22386 2 4 2.22386 4 2.5V21.5C4 21.7761 4.22386 22 4.5 22H19.5C19.7761 22 20 21.7761 20 21.5V6.87965C20 6.74358 19.9445 6.61338 19.8464 6.5191L15.288 2.13945ZM6 4H13V9H18V20H6V4ZM14 15V17H8V15H14ZM16 13V11H8V13H16ZM11 6V9H8V6H11ZM15 7V4.637L17.461 7H15Z" fill="black"/>
</g>
</svg>
