<svg width="24" height="24" viewBox="0 0 24 24" fill="none" xmlns="http://www.w3.org/2000/svg">
<g id="n-icon-funnel">
<path id="Rectangle" fill-rule="evenodd" clip-rule="evenodd" d="M22.2104 5C22.2104 4.44772 21.7627 4 21.2104 4H2.78957C2.60451 4 2.42308 4.05135 2.26547 4.14834C1.79511 4.43779 1.64846 5.05374 1.93791 5.5241L9 17V20.6126C9 20.7201 9.01733 20.8268 9.05132 20.9288C9.22597 21.4527 9.79229 21.7359 10.3162 21.5613L14.3162 20.2279C14.7246 20.0918 15 19.7097 15 19.2792V17L22.0621 5.5241C22.1591 5.36649 22.2104 5.18506 22.2104 5ZM11 16.4339L4.57913 6H19.4209L13 16.4339V18.5585L11 19.2251V16.4339Z" fill="black"/>
</g>
</svg>
