<svg width="24" height="24" viewBox="0 0 24 24" fill="none" xmlns="http://www.w3.org/2000/svg">
<g id="n-icon-fire-alt">
<path id="Union" fill-rule="evenodd" clip-rule="evenodd" d="M16 12.5C16.6767 12.5 17.3197 12.3858 17.9152 12.1798C17.9712 12.6048 18 13.0299 18 13.45C18 14.9956 17.4817 16.719 16.4625 18.01C15.4885 19.2438 14.0579 20.1 12 20.1C9.94214 20.1 8.51152 19.2438 7.5375 18.01C6.5183 16.719 6 14.9956 6 13.45C6 11.2018 6.7575 8.97156 7.95255 7.3449C8.60036 6.46313 9.32137 5.82327 10.0641 5.41982C10.0218 5.71634 10 6.01868 10 6.325C10 9.51879 12.4713 12.5 16 12.5ZM16 10.6C16.5262 10.6 17.0287 10.4914 17.4889 10.294C18.1382 10.0155 18.7033 9.56037 19.1322 8.98416C19.4046 9.67755 19.6183 10.4004 19.7655 11.1349C19.9189 11.9006 20 12.679 20 13.45C20 17.25 17.5 22 12 22C6.5 22 4 17.25 4 13.45C4 8.64966 6.9298 3.88567 10.8747 3.10981C11.2416 3.03766 11.6172 3 12 3C12.4494 3 12.8888 3.05371 13.3158 3.15546C12.8271 3.62842 12.4484 4.22865 12.2252 4.9072C12.0793 5.35088 12 5.82804 12 6.325C12 8.68602 13.7909 10.6 16 10.6ZM10.125 16.615C11.1605 16.615 12 15.7644 12 14.715C12 14.2436 11.8306 13.8123 11.5501 13.4802C11.6968 13.4592 11.8471 13.4484 12 13.4484C13.6569 13.4484 15 14.7243 15 16.2984C15 17.8724 13.6569 19.1484 12 19.1484C10.3431 19.1484 9 17.8724 9 16.2984C9 16.2774 9.00024 16.2565 9.00071 16.2357C9.31396 16.4739 9.70322 16.615 10.125 16.615Z" fill="black"/>
</g>
</svg>
