<svg width="24" height="24" viewBox="0 0 24 24" fill="none" xmlns="http://www.w3.org/2000/svg">
<g id="n-icon-select-box-on">
<path id="Rectangle" d="M3 7C3 4.79086 4.79086 3 7 3H17C19.2091 3 21 4.79086 21 7V17C21 19.2091 19.2091 21 17 21H7C4.79086 21 3 19.2091 3 17V7Z" fill="black"/>
<path id="Path" fill-rule="evenodd" clip-rule="evenodd" d="M6.1478 12.4296C5.95073 12.2325 5.95073 11.913 6.1478 11.7159L6.86142 11.0023C7.05849 10.8052 7.37799 10.8052 7.57505 11.0023L10.0727 13.4986L15.4249 8.1478C15.622 7.95073 15.9415 7.95073 16.1386 8.1478L16.8522 8.86142C17.0493 9.05849 17.0493 9.37799 16.8522 9.57505L10.4296 15.9977C10.2544 16.1729 9.98248 16.1923 9.78582 16.0561L9.71593 15.9977L6.1478 12.4296Z" fill="white"/>
</g>
</svg>
