<svg width="24" height="24" viewBox="0 0 24 24" fill="none" xmlns="http://www.w3.org/2000/svg">
<g id="n-icon-form">
<path id="Shape" fill-rule="evenodd" clip-rule="evenodd" d="M14.8293 2.00009C14.4175 0.83485 13.3063 0 12 0C10.6937 0 9.58249 0.83485 9.17067 2.00009L8 2C7.44772 2 7 2.44772 7 3C5.34315 3 4 4.34315 4 6V19C4 20.6569 5.34315 22 7 22H17C18.6569 22 20 20.6569 20 19V6C20 4.34315 18.6569 3 17 3L16.9933 2.88338C16.9355 2.38604 16.5128 2 16 2L14.8293 2.00009ZM16 6C16.5523 6 17 5.55228 17 5C17.5523 5 18 5.44772 18 6V19C18 19.5523 17.5523 20 17 20H7C6.44772 20 6 19.5523 6 19V6C6 5.44772 6.44772 5 7 5L7.00673 5.11662C7.06449 5.61396 7.48716 6 8 6H16ZM14 16V18H8V16H14ZM16 14V12H8V14H16ZM16 8V10H8V8H16ZM11 3C11 2.44772 11.4477 2 12 2C12.5523 2 13 2.44772 13 3C13 3.55228 12.5523 4 12 4C11.4477 4 11 3.55228 11 3Z" fill="black"/>
</g>
</svg>
