<svg width="24" height="24" viewBox="0 0 24 24" fill="none" xmlns="http://www.w3.org/2000/svg">
<g id="n-icon-feedback-note">
<path id="Shape" fill-rule="evenodd" clip-rule="evenodd" d="M9 1.5C9 1.22386 8.77614 1 8.5 1H7.5C7.22386 1 7 1.22386 7 1.5V3H6C4.89543 3 4 3.89543 4 5V20C4 21.1046 4.89543 22 6 22H18C19.1046 22 20 21.1046 20 20V5C20 3.89543 19.1046 3 18 3H17V1.5C17 1.22386 16.7761 1 16.5 1H15.5C15.2239 1 15 1.22386 15 1.5V3H13V1.5C13 1.22386 12.7761 1 12.5 1H11.5C11.2239 1 11 1.22386 11 1.5V3H9V1.5ZM6 5H7V5.5C7 5.77614 7.22386 6 7.5 6H8.5C8.77614 6 9 5.77614 9 5.5V5H11V5.5C11 5.77614 11.2239 6 11.5 6H12.5C12.7761 6 13 5.77614 13 5.5V5H15V5.5C15 5.77614 15.2239 6 15.5 6H16.5C16.7761 6 17 5.77614 17 5.5V5H18V20H6V5ZM12 15C12.5523 15 13 15.4477 13 16C13 16.5523 12.5523 17 12 17C11.4477 17 11 16.5523 11 16C11 15.4477 11.4477 15 12 15ZM13 8.5C13 8.22386 12.7761 8 12.5 8H11.5C11.2239 8 11 8.22386 11 8.5V12.5C11 12.7761 11.2239 13 11.5 13H12.5C12.7761 13 13 12.7761 13 12.5V8.5Z" fill="black"/>
</g>
</svg>
