<svg width="24" height="24" viewBox="0 0 24 24" fill="none" xmlns="http://www.w3.org/2000/svg">
<g id="n-icon-high-sound">
<path id="Shape" fill-rule="evenodd" clip-rule="evenodd" d="M13 14.4139L13.0001 19.9381C10.4636 19.6218 8.29591 18.1181 7.07077 16.0009L6.00001 16C4.89544 16 4.00001 15.1045 4.00001 14V9.99998C4.00001 8.89541 4.89544 7.99998 6.00001 7.99998L6.58583 7.9998L3.86828 5.28246C3.69471 5.1089 3.67543 4.83947 3.81042 4.6446L3.86828 4.57536L4.57539 3.86825C4.74895 3.69468 5.01838 3.6754 5.21324 3.81039L5.28249 3.86825L20.1317 18.7175C20.3053 18.8911 20.3246 19.1605 20.1896 19.3553L20.1317 19.4246L19.4246 20.1317C19.2511 20.3053 18.9816 20.3246 18.7868 20.1896L18.7175 20.1317L13 14.4139ZM13.0001 4.06186L13 8.75886L9.57553 5.33381C10.5804 4.66549 11.7451 4.21835 13.0001 4.06186Z" fill="black"/>
</g>
</svg>
