<svg width="24" height="24" viewBox="0 0 24 24" fill="none" xmlns="http://www.w3.org/2000/svg">
<g id="n-icon-remove-filters">
<path id="Shape" fill-rule="evenodd" clip-rule="evenodd" d="M20.2597 9.1633L17.5006 11.9227L14.7403 9.1633C14.5225 8.94557 14.1695 8.94557 13.9518 9.1633L13.1633 9.95179C12.9456 10.1695 12.9456 10.5225 13.1633 10.7403L15.9239 13.4994L13.1633 16.2597C12.9456 16.4775 12.9456 16.8305 13.1633 17.0482L13.9518 17.8367C14.1695 18.0544 14.5225 18.0544 14.7403 17.8367L17.5006 15.0761L20.2597 17.8367C20.4775 18.0544 20.8305 18.0544 21.0482 17.8367L21.8367 17.0482C22.0544 16.8305 22.0544 16.4775 21.8367 16.2597L19.0773 13.4994L21.8367 10.7403C22.0544 10.5225 22.0544 10.1695 21.8367 9.95179L21.0482 9.1633C20.8305 8.94557 20.4775 8.94557 20.2597 9.1633ZM2.5 15C2.22386 15 2 15.2239 2 15.5V17C2 17.2761 2.22386 17.5 2.5 17.5H6.5C6.77614 17.5 7 17.2761 7 17V15.5C7 15.2239 6.77614 15 6.5 15H2.5ZM2.5 10C2.22386 10 2 10.2239 2 10.5V12C2 12.2761 2.22386 12.5 2.5 12.5H8.5C8.77614 12.5 9 12.2761 9 12V10.5C9 10.2239 8.77614 10 8.5 10H2.5ZM2.5 5C2.22386 5 2 5.22386 2 5.5V7C2 7.27614 2.22386 7.5 2.5 7.5H10.5C10.7761 7.5 11 7.27614 11 7V5.5C11 5.22386 10.7761 5 10.5 5H2.5Z" fill="black"/>
</g>
</svg>
