<svg width="24" height="24" viewBox="0 0 24 24" fill="none" xmlns="http://www.w3.org/2000/svg">
<g id="n-icon-add-person">
<g id="Vector">
<path fill-rule="evenodd" clip-rule="evenodd" d="M14 3C18.416 3 22 6.584 22 11C22 15.416 18.416 19 14 19C13.7776 19 13.5573 18.9909 13.3394 18.9731C13.6609 18.288 13.8748 17.5429 13.9593 16.7589L14 16.76C16 16.76 17.768 15.736 18.8 14.184C18.776 12.592 15.592 11.72 14 11.72C13.6182 11.72 13.1467 11.7697 12.6496 11.8669C11.3765 10.1287 9.32004 9 7 9C6.7442 9 6.49161 9.01372 6.24292 9.04047C7.11607 5.57128 10.2596 3 14 3ZM14 5.4C12.672 5.4 11.6 6.472 11.6 7.8C11.6 9.128 12.672 10.2 14 10.2C15.328 10.2 16.4 9.128 16.4 7.8C16.4 6.472 15.328 5.4 14 5.4Z" fill="black"/>
<path fill-rule="evenodd" clip-rule="evenodd" d="M7 11C9.76142 11 12 13.2386 12 16C12 18.7614 9.76142 21 7 21C4.23858 21 2 18.7614 2 16C2 13.2386 4.23858 11 7 11ZM7.5 13.5H6.5V15.5H4.5V16.5H6.499L6.5 18.5H7.5L7.499 16.5H9.5V15.5H7.5V13.5Z" fill="black"/>
</g>
</g>
</svg>
