<svg width="24" height="24" viewBox="0 0 24 24" fill="none" xmlns="http://www.w3.org/2000/svg">
<g id="n-icon-link">
<path id="Shape" fill-rule="evenodd" clip-rule="evenodd" d="M19.0711 4.92891C21.8048 7.66258 21.8048 12.0947 19.0711 14.8284L18.7175 15.182C18.5223 15.3772 18.2057 15.3772 18.0104 15.182L17.3033 14.4749C17.1081 14.2796 17.1081 13.963 17.3033 13.7677L17.6569 13.4142C19.6095 11.4616 19.6095 8.29575 17.6569 6.34313C15.7042 4.39051 12.5384 4.39051 10.5858 6.34313L10.2322 6.69668C10.037 6.89194 9.7204 6.89194 9.52514 6.69668L8.81803 5.98957C8.62277 5.79431 8.62277 5.47773 8.81803 5.28247L9.17159 4.92891C11.9053 2.19524 16.3374 2.19524 19.0711 4.92891ZM5.98961 8.818L6.69671 9.52511C6.89197 9.72037 6.89197 10.037 6.69671 10.2322L6.34316 10.5858C4.39054 12.5384 4.39054 15.7042 6.34316 17.6568C8.29578 19.6095 11.4616 19.6095 13.4142 17.6568L13.7678 17.3033C13.963 17.108 14.2796 17.108 14.4749 17.3033L15.182 18.0104C15.3773 18.2057 15.3773 18.5222 15.182 18.7175L14.8284 19.0711C12.0948 21.8047 7.66261 21.8047 4.92895 19.0711C2.19528 16.3374 2.19528 11.9052 4.92895 9.17156L5.2825 8.818C5.47776 8.62274 5.79434 8.62274 5.98961 8.818ZM15.182 9.52511L14.4749 8.818C14.2796 8.62274 13.963 8.62274 13.7678 8.818L8.81803 13.7677C8.62277 13.963 8.62277 14.2796 8.81803 14.4749L9.52514 15.182C9.7204 15.3772 10.037 15.3772 10.2322 15.182L15.182 10.2322C15.3773 10.037 15.3773 9.72037 15.182 9.52511Z" fill="black"/>
</g>
</svg>
