<svg width="24" height="24" viewBox="0 0 24 24" fill="none" xmlns="http://www.w3.org/2000/svg">
<g id="n-icon-opportunity">
<g id="Vector">
<path fill-rule="evenodd" clip-rule="evenodd" d="M19.0711 4.92893C17.1957 3.05357 14.6522 2 12 2C6.47715 2 2 6.47715 2 12C2 17.5228 6.47715 22 12 22C17.5228 22 22 17.5228 22 12C22 9.34784 20.9464 6.8043 19.0711 4.92893ZM4 12C4 7.58172 7.58172 4 12 4C14.1217 4 16.1566 4.84285 17.6569 6.34315C19.1571 7.84344 20 9.87827 20 12C20 16.4183 16.4183 20 12 20C7.58172 20 4 16.4183 4 12Z" fill="black"/>
<path d="M12.5001 5.5C12.7762 5.5 13.0001 5.72377 13.0001 5.99985L13.0005 7.05305C14.6341 7.34703 15.667 8.4148 15.7017 9.88379H14.02C13.938 8.96094 13.1655 8.40723 12.0376 8.40723C10.9233 8.40723 10.1714 8.9541 10.1714 9.77441C10.1714 10.4307 10.6704 10.8135 11.8804 11.1006L13.0151 11.3604C15.0181 11.8184 15.8657 12.6455 15.8657 14.1152C15.8657 15.7036 14.7842 16.7906 13.0005 17.0843L13.0002 18.0002C13.0001 18.2763 12.7763 18.5 12.5002 18.5H11.4997C11.2237 18.5 10.9999 18.2763 10.9997 18.0003L10.9993 17.0882C9.28699 16.8079 8.2049 15.7671 8.14111 14.2246H9.8501C9.95947 15.1338 10.8687 15.7285 12.0718 15.7285C13.2612 15.7285 14.0884 15.1406 14.0884 14.3203C14.0884 13.6094 13.5825 13.1992 12.3384 12.9053L11.0601 12.6045C9.2417 12.1875 8.38037 11.3125 8.38037 9.9043C8.38037 8.45664 9.42355 7.39725 10.9991 7.07441L10.9997 5.99971C10.9999 5.72368 11.2237 5.5 11.4997 5.5H12.5001Z" fill="black"/>
</g>
</g>
</svg>
