<svg width="24" height="24" viewBox="0 0 24 24" fill="none" xmlns="http://www.w3.org/2000/svg">
<g id="n-icon-alert-losang-alt">
<g id="n-icon">
<g id="Union">
<path d="M11 7.50001C11 7.22386 11.2238 7.00001 11.5 7.00001H12.5C12.7761 7.00001 13 7.22386 13 7.50001V12.5C13 12.7761 12.7761 13 12.5 13H11.5C11.2238 13 11 12.7761 11 12.5V7.50001Z" fill="black"/>
<path d="M12 15C12.5523 15 13 15.4477 13 16C13 16.5523 12.5523 17 12 17C11.4477 17 11 16.5523 11 16C11 15.4477 11.4477 15 12 15Z" fill="black"/>
<path fill-rule="evenodd" clip-rule="evenodd" d="M9.17156 2.82648C10.7337 1.26438 13.2663 1.26438 14.8284 2.82648L21.1722 9.17022C22.7343 10.7323 22.7343 13.265 21.1722 14.8271L14.8284 21.1708C13.2663 22.7329 10.7337 22.7329 9.17156 21.1708L2.82782 14.8271C1.26573 13.265 1.26573 10.7323 2.82782 9.17022L9.17156 2.82648ZM13.4142 4.24069L19.7579 10.5844C20.539 11.3655 20.539 12.6318 19.7579 13.4129L13.4142 19.7566C12.6332 20.5376 11.3668 20.5376 10.5858 19.7566L4.24204 13.4129C3.46099 12.6318 3.46099 11.3655 4.24204 10.5844L10.5858 4.24069C11.3668 3.45965 12.6332 3.45965 13.4142 4.24069Z" fill="black"/>
</g>
</g>
</g>
</svg>
