<svg width="24" height="24" viewBox="0 0 24 24" fill="none" xmlns="http://www.w3.org/2000/svg">
<g id="n-icon-snow-flake">
<g id="snow-flake">
<path d="M9.16435 2.98189C8.98366 2.46 9.44769 2 9.99998 2C10.3906 2 10.7264 2.27144 11.0539 2.53609C11.1895 2.64566 11.3236 2.75406 11.4596 2.84156C11.6154 2.94183 11.8009 3 12 3C12.1991 3 12.3845 2.94183 12.5404 2.84156C12.6764 2.75406 12.8105 2.64566 12.9461 2.53609C13.2735 2.27144 13.6094 2 14 2C14.5523 2 15.0163 2.46 14.8356 2.98189C14.5375 3.84284 13.8584 4.52588 13 4.82929V8.12602C12.6804 8.04375 12.3453 8 12 8C11.6547 8 11.3196 8.04375 11 8.12602V4.82929C10.1415 4.52588 9.46242 3.84284 9.16435 2.98189Z" fill="black"/>
<path d="M9.14614 9.19722L6.28996 7.5482C6.45641 6.65306 6.20444 5.72342 5.60787 5.0348C5.24625 4.61738 4.61586 4.78924 4.33972 5.26753C4.14442 5.60579 4.21156 6.03238 4.27702 6.4483C4.30412 6.62049 4.33094 6.79085 4.33872 6.95236C4.34764 7.13745 4.30528 7.32718 4.20574 7.49958C4.1062 7.67198 3.96308 7.80354 3.79833 7.88835C3.65456 7.96237 3.49362 8.02433 3.33095 8.08695C2.93801 8.23822 2.53501 8.39337 2.33971 8.73163C2.06357 9.20992 2.22993 9.84179 2.77225 9.94625C3.66689 10.1186 4.59797 9.87198 5.28996 9.28025L8.14507 10.9287C8.32867 10.2666 8.67823 9.6736 9.14614 9.19722Z" fill="black"/>
<path d="M8.14507 13.0713L5.28996 14.7197C4.59797 14.128 3.66689 13.8814 2.77225 14.0537C2.22993 14.1582 2.06357 14.7901 2.33972 15.2684C2.53501 15.6066 2.93802 15.7618 3.33095 15.913C3.49362 15.9757 3.65456 16.0376 3.79833 16.1116C3.96308 16.1965 4.1062 16.328 4.20574 16.5004C4.30528 16.6728 4.34765 16.8625 4.33872 17.0476C4.33094 17.2091 4.30412 17.3795 4.27702 17.5517C4.21156 17.9676 4.14442 18.3942 4.33972 18.7325C4.61586 19.2108 5.24625 19.3826 5.60788 18.9652C6.20444 18.2766 6.45641 17.3469 6.28996 16.4518L9.14614 14.8028C8.67823 14.3264 8.32867 13.7334 8.14507 13.0713Z" fill="black"/>
<path d="M11 15.874V19.1707C10.1415 19.4741 9.46242 20.1572 9.16435 21.0181C8.98366 21.54 9.44769 22 9.99998 22C10.3906 22 10.7264 21.7286 11.0539 21.4639C11.1895 21.3543 11.3236 21.2459 11.4596 21.1584C11.6154 21.0582 11.8009 21 12 21C12.1991 21 12.3845 21.0582 12.5404 21.1584C12.6764 21.2459 12.8105 21.3543 12.9461 21.4639C13.2735 21.7286 13.6094 22 14 22C14.5523 22 15.0163 21.54 14.8356 21.0181C14.5375 20.1572 13.8584 19.4741 13 19.1707V15.874C12.6804 15.9562 12.3453 16 12 16C11.6547 16 11.3196 15.9562 11 15.874Z" fill="black"/>
<path d="M14.8543 14.8023L17.71 16.451C17.5435 17.3461 17.7955 18.2757 18.3921 18.9644C18.7537 19.3818 19.3841 19.2099 19.6602 18.7316C19.8555 18.3934 19.7884 17.9668 19.7229 17.5509C19.6958 17.3787 19.669 17.2083 19.6612 17.0468C19.6523 16.8617 19.6947 16.672 19.7942 16.4996C19.8937 16.3272 20.0369 16.1956 20.2016 16.1108C20.3454 16.0368 20.5063 15.9748 20.669 15.9122C21.0619 15.7609 21.4649 15.6058 21.6602 15.2675C21.9364 14.7892 21.77 14.1574 21.2277 14.0529C20.3331 13.8806 19.402 14.1272 18.71 14.7189L15.8551 13.0706C15.6716 13.7327 15.3222 14.3258 14.8543 14.8023Z" fill="black"/>
<path d="M15.8551 10.9294L18.71 9.28109C19.402 9.87282 20.3331 10.1194 21.2277 9.94709C21.77 9.84263 21.9364 9.21076 21.6602 8.73247C21.4649 8.39421 21.0619 8.23906 20.669 8.08779C20.5063 8.02517 20.3454 7.96321 20.2016 7.88919C20.0369 7.80438 19.8937 7.67282 19.7942 7.50042C19.6947 7.32802 19.6523 7.13829 19.6612 6.9532C19.669 6.79169 19.6958 6.62133 19.7229 6.44914C19.7884 6.03322 19.8555 5.60663 19.6602 5.26837C19.3841 4.79008 18.7537 4.61822 18.3921 5.03564C17.7955 5.72426 17.5435 6.6539 17.71 7.54904L14.8543 9.19774C15.3222 9.67421 15.6716 10.2673 15.8551 10.9294Z" fill="black"/>
<path fill-rule="evenodd" clip-rule="evenodd" d="M12 14C13.1046 14 14 13.1046 14 12C14 10.8954 13.1046 10 12 10C10.8954 10 9.99998 10.8954 9.99998 12C9.99998 13.1046 10.8954 14 12 14ZM12 16C14.2091 16 16 14.2091 16 12C16 9.79086 14.2091 8 12 8C9.79085 8 7.99998 9.79086 7.99998 12C7.99998 14.2091 9.79085 16 12 16Z" fill="black"/>
</g>
</g>
</svg>
