<svg width="24" height="24" viewBox="0 0 24 24" fill="none" xmlns="http://www.w3.org/2000/svg">
<g id="n-icon-camera">
<path id="Shape" fill-rule="evenodd" clip-rule="evenodd" d="M13.2 2C13.9161 2 14.5757 2.38267 14.932 2.99995L18 3C20.2091 3 22 4.79086 22 7V17C22 19.2091 20.2091 21 18 21H6C3.79086 21 2 19.2091 2 17V7C2 4.79086 3.79086 3 6 3H9.069L9.11474 2.92297C9.48012 2.35102 10.1141 2 10.8 2H13.2ZM12.6676 4H11.3324C10.6839 4 10.0793 4.31407 9.70584 4.8362L9.6 5H6C4.89543 5 4 5.89543 4 7V17C4 18.1046 4.89543 19 6 19H18C19.1046 19 20 18.1046 20 17V7C20 5.89543 19.1046 5 18 5H14.399L14.3826 4.97101C14.049 4.41494 13.4686 4.05809 12.8287 4.00648L12.6676 4ZM17 12C17 9.23858 14.7614 7 12 7C9.23858 7 7 9.23858 7 12C7 14.7614 9.23858 17 12 17C14.7614 17 17 14.7614 17 12ZM12 9C10.3431 9 9 10.3431 9 12C9 13.6569 10.3431 15 12 15C13.6569 15 15 13.6569 15 12C15 10.3431 13.6569 9 12 9ZM19 7C19 6.44772 18.5523 6 18 6C17.4477 6 17 6.44772 17 7C17 7.55228 17.4477 8 18 8C18.5523 8 19 7.55228 19 7Z" fill="black"/>
</g>
</svg>
