<svg width="24" height="24" viewBox="0 0 24 24" fill="none" xmlns="http://www.w3.org/2000/svg">
<g id="n-icon-adjust">
<path id="Combined Shape" fill-rule="evenodd" clip-rule="evenodd" d="M22 5C22 3.34315 20.6569 2 19 2C17.6938 2 16.5825 2.83481 16.1707 4H2.5C2.22386 4 2 4.22386 2 4.5V5.5C2 5.77614 2.22386 6 2.5 6H16.1707C16.5825 7.16519 17.6938 8 19 8C20.6569 8 22 6.65685 22 5ZM18 5C18 4.44772 18.4477 4 19 4C19.5523 4 20 4.44772 20 5C20 5.55228 19.5523 6 19 6C18.4477 6 18 5.55228 18 5ZM12 12C12 10.8954 11.1046 10 10 10C8.89543 10 8 10.8954 8 12C8 13.1046 8.89543 14 10 14C11.1046 14 12 13.1046 12 12ZM21.5 11H13.874C13.4299 9.27477 11.8638 8 10 8C8.13616 8 6.57006 9.27477 6.12602 11H2.5C2.22386 11 2 11.2239 2 11.5V12.5C2 12.7761 2.22386 13 2.5 13H6.12602C6.57006 14.7252 8.13616 16 10 16C11.8638 16 13.4299 14.7252 13.874 13H21.5C21.7761 13 22 12.7761 22 12.5V11.5C22 11.2239 21.7761 11 21.5 11ZM16 16C17.3062 16 18.4175 16.8348 18.8293 18H21.5C21.7761 18 22 18.2239 22 18.5V19.5C22 19.7761 21.7761 20 21.5 20H18.8293C18.4175 21.1652 17.3062 22 16 22C14.6938 22 13.5825 21.1652 13.1707 20H2.5C2.22386 20 2 19.7761 2 19.5V18.5C2 18.2239 2.22386 18 2.5 18H13.1707C13.5825 16.8348 14.6938 16 16 16ZM15 19C15 19.5523 15.4477 20 16 20C16.5523 20 17 19.5523 17 19C17 18.4477 16.5523 18 16 18C15.4477 18 15 18.4477 15 19Z" fill="black"/>
</g>
</svg>
