<svg width="24" height="24" viewBox="0 0 24 24" fill="none" xmlns="http://www.w3.org/2000/svg">
<g id="n-icon-people">
<path id="Shape" fill-rule="evenodd" clip-rule="evenodd" d="M17.1909 14.0014L17.5 14C17.7074 14 17.9122 14.0019 18.1145 14.0058C21.383 14.0682 24 16.7356 24 20.0047C24 20.5544 23.5544 21 23.0047 21H17.9991L18 18.1874C18 16.5878 17.371 15.1232 16.3371 14.0413C16.5169 14.0212 16.7002 14.0093 16.8855 14.0058L17.1909 14.0014ZM8 13C8.81886 13 9.60567 13.0227 10.3604 13.0681C13.5284 13.2588 16 15.8836 16 19.0573V21H1C0.447715 21 0 20.5523 0 20V19.0573C0 15.8836 2.47158 13.2588 5.63959 13.0681C6.39433 13.0227 7.18114 13 8 13ZM8 15C7.22044 15 6.47364 15.0216 5.75972 15.0645C3.66682 15.1905 2.02983 16.91 2.0004 19H13.9996L13.9918 18.7989C13.8641 16.8007 12.2657 15.1864 10.2403 15.0645C9.52636 15.0216 8.77956 15 8 15ZM17.5 5C19.433 5 21 6.567 21 8.5C21 10.433 19.433 12 17.5 12C15.567 12 14 10.433 14 8.5C14 6.567 15.567 5 17.5 5ZM8 3C10.2091 3 12 4.79086 12 7C12 9.20914 10.2091 11 8 11C5.79086 11 4 9.20914 4 7C4 4.79086 5.79086 3 8 3ZM8 5C6.89543 5 6 5.89543 6 7C6 8.10457 6.89543 9 8 9C9.10457 9 10 8.10457 10 7C10 5.89543 9.10457 5 8 5Z" fill="black"/>
</g>
</svg>
