<svg width="24" height="24" viewBox="0 0 24 24" fill="none" xmlns="http://www.w3.org/2000/svg">
<g id="n-icon-low-sound">
<g id="Combined Shape">
<path d="M12 19.9381V4.06189C9.4632 4.37821 7.29522 5.88232 6.07019 8.00012L5 8C3.89543 8 3 8.89543 3 10V14C3 15.1046 3.89543 16 5 16L6.07077 16.0009C7.2959 18.1182 9.4636 19.6218 12 19.9381Z" fill="black"/>
<path d="M18 12C18 14.419 16.2822 16.4367 14 16.9V14.8293C15.1652 14.4175 16 13.3062 16 12C16 10.6938 15.1652 9.58254 14 9.17071V7.10002C16.2822 7.56329 18 9.58104 18 12Z" fill="black"/>
</g>
</g>
</svg>
