<svg width="48" height="48" viewBox="0 0 48 48" fill="none" xmlns="http://www.w3.org/2000/svg">
<path d="M28 31L12 31V29L28 29V31Z" fill="black"/>
<path fill-rule="evenodd" clip-rule="evenodd" d="M12 23C12 24.1046 12.8954 25 14 25H19C20.1046 25 21 24.1046 21 23V19C21 17.8954 20.1046 17 19 17L14 17C12.8954 17 12 17.8954 12 19L12 23ZM14 23L19 23V19L14 19V23Z" fill="black"/>
<path fill-rule="evenodd" clip-rule="evenodd" d="M38 39C41.3137 39 44 36.3137 44 33L44 15C44 11.6863 41.3137 9 38 9L10 9C6.68629 9 4 11.6863 4 15L4 33C4 36.3137 6.68629 39 10 39L38 39ZM10 37L38 37C40.2091 37 42 35.2091 42 33L42 15C42 12.7909 40.2091 11 38 11L10 11C7.79086 11 6 12.7909 6 15L6 33C6 35.2091 7.79086 37 10 37Z" fill="black"/>
</svg>
