<svg width="24" height="24" viewBox="0 0 24 24" fill="none" xmlns="http://www.w3.org/2000/svg">
<g id="n-icon-text-center">
<g id="n-icon">
<g id="n-icon_2">
<path id="Shape" fill-rule="evenodd" clip-rule="evenodd" d="M15.6667 17C15.8508 17 16 17.2239 16 17.5V18.5C16 18.7761 15.8508 19 15.6667 19H8.33333C8.14924 19 8 18.7761 8 18.5V17.5C8 17.2239 8.14924 17 8.33333 17H15.6667ZM15.75 13C15.8881 13 16 13.2239 16 13.5V14.5C16 14.7761 15.8881 15 15.75 15H8.25C8.11193 15 8 14.7761 8 14.5V13.5C8 13.2239 8.11193 13 8.25 13H15.75ZM19.5 9C19.7761 9 20 9.22386 20 9.5V10.5C20 10.7761 19.7761 11 19.5 11H4.5C4.22386 11 4 10.7761 4 10.5V9.5C4 9.22386 4.22386 9 4.5 9H19.5ZM19.5 5C19.7761 5 20 5.22386 20 5.5V6.5C20 6.77614 19.7761 7 19.5 7H4.5C4.22386 7 4 6.77614 4 6.5V5.5C4 5.22386 4.22386 5 4.5 5H19.5Z" fill="black"/>
</g>
</g>
</g>
</svg>
