<svg width="24" height="24" viewBox="0 0 24 24" fill="none" xmlns="http://www.w3.org/2000/svg">
<g id="n-icon-notes">
<path id="Shape" fill-rule="evenodd" clip-rule="evenodd" d="M20 17L16 22H6C4.89543 22 4 21.1046 4 20V5C4 3.89543 4.89543 3 6 3H7V1.5C7 1.22386 7.22386 1 7.5 1H8.5C8.77614 1 9 1.22386 9 1.5V3H11V1.5C11 1.22386 11.2239 1 11.5 1H12.5C12.7761 1 13 1.22386 13 1.5V3H15V1.5C15 1.22386 15.2239 1 15.5 1H16.5C16.7761 1 17 1.22386 17 1.5V3H18C19.1046 3 20 3.89543 20 5V17ZM18 15V5H17V5.5C17 5.77614 16.7761 6 16.5 6H15.5C15.2239 6 15 5.77614 15 5.5V5H13V5.5C13 5.77614 12.7761 6 12.5 6H11.5C11.2239 6 11 5.77614 11 5.5V5H9V5.5C9 5.77614 8.77614 6 8.5 6H7.5C7.22386 6 7 5.77614 7 5.5V5H6V20H14V15H18ZM16 17H17.438L16 18.798V17ZM11 13V15H8V13H11ZM16 11V9H8V11H16Z" fill="black"/>
</g>
</svg>
