<svg width="24" height="24" viewBox="0 0 24 24" fill="none" xmlns="http://www.w3.org/2000/svg">
<g id="n-icon-build-forms">
<path id="Union" fill-rule="evenodd" clip-rule="evenodd" d="M3.5 3C3.22386 3 3 3.22386 3 3.5V4.5C3 4.77614 3.22386 5 3.5 5H10.5C10.7761 5 11 4.77614 11 4.5V3.5C11 3.22386 10.7761 3 10.5 3H3.5ZM4 9H20V11H4V9ZM2 9C2 7.89543 2.89543 7 4 7H20C21.1046 7 22 7.89543 22 9V11C22 12.1046 21.1046 13 20 13H4C2.89543 13 2 12.1046 2 11V9ZM10 17H4L4 19H10V17ZM4 15C2.89543 15 2 15.8954 2 17V19C2 20.1046 2.89543 21 4 21H10C11.1046 21 12 20.1046 12 19V17C12 15.8954 11.1046 15 10 15H4ZM22.9121 17.6377L15.9487 15.3163C15.5579 15.186 15.186 15.5578 15.3163 15.9487L17.6374 22.9121C17.7754 23.3263 18.3409 23.3769 18.5504 22.9939L20.1214 20.1218L22.9939 18.5507C23.3769 18.3412 23.3263 17.7758 22.9121 17.6377Z" fill="black"/>
</g>
</svg>
