<svg width="24" height="24" viewBox="0 0 24 24" fill="none" xmlns="http://www.w3.org/2000/svg">
<g id="n-icon-ice-cube">
<path id="Union" fill-rule="evenodd" clip-rule="evenodd" d="M12.4304 1.13576C11.8969 0.992821 11.3486 1.3094 11.2057 1.84287L9.13511 9.57028C9.00435 10.0583 9.25815 10.5588 9.71074 10.7499L3.72983 12.3525C3.19637 12.4954 2.87978 13.0438 3.02273 13.5772L5.3521 22.2706C5.49504 22.804 6.04338 23.1206 6.57684 22.9777L15.2702 20.6483C15.8036 20.5054 16.1202 19.957 15.9773 19.4236L13.961 11.8986L17.5696 12.8656C18.1031 13.0085 18.6514 12.6919 18.7944 12.1585L20.8649 4.43106C21.0079 3.89759 20.6913 3.34926 20.1578 3.20632L12.4304 1.13576ZM12.8787 3.32643L11.3258 9.12199L17.1213 10.6749L17.6255 8.79328C16.6108 8.47068 15.8215 7.79529 15.3191 6.94121C14.7829 6.02972 14.576 4.92087 14.7539 3.82888L12.8787 3.32643ZM15.726 4.08935C15.613 4.92154 15.781 5.75426 16.181 6.43419C16.5538 7.06793 17.13 7.5739 17.8847 7.82586L18.6743 4.87935L15.726 4.08935ZM7.02513 20.787L5.2134 14.0255L5.89566 13.8427C6.03618 13.8475 6.18 13.8566 6.32525 13.8711C7.50745 13.9893 8.62043 14.441 9.02566 15.6567C9.3116 16.5145 9.79808 17.066 10.4014 17.3677C10.9895 17.6617 11.6303 17.6893 12.187 17.6197C12.6155 17.5662 13.0173 17.4522 13.3469 17.3343L13.7866 18.9753L7.02513 20.787ZM8.03366 13.2698L11.9749 12.2138L13.0871 16.3645C12.792 16.475 12.4335 16.5811 12.063 16.6274C11.6197 16.6829 11.1981 16.648 10.8486 16.4732C10.5144 16.3062 10.1884 15.9827 9.97435 15.3405C9.61186 14.253 8.86222 13.6246 8.03366 13.2698Z" fill="black"/>
</g>
</svg>
