<svg width="24" height="24" viewBox="0 0 24 24" fill="none" xmlns="http://www.w3.org/2000/svg">
<path fill-rule="evenodd" clip-rule="evenodd" d="M10.7196 1.06707C11.4613 0.448997 12.5387 0.448996 13.2803 1.06707L22.939 9.11599C23.2983 9.41537 23.0866 10.0001 22.619 10.0001H22V21.0001C22 22.1047 21.1045 23.0001 20 23.0001H3.99998C2.89541 23.0001 1.99998 22.1047 1.99998 21.0001V10.0001H1.381C0.913354 10.0001 0.701652 9.41537 1.06091 9.11599L10.7196 1.06707ZM3.99998 21.0001L3.99998 9.27018L12 2.60352L20 9.27018V21.0001H16V23H7.99997V21.0001H3.99998Z" fill="black"/>
<path d="M6.69668 13.8033C6.50142 13.608 6.50142 13.2915 6.69668 13.0962L11.6464 8.14645C11.8417 7.95118 12.1583 7.95118 12.3535 8.14645L17.3033 13.0962C17.4985 13.2915 17.4985 13.608 17.3033 13.8033L16.5962 14.5104C16.4009 14.7057 16.0843 14.7057 15.8891 14.5104L13 11.6213V22.5C13 22.7761 12.7761 23 12.5 23H11.5C11.2238 23 11 22.7761 11 22.5V11.6213L8.11089 14.5104C7.91563 14.7057 7.59905 14.7057 7.40379 14.5104L6.69668 13.8033Z" fill="black"/>
</svg>
