<svg width="24" height="24" viewBox="0 0 24 24" fill="none" xmlns="http://www.w3.org/2000/svg">
<path fill-rule="evenodd" clip-rule="evenodd" d="M4 1H16L21 6V23H4V1Z" fill="url(#paint0_linear)"/>
<path fill-rule="evenodd" clip-rule="evenodd" d="M16 1L21 6H16V1ZM8 3V5H6V3H8Z" fill="#E53964"/>
<path fill-rule="evenodd" clip-rule="evenodd" d="M10 19H17V13H16V12H17C17.5523 12 18 12.4477 18 13V19C18 19.5523 17.5523 20 17 20H10C9.44772 20 9 19.5523 9 19V18H10V19Z" fill="#E53964" fill-opacity="0.5"/>
<path fill-rule="evenodd" clip-rule="evenodd" d="M8 11H15V17H8L8 11ZM7 11C7 10.4477 7.44772 10 8 10H15C15.5523 10 16 10.4477 16 11V17C16 17.5523 15.5523 18 15 18H8C7.44772 18 7 17.5523 7 17V11ZM12.756 14.1952C12.8811 14.0951 12.8811 13.9049 12.756 13.8048L10.9062 12.3249C10.7425 12.194 10.5 12.3105 10.5 12.5202V15.4798C10.5 15.6895 10.7425 15.806 10.9062 15.6751L12.756 14.1952Z" fill="#E53964"/>
<defs>
<linearGradient id="paint0_linear" x1="4" y1="1" x2="4" y2="23" gradientUnits="userSpaceOnUse">
<stop stop-color="white"/>
<stop offset="1" stop-color="#E5E5E5"/>
</linearGradient>
</defs>
</svg>
