<svg width="24" height="24" viewBox="0 0 24 24" fill="none" xmlns="http://www.w3.org/2000/svg">
<g id="n-icon-align-top">
<g id="n-icon">
<g id="n-icon_2">
<g id="Union">
<path d="M2.5 2C2.22386 2 2 2.22386 2 2.5V3.5C2 3.77614 2.22386 4 2.5 4H21.5C21.7761 4 22 3.77614 22 3.5V2.5C22 2.22386 21.7761 2 21.5 2H2.5Z" fill="black"/>
<path fill-rule="evenodd" clip-rule="evenodd" d="M8 7C8 6.44772 8.44772 6 9 6H15C15.5523 6 16 6.44772 16 7V18C16 18.5523 15.5523 19 15 19H9C8.44772 19 8 18.5523 8 18V7ZM10 17V8H14V17H10Z" fill="black"/>
</g>
</g>
</g>
</g>
</svg>
