<svg width="24" height="24" viewBox="0 0 24 24" fill="none" xmlns="http://www.w3.org/2000/svg">
<g id="n-icon-key-chain">
<g id="n-icon">
<path id="Union" fill-rule="evenodd" clip-rule="evenodd" d="M6 8C6 4.68629 8.68629 2 12 2C15.3137 2 18 4.68629 18 8C18 10.6124 16.3304 12.8349 14 13.6586V21.5C14 21.7761 13.7761 22 13.5 22H11L9 20V19H11L9 17V16H11V13.917C8.16229 13.441 6 10.973 6 8ZM11 6C11 5.44772 11.4477 5 12 5C12.5523 5 13 5.44772 13 6V7C13 7.55228 12.5523 8 12 8C11.4477 8 11 7.55228 11 7V6Z" fill="black"/>
</g>
</g>
</svg>
