<svg width="24" height="24" viewBox="0 0 24 24" fill="none" xmlns="http://www.w3.org/2000/svg">
<g id="n-icon-language">
<path id="Shape" fill-rule="evenodd" clip-rule="evenodd" d="M12 2C17.5228 2 22 6.47715 22 12C22 17.5228 17.5228 22 12 22C6.47715 22 2 17.5228 2 12C2 6.47715 6.47715 2 12 2ZM9.10923 13.8581L9.15408 14.1691C9.50455 16.492 10.4529 18.3265 11.9995 19.7085C13.6122 18.2678 14.5739 16.337 14.8868 13.8747C14.0087 13.9585 13.0743 14 12.084 14C11.029 14 10.0374 13.9529 9.10923 13.8581ZM16.9304 13.5853C18.0554 13.3669 19.0664 13.0616 19.9728 12.6639C19.7174 15.7741 17.6828 18.3802 14.8888 19.4628C16.039 17.84 16.7193 15.8744 16.9304 13.5853ZM4.02034 12.5844L4.03393 12.7417C4.3167 15.8175 6.34056 18.3892 9.11113 19.4625C7.95531 17.8319 7.274 15.8549 7.06742 13.5505C5.93285 13.3199 4.91753 12.9983 4.02034 12.5844ZM11.8936 4.38766L12.0015 4.29237C13.954 6.03764 14.9528 8.50439 14.9982 11.7662C14.1023 11.8633 13.1308 11.9123 12.084 11.9123C10.9716 11.9123 9.94437 11.857 9.00191 11.7457C9.05022 8.55369 10.014 6.1236 11.8936 4.38766ZM14.8889 4.5375L14.9202 4.58171C16.2187 6.43469 16.9092 8.73085 16.9916 11.443C18.0948 11.1981 19.0456 10.8565 19.8436 10.4221C19.3043 7.7216 17.4043 5.51195 14.8889 4.5375ZM8.94032 4.60596L9.11119 4.53716C7.79857 6.38921 7.09796 8.68762 7.00981 11.4058C5.90711 11.1467 4.96124 10.7895 4.17323 10.3363C4.72323 7.73602 6.5363 5.60186 8.94032 4.60596Z" fill="black"/>
</g>
</svg>
