<svg width="24" height="24" viewBox="0 0 24 24" fill="none" xmlns="http://www.w3.org/2000/svg">
<g id="n-icon-locked">
<path id="Shape" fill-rule="evenodd" clip-rule="evenodd" d="M16 10V9C16 6.79086 14.2091 5 12 5C9.79086 5 8 6.79086 8 9V10H16ZM12 14C11.4872 14 11.0645 14.386 11.0067 14.8834L11 15V16C11 16.5523 11.4477 17 12 17C12.5128 17 12.9355 16.614 12.9933 16.1166L13 16V15C13 14.4477 12.5523 14 12 14ZM6 9C6 5.68629 8.68629 3 12 3C15.3137 3 18 5.68629 18 9V10C19.1046 10 20 10.8954 20 12V19C20 20.1046 19.1046 21 18 21H6C4.89543 21 4 20.1046 4 19V12C4 10.8954 4.89543 10 6 10V9Z" fill="black"/>
</g>
</svg>
