<svg width="24" height="24" viewBox="0 0 24 24" fill="none" xmlns="http://www.w3.org/2000/svg">
<g id="n-icon-plus">
<path id="Path" fill-rule="evenodd" clip-rule="evenodd" d="M12.5 5C13.0523 5 13.5 5.44772 13.5 6V10.5H18C18.5523 10.5 19 10.9477 19 11.5V12.5C19 13.0523 18.5523 13.5 18 13.5H13.5V18C13.5 18.5523 13.0523 19 12.5 19H11.5C10.9477 19 10.5 18.5523 10.5 18L10.499 13.5H6C5.44772 13.5 5 13.0523 5 12.5V11.5C5 10.9477 5.44772 10.5 6 10.5H10.5V6C10.5 5.44772 10.9477 5 11.5 5H12.5Z" fill="black"/>
</g>
</svg>
