<svg width="24" height="24" viewBox="0 0 24 24" fill="none" xmlns="http://www.w3.org/2000/svg">
<g id="n-icon-remove">
<path id="Union" fill-rule="evenodd" clip-rule="evenodd" d="M20 12C20 16.4183 16.4183 20 12 20C7.58172 20 4 16.4183 4 12C4 7.58172 7.58172 4 12 4C16.4183 4 20 7.58172 20 12ZM12 22C17.5228 22 22 17.5228 22 12C22 6.47715 17.5228 2 12 2C6.47715 2 2 6.47715 2 12C2 17.5228 6.47715 22 12 22ZM8.11089 15.1819C7.91563 14.9866 7.91563 14.67 8.11089 14.4748L10.5858 11.9999L8.1109 9.52504C7.91563 9.32978 7.91563 9.01319 8.1109 8.81793L8.818 8.11083C9.01326 7.91556 9.32985 7.91556 9.52511 8.11083L12 10.5857L14.4749 8.1108C14.6701 7.91554 14.9867 7.91554 15.182 8.1108L15.8891 8.81791C16.0843 9.01317 16.0843 9.32975 15.8891 9.52502L13.4142 11.9999L15.8891 14.4748C16.0843 14.67 16.0843 14.9866 15.8891 15.1819L15.182 15.889C14.9867 16.0843 14.6701 16.0843 14.4749 15.889L12 13.4141L9.52511 15.889C9.32984 16.0842 9.01326 16.0842 8.818 15.889L8.11089 15.1819Z" fill="black"/>
</g>
</svg>
