<svg width="24" height="24" viewBox="0 0 24 24" fill="none" xmlns="http://www.w3.org/2000/svg">
<g id="n-icon-automate-cycle">
<path id="Shape" fill-rule="evenodd" clip-rule="evenodd" d="M19 4.85857C17.1963 3.09032 14.7255 2 12 2C6.47715 2 2 6.47715 2 12C2 12.3379 2.01676 12.6718 2.04948 13.0011L4.06201 13.001C4.02108 12.6731 4 12.339 4 12C4 7.58172 7.58172 4 12 4C14.0287 4 15.881 4.75511 17.2912 5.9996L16.5 6C16.2239 6 16 6.22386 16 6.5V7.5C16 7.77614 16.2239 8 16.5 8H20.5L20.5899 7.99194C20.8231 7.94961 21 7.74546 21 7.5V3.5C21 3.22386 20.7761 3 20.5 3H19.5C19.2239 3 19 3.22386 19 3.5L19 4.85857ZM22 12C22 11.6625 21.9833 11.3288 21.9506 10.9999L19.9381 11C19.979 11.3276 20 11.6614 20 12C20 16.4183 16.4183 20 12 20C9.9718 20 8.11989 19.2452 6.7098 18.0013L7.5 18C7.77614 18 8 17.7761 8 17.5V16.5C8 16.2239 7.77614 16 7.5 16H3.5C3.22386 16 3 16.2239 3 16.5V20.5C3 20.7761 3.22386 21 3.5 21H4.5C4.77614 21 5 20.7761 5 20.5L4.99975 19.1412C6.80352 20.9096 9.27442 22 12 22C17.5228 22 22 17.5228 22 12Z" fill="black"/>
<path id="Path" fill-rule="evenodd" clip-rule="evenodd" d="M12.5714 7V11.4444H16L11.4286 17V12.5556H8L12.5714 7Z" fill="black"/>
</g>
</svg>
