<svg width="24" height="24" viewBox="0 0 24 24" fill="none" xmlns="http://www.w3.org/2000/svg">
<g id="n-icon-cycle-progress">
<path id="Shape" fill-rule="evenodd" clip-rule="evenodd" d="M3.04383 5.61205L3.20903 5.38692L3.49826 5.01949L3.7158 4.76292L4.03191 4.41646L4.32307 4.12187L4.51467 3.93955L4.72655 3.74774L5.02972 3.48987L5.45532 3.15791L5.81722 2.90072L5.95943 2.80551L6.12315 2.6998L6.42249 2.51687L6.7091 2.35368L6.9904 2.20433L7.18579 2.10665L7.55599 1.93464L7.82788 1.81879L8.25923 1.65241L8.75131 1.4876C8.98735 1.41474 9.22679 1.34961 9.46934 1.29251L9.69905 1.24103L9.93023 1.19443L10.1847 1.14908L10.5577 1.0937L10.8289 1.0616L11.2679 1.02397C11.5099 1.00807 11.754 1 12 1C18.0751 1 23 5.92487 23 12C23 17.9787 18.2302 22.8434 12.2884 22.9963L12 23C8.29824 23 5.02355 21.1715 3.02988 18.3684L2.82602 18.0716L2.64793 17.7941L2.41152 17.3948L2.25679 17.1107L2.01692 16.6256L1.87389 16.304L1.77839 16.0722L1.64892 15.7311L1.54203 15.42L1.41583 15.0062L1.32788 14.6764L1.28792 14.5111L1.20549 14.1271L1.1558 13.8553L1.10264 13.509L1.06252 13.1798L1.02699 12.7766L1.02224 12.7052C1.00749 12.4719 1 12.2368 1 12C1 11.8501 1.003 11.7009 1.00894 11.5525C1.02457 11.1623 1.06048 10.7775 1.11566 10.399L1.183 9.99121C1.22513 9.76285 1.27433 9.53696 1.33034 9.31378L1.4579 8.84918C1.5123 8.66691 1.57127 8.48669 1.63469 8.30861L1.76542 7.96044L1.88351 7.67349L2.01604 7.37629L2.11431 7.17011L2.33191 6.7489L2.44286 6.55L2.56265 6.34553L2.73678 6.06516L3.04383 5.61205ZM12 3V6C15.3137 6 18 8.68629 18 12C18 15.3137 15.3137 18 12 18C9.91768 18 8.08311 16.9392 7.0072 15.3286L4.51104 16.9933C6.12495 19.409 8.87668 21 12 21C16.9706 21 21 16.9706 21 12C21 7.02944 16.9706 3 12 3ZM8 12C8 9.79086 9.79086 8 12 8C14.2091 8 16 9.79086 16 12C16 14.2091 14.2091 16 12 16C10.5482 16 9.27698 15.2265 8.57606 14.0691L8.50282 13.9431L8.39986 13.7454C8.28841 13.5159 8.19825 13.2742 8.13195 13.0228L8.09047 12.8499C8.07055 12.7578 8.05381 12.6646 8.04036 12.5704L8.0287 12.4816C8.00975 12.3237 8 12.163 8 12Z" fill="black"/>
</g>
</svg>
