<svg width="24" height="24" viewBox="0 0 24 24" fill="none" xmlns="http://www.w3.org/2000/svg">
<g id="n-icon-colapse-side-bar">
<path id="Shape" fill-rule="evenodd" clip-rule="evenodd" d="M8.5 3C8.77614 3 9 3.22386 9 3.5V20.5C9 20.7761 8.77614 21 8.5 21H6.5C6.22386 21 6 20.7761 6 20.5V3.5C6 3.22386 6.22386 3 6.5 3H8.5ZM18.8841 7.74743C18.959 7.83729 19 7.95055 19 8.06752V15.9325C19 16.2086 18.7761 16.4325 18.5 16.4325C18.383 16.4325 18.2698 16.3915 18.1799 16.3166L13.4609 12.3841C13.2488 12.2073 13.2201 11.892 13.3969 11.6799L13.4609 11.6159L18.1799 7.68341C18.392 7.50663 18.7073 7.53529 18.8841 7.74743Z" fill="black"/>
</g>
</svg>
