<svg width="24" height="24" viewBox="0 0 24 24" fill="none" xmlns="http://www.w3.org/2000/svg">
<g id="n-icon-colapse-menu">
<path id="Shape" fill-rule="evenodd" clip-rule="evenodd" d="M16.0278 17C16.1317 17 16.233 17.0323 16.3176 17.0925L17.7239 18.0925C17.9489 18.2526 18.0016 18.5647 17.8416 18.7898C17.7478 18.9217 17.5959 19 17.4341 19H4.5C4.22386 19 4 18.7761 4 18.5V17.5C4 17.2239 4.22386 17 4.5 17H16.0278ZM19.8904 8.72796C19.9614 8.81662 20 8.92678 20 9.04031V14.9597C20 15.2358 19.7761 15.4597 19.5 15.4597C19.3865 15.4597 19.2763 15.421 19.1877 15.3501L15.488 12.3904C15.2724 12.2179 15.2375 11.9033 15.41 11.6877C15.433 11.6588 15.4592 11.6326 15.488 11.6096L19.1877 8.64988C19.4033 8.47737 19.7179 8.51233 19.8904 8.72796ZM12.5 11C12.7761 11 13 11.2239 13 11.5V12.5C13 12.7761 12.7761 13 12.5 13H4.5C4.22386 13 4 12.7761 4 12.5V11.5C4 11.2239 4.22386 11 4.5 11H12.5ZM17.4341 5C17.7102 5 17.9341 5.22386 17.9341 5.5C17.9341 5.66185 17.8558 5.81368 17.7239 5.90748L16.3176 6.90748C16.233 6.96766 16.1317 7 16.0278 7H4.5C4.22386 7 4 6.77614 4 6.5V5.5C4 5.22386 4.22386 5 4.5 5H17.4341Z" fill="black"/>
</g>
</svg>
