<svg width="24" height="24" viewBox="0 0 24 24" fill="none" xmlns="http://www.w3.org/2000/svg">
<g id="n-icon-payment">
<path id="Shape" fill-rule="evenodd" clip-rule="evenodd" d="M22 3C23.1046 3 24 3.89543 24 5V14C24 15.1046 23.1046 16 22 16H20V19C20 20.1046 19.1046 21 18 21H2C0.89543 21 0 20.1046 0 19V9C0 7.89543 0.89543 7 2 7H6V5C6 3.89543 6.89543 3 8 3H22ZM2 13V19H18V13H2ZM15.5 15C15.7761 15 16 15.2239 16 15.5V16.5C16 16.7761 15.7761 17 15.5 17H12.5C12.2239 17 12 16.7761 12 16.5V15.5C12 15.2239 12.2239 15 12.5 15H15.5ZM22 5H8V7H18C19.1046 7 20 7.89543 20 9V14H22V5ZM2 11H18V9H2V11Z" fill="black"/>
</g>
</svg>
