<svg width="24" height="24" viewBox="0 0 24 24" fill="none" xmlns="http://www.w3.org/2000/svg">
<g id="n-icon-help">
<path id="Shape" fill-rule="evenodd" clip-rule="evenodd" d="M22 12C22 6.47715 17.5228 2 12 2C6.47715 2 2 6.47715 2 12C2 17.5228 6.47715 22 12 22C17.5228 22 22 17.5228 22 12ZM4 12C4 7.58172 7.58172 4 12 4C16.4183 4 20 7.58172 20 12C20 16.4183 16.4183 20 12 20C7.58172 20 4 16.4183 4 12ZM12 16C12.5523 16 13 16.4477 13 17C13 17.5523 12.5523 18 12 18C11.4477 18 11 17.5523 11 17C11 16.4477 11.4477 16 12 16ZM16 10C16 7.79 14.21 6 12 6C9.79 6 8 7.79 8 10H10L10.0055 9.85131C10.0822 8.82004 10.95 8 12 8C13.1 8 14 8.9 14 10C14 10.8792 13.4202 11.3236 12.7704 11.8217C11.9421 12.4566 11 13.1787 11 15H13L13.012 14.758C13.1083 13.81 13.7665 13.2347 14.4408 12.6455C15.21 11.9733 16 11.2829 16 10Z" fill="black"/>
</g>
</svg>
