<svg width="24" height="24" viewBox="0 0 24 24" fill="none" xmlns="http://www.w3.org/2000/svg">
<g id="n-icon-bold">
<path id="B" fill-rule="evenodd" clip-rule="evenodd" d="M7 19V4.45459H13.0881C14.6932 4.45459 15.8994 4.80378 16.7067 5.50218C17.514 6.20057 17.9176 7.09426 17.9176 8.18328C17.9176 9.0403 17.669 9.73276 17.1719 10.2607C16.6747 10.7886 16.0474 11.1378 15.2898 11.3083V11.4503C15.8438 11.474 16.3634 11.6303 16.8487 11.9191C17.334 12.2079 17.7282 12.6104 18.0312 13.1265C18.3343 13.6426 18.4858 14.2605 18.4858 14.9802C18.4858 15.7519 18.2952 16.4409 17.9141 17.0469C17.5329 17.653 16.9706 18.13 16.2273 18.478C15.4839 18.826 14.5677 19 13.4787 19H7ZM10.3395 16.4858H12.8466C13.7083 16.4858 14.3345 16.3201 14.7251 15.9887C15.1158 15.6572 15.3111 15.2193 15.3111 14.6748C15.3111 14.0734 15.0968 13.581 14.6683 13.1975C14.2398 12.814 13.6563 12.6222 12.9176 12.6222H10.3395V16.4858ZM10.3395 6.94039V10.5412H12.6193C13.2491 10.5412 13.7723 10.3767 14.1889 10.0476C14.6056 9.71856 14.8139 9.26757 14.8139 8.69465C14.8139 8.16908 14.6281 7.74531 14.2564 7.42334C13.8847 7.10137 13.358 6.94039 12.6761 6.94039H10.3395Z" fill="black"/>
</g>
</svg>
