<svg width="24" height="24" viewBox="0 0 24 24" fill="none" xmlns="http://www.w3.org/2000/svg">
<g id="n-icon-mobile">
<g id="n-icon">
<g id="Union">
<path d="M9.5 17C9.22386 17 9 17.2239 9 17.5C9 17.7761 9.22386 18 9.5 18H14.5C14.7761 18 15 17.7761 15 17.5C15 17.2239 14.7761 17 14.5 17H9.5Z" fill="black"/>
<path fill-rule="evenodd" clip-rule="evenodd" d="M8 2H16C17.6569 2 19 3.34315 19 5V19C19 20.6569 17.6569 22 16 22H8C6.34315 22 5 20.6569 5 19V5C5 3.34315 6.34315 2 8 2ZM14.7324 4H16C16.5523 4 17 4.44772 17 5V19C17 19.5523 16.5523 20 16 20H8C7.44772 20 7 19.5523 7 19V5C7 4.44772 7.44771 4 8 4H9.26756C9.61337 4.5978 10.2597 5 11 5H13C13.7403 5 14.3866 4.5978 14.7324 4Z" fill="black"/>
</g>
</g>
</g>
</svg>
