<svg width="24" height="24" viewBox="0 0 24 24" fill="none" xmlns="http://www.w3.org/2000/svg">
<g id="n-icon-kanban-alt">
<g id="n-icon">
<g id="Union">
<path d="M1.5 1C1.22386 1 1 1.22386 1 1.5V2.5C1 2.77614 1.22386 3 1.5 3H6.5C6.77614 3 7 2.77614 7 2.5V1.5C7 1.22386 6.77614 1 6.5 1H1.5Z" fill="black"/>
<path fill-rule="evenodd" clip-rule="evenodd" d="M2 5C1.44772 5 1 5.44772 1 6V9C1 9.55228 1.44772 10 2 10H6C6.55228 10 7 9.55228 7 9V6C7 5.44772 6.55228 5 6 5H2ZM3 7V8H5V7H3Z" fill="black"/>
<path fill-rule="evenodd" clip-rule="evenodd" d="M10 5C9.44772 5 9 5.44772 9 6V9C9 9.55228 9.44772 10 10 10H14C14.5523 10 15 9.55228 15 9V6C15 5.44772 14.5523 5 14 5H10ZM11 7V8H13V7H11Z" fill="black"/>
<path fill-rule="evenodd" clip-rule="evenodd" d="M17 6C17 5.44772 17.4477 5 18 5H22C22.5523 5 23 5.44772 23 6V9C23 9.55228 22.5523 10 22 10H18C17.4477 10 17 9.55228 17 9V6ZM19 8V7H21V8H19Z" fill="black"/>
<path fill-rule="evenodd" clip-rule="evenodd" d="M2 11C1.44772 11 1 11.4477 1 12V15C1 15.5523 1.44772 16 2 16H6C6.55228 16 7 15.5523 7 15V12C7 11.4477 6.55228 11 6 11H2ZM3 13V14H5V13H3Z" fill="black"/>
<path fill-rule="evenodd" clip-rule="evenodd" d="M9 12C9 11.4477 9.44772 11 10 11H14C14.5523 11 15 11.4477 15 12V15C15 15.5523 14.5523 16 14 16H10C9.44772 16 9 15.5523 9 15V12ZM11 14V13H13V14H11Z" fill="black"/>
<path fill-rule="evenodd" clip-rule="evenodd" d="M2 17C1.44772 17 1 17.4477 1 18V21C1 21.5523 1.44772 22 2 22H6C6.55228 22 7 21.5523 7 21V18C7 17.4477 6.55228 17 6 17H2ZM3 19V20H5V19H3Z" fill="black"/>
<path d="M9 1.5C9 1.22386 9.22386 1 9.5 1H14.5C14.7761 1 15 1.22386 15 1.5V2.5C15 2.77614 14.7761 3 14.5 3H9.5C9.22386 3 9 2.77614 9 2.5V1.5Z" fill="black"/>
<path d="M17.5 1C17.2239 1 17 1.22386 17 1.5V2.5C17 2.77614 17.2239 3 17.5 3H22.5C22.7761 3 23 2.77614 23 2.5V1.5C23 1.22386 22.7761 1 22.5 1H17.5Z" fill="black"/>
</g>
</g>
</g>
</svg>
