<svg width="24" height="24" viewBox="0 0 24 24" fill="none" xmlns="http://www.w3.org/2000/svg">
<g id="n-icon-align-right">
<g id="n-icon">
<g id="Union">
<path d="M20.5 2C20.2239 2 20 2.22386 20 2.5V21.5C20 21.7761 20.2239 22 20.5 22H21.5C21.7761 22 22 21.7761 22 21.5V2.5C22 2.22386 21.7761 2 21.5 2H20.5Z" fill="black"/>
<path fill-rule="evenodd" clip-rule="evenodd" d="M4 9C4 8.44772 4.44772 8 5 8H17C17.5523 8 18 8.44772 18 9V15C18 15.5523 17.5523 16 17 16H5C4.44772 16 4 15.5523 4 15V9ZM6 14V10H16V14H6Z" fill="black"/>
</g>
</g>
</g>
</svg>
