<svg width="24" height="24" viewBox="0 0 24 24" fill="none" xmlns="http://www.w3.org/2000/svg">
<g id="n-icon-new-folder">
<path id="Shape" fill-rule="evenodd" clip-rule="evenodd" d="M10.2534 3C10.5533 3 10.8374 3.13463 11.0274 3.36676L12.364 5H21C21.5523 5 22 5.44772 22 6V20C22 20.5523 21.5523 21 21 21L13.2449 21.0006C13.7271 20.3991 14.1243 19.7265 14.4181 19.001L20 19V7H11.4164L9.7796 5H4L4.00003 8.58151C3.27383 8.87546 2.60061 9.27295 1.99869 9.75568L2 4C2 3.44772 2.44772 3 3 3H10.2534ZM7 10C10.3137 10 13 12.6863 13 16C13 19.3137 10.3137 22 7 22C3.68629 22 1 19.3137 1 16C1 12.6863 3.68629 10 7 10ZM6.4 15.4V13H7.6V15.4H10V16.6H7.5988L7.6 19H6.4L6.3988 16.6H4V15.4H6.4Z" fill="black"/>
</g>
</svg>
