<svg width="24" height="24" viewBox="0 0 24 24" fill="none" xmlns="http://www.w3.org/2000/svg">
<path fill-rule="evenodd" clip-rule="evenodd" d="M15.3868 2.29289L14.3919 3.28789C11.3159 2.55354 7.84558 3.46024 5.33898 5.96684C0.160659 11.1452 2.55066 21.5018 2.55066 21.5018C2.55066 21.5018 12.9073 23.8918 18.0856 18.7135C20.592 16.2071 21.4987 12.7373 20.7648 9.66157L21.7602 8.66621C22.1507 8.27569 22.1507 7.64253 21.7602 7.252L16.8011 2.29289C16.4105 1.90237 15.7774 1.90237 15.3868 2.29289ZM13.9274 5.23322L15.0152 5.49292L16.094 4.41421L19.6388 7.95911L18.5599 9.03808L18.8194 10.1258C19.3897 12.5157 18.6936 15.2771 16.6714 17.2993C14.6457 19.325 11.4281 20.0023 8.3455 20.0498C7.38558 20.0645 6.48351 20.0174 5.70093 19.9464L10.7294 14.9179C11.4814 15.1191 12.3173 14.9247 12.9073 14.3347C13.7873 13.4547 13.7873 12.028 12.9073 11.148C12.0273 10.268 10.6006 10.268 9.72063 11.148C9.13115 11.7375 8.93656 12.5723 9.13685 13.3238L4.10633 18.3543C4.03516 17.5711 3.98793 16.668 4.00271 15.707C4.05014 12.6243 4.72745 9.40679 6.7532 7.38105C8.77562 5.35863 11.5373 4.66261 13.9274 5.23322Z" fill="black"/>
</svg>
