<svg width="24" height="24" viewBox="0 0 24 24" fill="none" xmlns="http://www.w3.org/2000/svg">
<g id="n-icon-contact-company">
<path id="Shape" fill-rule="evenodd" clip-rule="evenodd" d="M2 21V5C2 3.89543 2.89543 3 4 3H10C11.1046 3 12 3.89543 12 5V7H20C21.1046 7 22 7.89543 22 9V21H2ZM10 17H4V19H10V17ZM12 9H20V19H12V17H14V15H12V13H14V11H12V9ZM18 15V17H16V15H18ZM4 13H6V15H4V13ZM10 13H8V15H10V13ZM18 13V11H16V13H18ZM6 9H4V11H6V9ZM8 9H10V11H8V9ZM6 5H4V7H6V5ZM8 5H10V7H8V5Z" fill="black"/>
</g>
</svg>
