<svg width="24" height="24" viewBox="0 0 24 24" fill="none" xmlns="http://www.w3.org/2000/svg">
<g id="n-icon-qtd-alt">
<path id="Shape" fill-rule="evenodd" clip-rule="evenodd" d="M16 2C19.3137 2 22 4.68629 22 8V16C22 19.3137 19.3137 22 16 22H8C4.68629 22 2 19.3137 2 16V8C2 4.68629 4.68629 2 8 2H16ZM16 4H8C5.79086 4 4 5.79086 4 8V16C4 18.2091 5.79086 20 8 20H16C18.2091 20 20 18.2091 20 16V8C20 5.79086 18.2091 4 16 4ZM13 7.5C13 7.22386 12.7761 7 12.5 7H11.4403C11.2131 7 11.0144 7.15318 10.9567 7.37291C10.8468 7.79097 10.5279 8 10 8H9.5C9.22386 8 9 8.22386 9 8.5V9.5C9 9.77614 9.22386 10 9.5 10H11V15H9.5C9.22386 15 9 15.2239 9 15.5V16.5C9 16.7761 9.22386 17 9.5 17H14.5C14.7761 17 15 16.7761 15 16.5V15.5C15 15.2239 14.7761 15 14.5 15H13V7.5Z" fill="black"/>
</g>
</svg>
