<svg width="24" height="24" viewBox="0 0 24 24" fill="none" xmlns="http://www.w3.org/2000/svg">
<g id="n-icon-feedback-alt">
<path id="Shape" fill-rule="evenodd" clip-rule="evenodd" d="M18 3C19.6569 3 21 4.34315 21 6V17C21 18.6569 19.6569 20 18 20H7L3 23V6C3 4.34315 4.34315 3 6 3H18ZM12 14C11.4477 14 11 14.4477 11 15C11 15.5523 11.4477 16 12 16C12.5523 16 13 15.5523 13 15C13 14.4477 12.5523 14 12 14ZM11.5 7H12.5L12.5899 7.00806C12.8231 7.05039 13 7.25454 13 7.5V11.5L12.9919 11.5899C12.9496 11.8231 12.7455 12 12.5 12H11.5L11.4101 11.9919C11.1769 11.9496 11 11.7455 11 11.5V7.5L11.0081 7.41012C11.0504 7.17688 11.2545 7 11.5 7Z" fill="black"/>
</g>
</svg>
