<svg width="24" height="24" viewBox="0 0 24 24" fill="none" xmlns="http://www.w3.org/2000/svg">
<g id="n-icon-apearence">
<path id="Shape" fill-rule="evenodd" clip-rule="evenodd" d="M19.6629 4.88056C20.0301 4.45213 20.0056 3.8132 19.6066 3.41419C19.2076 3.01519 18.5686 2.99065 18.1402 3.35788L10.5185 9.89079L10.4142 9.98737C9.69089 10.7106 9.69089 11.8833 10.4142 12.6066L10.5185 12.7032C11.2951 13.3688 12.4643 13.2789 13.13 12.5023L19.6629 4.88056ZM9.99995 14C11.5 15.5 11 17.5 9.99995 18.5C9.2679 19.232 8.8038 19.4282 8.21534 19.6769C7.99995 19.7679 7.7679 19.866 7.49995 20C7.08837 20.2058 6.75504 20.7058 6.49995 21.5C5.52017 20.5606 4.85351 19.5606 4.49995 18.5C3.95606 16.8683 4.43929 15.0606 5.49995 14C6.56061 12.9393 8.49995 12.5 9.99995 14ZM6.91417 15.4142C6.35163 15.9767 6.10983 17.005 6.39732 17.8675L6.46523 18.0553L6.54371 18.2429L6.75828 18.1376L7.05016 18.0043L7.82919 17.6614C8.09297 17.5322 8.27626 17.3952 8.58574 17.0858C9.03642 16.6351 9.09144 15.9199 8.58574 15.4142C8.05674 14.8852 7.39824 14.9301 6.91417 15.4142Z" fill="black"/>
</g>
</svg>
