<svg width="24" height="24" viewBox="0 0 24 24" fill="none" xmlns="http://www.w3.org/2000/svg">
<g id="n-icon-text-right">
<g id="n-icon">
<path id="Shape" fill-rule="evenodd" clip-rule="evenodd" d="M19.5833 17C19.8135 17 20 17.2239 20 17.5V18.5C20 18.7761 19.8135 19 19.5833 19H10.4167C10.1865 19 10 18.7761 10 18.5V17.5C10 17.2239 10.1865 17 10.4167 17H19.5833ZM19.6875 13C19.8601 13 20 13.2239 20 13.5V14.5C20 14.7761 19.8601 15 19.6875 15H10.3125C10.1399 15 10 14.7761 10 14.5V13.5C10 13.2239 10.1399 13 10.3125 13H19.6875ZM19.5 9C19.7761 9 20 9.22386 20 9.5V10.5C20 10.7761 19.7761 11 19.5 11H4.5C4.22386 11 4 10.7761 4 10.5V9.5C4 9.22386 4.22386 9 4.5 9H19.5ZM19.5 5C19.7761 5 20 5.22386 20 5.5V6.5C20 6.77614 19.7761 7 19.5 7H4.5C4.22386 7 4 6.77614 4 6.5V5.5C4 5.22386 4.22386 5 4.5 5H19.5Z" fill="black"/>
</g>
</g>
</svg>
