<svg width="24" height="24" viewBox="0 0 24 24" fill="none" xmlns="http://www.w3.org/2000/svg">
<g id="n-icon-layers">
<path id="Shape" fill-rule="evenodd" clip-rule="evenodd" d="M18.7528 14.0002L20.6504 15.1435C21.1234 15.4286 21.2757 16.0432 20.9905 16.5162C20.9065 16.6556 20.7898 16.7723 20.6504 16.8564L13.0326 21.4486C12.3974 21.8314 11.6026 21.8314 10.9675 21.4486L3.34963 16.8564C2.87664 16.5712 2.72435 15.9567 3.00948 15.4837C3.09349 15.3443 3.21026 15.2275 3.34963 15.1435L5.24575 14.0002L10.9675 17.4486C11.5537 17.802 12.2761 17.8292 12.8833 17.5301L13.0326 17.4486L18.7528 14.0002ZM13.0326 3.55131L20.6504 8.14351C21.1234 8.42864 21.2757 9.04322 20.9905 9.51621C20.9065 9.65558 20.7898 9.77235 20.6504 9.85636L13.0326 14.4486C12.3974 14.8314 11.6026 14.8314 10.9675 14.4486L3.34963 9.85636C2.87664 9.57123 2.72435 8.95666 3.00948 8.48367C3.09349 8.34429 3.21026 8.22753 3.34963 8.14351L10.9675 3.55131C11.6026 3.16844 12.3974 3.16844 13.0326 3.55131Z" fill="black"/>
</g>
</svg>
