<svg width="24" height="24" viewBox="0 0 24 24" fill="none" xmlns="http://www.w3.org/2000/svg">
<g id="n-icon-funnel-steps-alt">
<g id="n-icon-funnel-steps">
<path id="Rectangle 25 (Stroke)" fill-rule="evenodd" clip-rule="evenodd" d="M17.5585 5H11.7748L13.6865 10.7351C13.9602 11.5562 13.9602 12.4438 13.6865 13.2649L11.7748 19H17.5585L19.8918 12L17.5585 5ZM11.7748 3C10.4097 3 9.44579 4.33739 9.87748 5.63245L11.7892 11.3675C11.926 11.7781 11.926 12.2219 11.7892 12.6325L9.87748 18.3675C9.44579 19.6626 10.4097 21 11.7748 21H17.5585C18.4193 21 19.1836 20.4491 19.4558 19.6325L21.7892 12.6325C21.926 12.2219 21.926 11.7781 21.7892 11.3675L19.4558 4.36754C19.1836 3.55086 18.4193 3 17.5585 3H11.7748Z" fill="black"/>
<path id="Rectangle 25 (Stroke)_2" fill-rule="evenodd" clip-rule="evenodd" d="M5.66667 5H4.00153L5.91323 10.7351C6.18692 11.5562 6.18692 12.4438 5.91323 13.2649L4.00153 19H5.66667L8 12L5.66667 5ZM4.00153 3C2.63642 3 1.67248 4.33739 2.10417 5.63245L4.01586 11.3675C4.15271 11.7781 4.15271 12.2219 4.01586 12.6325L2.10417 18.3675C1.67248 19.6626 2.63642 21 4.00153 21H5.66667C6.52753 21 7.29181 20.4491 7.56403 19.6325L9.89737 12.6325C10.0342 12.2219 10.0342 11.7781 9.89737 11.3675L7.56403 4.36754C7.29181 3.55086 6.52753 3 5.66667 3H4.00153Z" fill="black"/>
</g>
</g>
</svg>
