<svg width="24" height="24" viewBox="0 0 24 24" fill="none" xmlns="http://www.w3.org/2000/svg">
<g id="n-icon-close">
<path id="Path" fill-rule="evenodd" clip-rule="evenodd" d="M7.75735 5.21176L11.9991 9.45389L16.2426 5.21176C16.7113 4.74313 17.4711 4.74313 17.9397 5.21176L18.7882 6.06029C19.2568 6.52892 19.2568 7.28872 18.7882 7.75735L14.5455 11.9991L18.7882 16.2426C19.2568 16.7113 19.2568 17.4711 18.7882 17.9397L17.9397 18.7882C17.4711 19.2568 16.7113 19.2568 16.2426 18.7882L11.9991 14.5455L7.75735 18.7882C7.28872 19.2568 6.52892 19.2568 6.06029 18.7882L5.21176 17.9397C4.74313 17.4711 4.74313 16.7113 5.21176 16.2426L9.45389 11.9991L5.21176 7.75735C4.74313 7.28872 4.74313 6.52892 5.21176 6.06029L6.06029 5.21176C6.52892 4.74313 7.28872 4.74313 7.75735 5.21176Z" fill="black"/>
</g>
</svg>
