<svg width="24" height="24" viewBox="0 0 24 24" fill="none" xmlns="http://www.w3.org/2000/svg">
<g id="n-icon-export">
<path id="Shape" fill-rule="evenodd" clip-rule="evenodd" d="M13 4.5C13 4.22386 12.7761 4 12.5 4H11.5C11.2239 4 11 4.22386 11 4.5V9.999L8.20711 10C8.0745 10 7.94732 10.0527 7.85355 10.1464C7.65829 10.3417 7.65829 10.6583 7.85355 10.8536L11.6464 14.6464C11.8417 14.8417 12.1583 14.8417 12.3536 14.6464L16.1464 10.8536C16.2402 10.7598 16.2929 10.6326 16.2929 10.5C16.2929 10.2239 16.069 10 15.7929 10H13V4.5ZM6.5 16H5.5L5.41012 16.0081C5.17688 16.0504 5 16.2545 5 16.5V18L5.00549 18.1493C5.08183 19.1841 5.94564 20 7 20H17L17.1493 19.9945C18.1841 19.9182 19 19.0544 19 18V16.5L18.9919 16.4101C18.9496 16.1769 18.7455 16 18.5 16H17.5L17.4101 16.0081C17.1769 16.0504 17 16.2545 17 16.5V18H7V16.5L6.99194 16.4101C6.94961 16.1769 6.74546 16 6.5 16Z" fill="black"/>
</g>
</svg>
