<svg width="24" height="24" viewBox="0 0 24 24" fill="none" xmlns="http://www.w3.org/2000/svg">
<g id="n-icon-legal">
<path id="Union" fill-rule="evenodd" clip-rule="evenodd" d="M11.5607 3.16118C11.1701 2.77066 10.537 2.77066 10.1464 3.16118L6.61091 6.69671C6.22039 7.08724 6.22039 7.7204 6.61091 8.11093L8.02512 9.52514L12.9749 4.57539L11.5607 3.16118ZM17.9246 9.52514L12.9749 14.4749L14.3891 15.8891C14.7796 16.2796 15.4128 16.2796 15.8033 15.8891L19.3388 12.3536C19.7294 11.963 19.7294 11.3299 19.3388 10.9394L17.9246 9.52514ZM11 20C11 19.4477 11.4477 19 12 19H19C19.5523 19 20 19.4477 20 20V21H11V20ZM16.5104 8.11079L14.3891 5.98947L3.7825 16.5961L5.90382 18.7174L16.5104 8.11079Z" fill="black"/>
</g>
</svg>
