<svg width="24" height="24" viewBox="0 0 24 24" fill="none" xmlns="http://www.w3.org/2000/svg">
<g id="n-icon-opportunity-medal">
<path id="Rectangle Copy 3" fill-rule="evenodd" clip-rule="evenodd" d="M8 16H16V22L12 20L8 22V16Z" fill="black"/>
<g id="Vector">
<path fill-rule="evenodd" clip-rule="evenodd" d="M20 10C20 5.58172 16.4183 2 12 2C7.58172 2 4 5.58172 4 10C4 14.4183 7.58172 18 12 18C16.4183 18 20 14.4183 20 10ZM6 10C6 6.68629 8.68629 4 12 4C15.3137 4 18 6.68629 18 10C18 13.3137 15.3137 16 12 16C8.68629 16 6 13.3137 6 10Z" fill="black"/>
<path d="M12.2742 5C12.5503 5 12.7741 5.22377 12.7742 5.49985L12.7744 6.20631C14.0433 6.43466 14.8456 7.26403 14.8726 8.40506H13.5664C13.5027 7.68824 12.9027 7.25815 12.0265 7.25815C11.1611 7.25815 10.577 7.68293 10.577 8.3201C10.577 8.82983 10.9646 9.12718 11.9044 9.35019L12.7858 9.55196C14.3416 9.90771 15 10.5502 15 11.6918C15 12.9255 14.1599 13.7698 12.7745 13.9979L12.7743 14.5978C12.7742 14.8738 12.5503 15.0976 12.2743 15.0976H11.7204C11.4443 15.0976 11.2205 14.8739 11.2204 14.5979L11.2201 14.001C9.89005 13.7833 9.04955 12.9749 9 11.7767H10.3274C10.4124 12.4829 11.1186 12.9449 12.0531 12.9449C12.977 12.9449 13.6195 12.4882 13.6195 11.8511C13.6195 11.2989 13.2265 10.9803 12.2602 10.752L11.2673 10.5183C9.85487 10.1944 9.18584 9.51479 9.18584 8.42099C9.18584 7.29654 9.99612 6.47367 11.2199 6.2229L11.2203 5.49971C11.2205 5.22368 11.4443 5 11.7203 5H12.2742Z" fill="black"/>
</g>
</g>
</svg>
