<svg width="24" height="24" viewBox="0 0 24 24" fill="none" xmlns="http://www.w3.org/2000/svg">
<g id="n-icon-language-alt">
<path id="Shape" fill-rule="evenodd" clip-rule="evenodd" d="M17.2854 10.365C17.4929 10.365 17.6788 10.4932 17.7526 10.6871L21.4218 20.3221C21.5465 20.6493 21.3047 21 20.9546 21H19.78C19.5699 21 19.3821 20.8686 19.3102 20.6711L18.545 18.57H14.225L13.4598 20.6711C13.3879 20.8686 13.2001 21 12.99 21H11.8774C11.5266 21 11.2849 20.6483 11.4105 20.3209L15.1069 10.6859C15.181 10.4926 15.3667 10.365 15.5737 10.365H17.2854ZM16.385 12.66L14.915 16.68H17.855L16.385 12.66ZM8.5 3C8.77614 3 9 3.22386 9 3.5V4H14.5C14.7761 4 15 4.22386 15 4.5V5.50029C15 5.77632 14.7763 6.00013 14.5003 6.00029L12.8303 6.00124C12.1766 8.23639 11.0688 10.152 9.517 11.7402C10.3589 12.3434 11.3083 12.8734 12.3657 13.331L11.5715 15.1665C10.2302 14.5861 9.03367 13.8945 7.98389 13.0933C7.0664 13.7942 6.0355 14.4114 4.89339 14.9436L4.39711 15.1665L3.60289 13.331C4.66049 12.8733 5.60999 12.3432 6.45277 11.7396C5.38361 10.6469 4.52654 9.39981 3.88273 8.00038L6.12641 8.00088C6.63112 8.89801 7.24991 9.71268 7.98438 10.4461C9.23223 9.19934 10.1454 7.72013 10.733 6.00079L2.49995 6.00005C2.22383 6.00002 2 5.77617 2 5.50005V4.5C2 4.22386 2.22386 4 2.5 4H7V3.5C7 3.22386 7.22386 3 7.5 3H8.5Z" fill="black"/>
</g>
</svg>
