<svg width="24" height="24" viewBox="0 0 24 24" fill="none" xmlns="http://www.w3.org/2000/svg">
<g id="n-icon-atachment">
<g id="baseline-attachment-24px">
<path id="Path" d="M4.92893 19.5711C2.77933 17.4215 2.77933 13.9425 4.92893 11.7929L12.3536 4.3683C13.9163 2.80559 16.4477 2.80559 18.0104 4.3683C19.5731 5.931 19.5731 8.46245 18.0104 10.0252L12 16.0356C11.0242 17.0114 9.44027 17.0114 8.46447 16.0356C7.48866 15.0598 7.48866 13.4758 8.46447 12.5L13.4142 7.55028C13.6095 7.35502 13.9261 7.35502 14.1213 7.55028L14.8284 8.25739C15.0237 8.45265 15.0237 8.76923 14.8284 8.96449L9.81504 13.9779C9.42613 14.3668 10.1332 15.0739 10.5221 14.685L16.5962 8.61094C17.374 7.83312 17.374 6.56033 16.5962 5.78251C15.8184 5.00469 14.5456 5.00469 13.7678 5.78251L6.34315 13.2071C4.97843 14.5718 4.97843 16.7922 6.34315 18.1569C7.70786 19.5216 9.92818 19.5216 11.2929 18.1569L17.6569 11.7929C17.8521 11.5977 18.1687 11.5977 18.364 11.7929L19.0711 12.5C19.2663 12.6953 19.2663 13.0119 19.0711 13.2071L12.7071 19.5711C10.5575 21.7207 7.07854 21.7207 4.92893 19.5711Z" fill="black"/>
</g>
</g>
</svg>
