<svg width="24" height="24" viewBox="0 0 24 24" fill="none" xmlns="http://www.w3.org/2000/svg">
<g id="n-icon-feedback-reply">
<path id="Shape" fill-rule="evenodd" clip-rule="evenodd" d="M19 1C20.6569 1 22 2.34315 22 4V11C22 12.6569 20.6569 14 19 14H18V17C18 18.6569 16.6569 20 15 20H6L2 23V8C2 6.34315 3.34315 5 5 5H7V4C7 2.34315 8.34315 1 10 1H19ZM5 7C4.44772 7 4 7.44772 4 8V19L5.33333 18H15C15.5523 18 16 17.5523 16 17V8C16 7.44772 15.5523 7 15 7H5ZM11 15C11 14.4477 10.5523 14 10 14C9.44772 14 9 14.4477 9 15C9 15.5523 9.44772 16 10 16C10.5523 16 11 15.5523 11 15ZM10.5 9C10.7761 9 11 9.22386 11 9.5V12.5C11 12.7761 10.7761 13 10.5 13H9.5C9.22386 13 9 12.7761 9 12.5V9.5C9 9.22386 9.22386 9 9.5 9H10.5ZM10 3H19C19.5523 3 20 3.44772 20 4V11C20 11.5523 19.5523 12 19 12H18V8C18 6.34315 16.6569 5 15 5H9V4C9 3.44772 9.44772 3 10 3Z" fill="black"/>
</g>
</svg>
