<svg width="24" height="24" viewBox="0 0 24 24" fill="none" xmlns="http://www.w3.org/2000/svg">
<g id="n-icon-timer-over">
<g id="n-icon">
<g id="Union">
<path d="M8.5 0C8.22386 0 8 0.223858 8 0.5V1.5C8 1.77614 8.22386 2 8.5 2H15.5C15.7761 2 16 1.77614 16 1.5V0.5C16 0.223858 15.7761 0 15.5 0H8.5Z" fill="black"/>
<path d="M11 7.5C11 7.22386 11.2239 7 11.5 7H12.5C12.7761 7 13 7.22386 13 7.5V13.5C13 13.7761 12.7761 14 12.5 14H11.5C11.2239 14 11 13.7761 11 13.5V7.5Z" fill="black"/>
<path d="M12 18C12.5523 18 13 17.5523 13 17C13 16.4477 12.5523 16 12 16C11.4477 16 11 16.4477 11 17C11 17.5523 11.4477 18 12 18Z" fill="black"/>
<path fill-rule="evenodd" clip-rule="evenodd" d="M21.0361 8.71103C21.6542 10.0108 22 11.465 22 13C22 18.5228 17.5228 23 12 23C6.47715 23 2 18.5228 2 13C2 7.47715 6.47715 3 12 3C14.5513 3 16.8794 3.9554 18.6461 5.52794C19.0023 5.20016 19.4778 5 20 5C21.1046 5 22 5.89543 22 7C22 7.72527 21.6139 8.36037 21.0361 8.71103ZM20 13C20 17.4183 16.4183 21 12 21C7.58172 21 4 17.4183 4 13C4 8.58172 7.58172 5 12 5C14.6016 5 16.9132 6.24186 18.3742 8.16513C18.3911 8.18862 18.4085 8.21172 18.4263 8.23444C19.415 9.56555 20 11.2145 20 13Z" fill="black"/>
</g>
</g>
</g>
</svg>
