<svg width="24" height="24" viewBox="0 0 24 24" fill="none" xmlns="http://www.w3.org/2000/svg">
<path d="M16.8087 13.7708C16.9771 13.8516 17.0908 13.9061 17.1398 13.9863C17.1996 14.0858 17.1996 14.5638 16.9996 15.122C16.7982 15.6794 15.8156 16.2171 15.3747 16.2569C15.2991 16.2638 15.2364 16.2788 15.1722 16.2942C14.8616 16.3688 14.5142 16.4521 12.4864 15.66C10.2254 14.7764 8.73505 12.583 8.42706 12.1297C8.40177 12.0925 8.38446 12.067 8.37534 12.0549C8.25318 11.8938 7.39267 10.7592 7.39267 9.58537C7.39267 8.48604 7.93685 7.90949 8.18743 7.644C8.20465 7.62575 8.22049 7.60897 8.23467 7.59359C8.45534 7.3547 8.71623 7.29492 8.87667 7.29492C8.95959 7.29492 9.04257 7.30026 9.12276 7.30543C9.19773 7.31025 9.27025 7.31492 9.338 7.31492C9.35483 7.31492 9.37251 7.31378 9.39093 7.3126C9.52657 7.30386 9.70287 7.29251 9.87934 7.71314C9.94358 7.86641 10.0367 8.09127 10.1356 8.33001C10.3453 8.83616 10.5808 9.40472 10.6216 9.48581C10.682 9.60559 10.7222 9.74492 10.6416 9.90426C10.6301 9.92718 10.6195 9.94885 10.6093 9.96959C10.5486 10.0932 10.5044 10.1832 10.4011 10.3027C10.3613 10.3489 10.3201 10.3986 10.2789 10.4484C10.1958 10.5488 10.1125 10.6493 10.04 10.7209C9.91978 10.8398 9.79423 10.9689 9.93445 11.2078C10.0749 11.4471 10.558 12.2285 11.2733 12.8614C12.0428 13.5421 12.7115 13.83 13.05 13.9757C13.1159 14.004 13.1693 14.027 13.2084 14.0465C13.4493 14.166 13.5896 14.146 13.73 13.9863C13.8707 13.8269 14.332 13.2894 14.4922 13.0503C14.6524 12.8114 14.8133 12.8514 15.034 12.9309C15.254 13.0103 16.4376 13.5883 16.6784 13.7076C16.7249 13.7307 16.7684 13.7515 16.8087 13.7708Z" fill="black"/>
<path fill-rule="evenodd" clip-rule="evenodd" d="M3.77222 16.7729L2 22L7.43578 20.2727C8.84289 21.0449 10.4602 21.4849 12.1818 21.4849C17.6047 21.4849 22 17.1231 22 11.7424C22 6.36178 17.6051 2 12.1818 2C6.75911 2 2.36333 6.36178 2.36333 11.7424C2.36333 13.5831 2.87822 15.3049 3.77222 16.7729ZM8.398 18.5193L7.64677 18.1071L5.16424 18.8959L5.96625 16.5304L5.48039 15.7326C4.77138 14.5684 4.36333 13.205 4.36333 11.7424C4.36333 7.48097 7.849 4 12.1818 4C16.5151 4 20 7.48082 20 11.7424C20 16.004 16.5147 19.4849 12.1818 19.4849C10.805 19.4849 9.51769 19.1338 8.398 18.5193Z" fill="black"/>
</svg>
