<svg width="24" height="24" viewBox="0 0 24 24" fill="none" xmlns="http://www.w3.org/2000/svg">
<g id="n-icon-download">
<path id="cloud" fill-rule="evenodd" clip-rule="evenodd" d="M19.35 9.04C18.67 5.59 15.64 3 12 3C9.11 3 6.6 4.64 5.35 7.04C2.34 7.36 0 9.91 0 13C0 15.9693 2.1648 18.4397 5 18.9168V16.8741C3.2743 16.4303 2 14.8647 2 13C2 10.79 3.79 9 6 9H6.71C7.37 6.69 9.48 5 12 5C15.04 5 17.5 7.46 17.5 10.5V11H19C20.66 11 22 12.34 22 14C22 15.66 20.66 17 19 17V19C21.76 19 24 16.76 24 14C24 11.36 21.95 9.22 19.35 9.04Z" fill="black"/>
<path id="Combined Shape" fill-rule="evenodd" clip-rule="evenodd" d="M11 17.5864V12.5C11 12.2239 11.2239 12 11.5 12H12.5C12.7761 12 13 12.2239 13 12.5V17.6568L14.5104 16.1464C14.7057 15.9512 15.0223 15.9512 15.2175 16.1464L15.9246 16.8536C16.1199 17.0488 16.1199 17.3654 15.9246 17.5607L12.3891 21.0962C12.3023 21.183 12.1916 21.2312 12.0781 21.2408H11.9929C11.8795 21.2312 11.7688 21.183 11.682 21.0962L8.14645 17.5607C7.95118 17.3654 7.95118 17.0488 8.14645 16.8536L8.85355 16.1464C9.04882 15.9512 9.3654 15.9512 9.56066 16.1464L11 17.5864Z" fill="black"/>
</g>
</svg>
