<svg width="24" height="24" viewBox="0 0 24 24" fill="none" xmlns="http://www.w3.org/2000/svg">
<path fill-rule="evenodd" clip-rule="evenodd" d="M7.92579 18.9173L8.50982 19.201C9.56217 19.7123 10.7447 20 12 20C16.4183 20 20 16.4183 20 12C20 7.58172 16.4183 4 12 4C7.58173 4 4.00001 7.58172 4.00001 12C4.00001 13.4605 4.38954 14.8239 5.06904 15.9985L5.48414 16.7161L4.74412 19.4819L7.92579 18.9173ZM2 22L3.33783 17C2.48698 15.5291 2.00001 13.8214 2.00001 12C2.00001 6.47715 6.47716 2 12 2C17.5229 2 22 6.47715 22 12C22 17.5228 17.5229 22 12 22C10.4354 22 8.95465 21.6407 7.63588 21L2 22Z" fill="black"/>
</svg>
