<svg width="24" height="24" viewBox="0 0 24 24" fill="none" xmlns="http://www.w3.org/2000/svg">
<path fill-rule="evenodd" clip-rule="evenodd" d="M16.8485 3.27197L14.5 1L12.1515 3.27197L8.91604 2.81434L8.35147 6.03283L5.46497 7.56434L6.88544 10.4702C6.06801 11.1416 5.41743 12.0089 5.0028 13H5C2.23772 13 0 15.2377 0 18C0 20.7623 2.23772 23 5 23H18C20.2123 23 22 21.2123 22 19C22 17.7301 21.4109 16.6 20.4906 15.8677L20.6485 14.9672L23.535 13.4357L22.1 10.5L23.535 7.56434L20.6485 6.03283L20.084 2.81434L16.8485 3.27197ZM17.6631 15C19.0766 14.0046 20 12.3602 20 10.5C20 7.46243 17.5376 5 14.5 5C11.8851 5 9.69647 6.82479 9.13797 9.2704C9.72711 9.09451 10.352 9 11 9C14.424 9 17.2261 11.6417 17.4811 15H17.6631ZM6.67152 14.2747C7.21314 12.3791 8.94184 11 11 11C13.4877 11 15.5 13.0123 15.5 15.5V17H18C19.1077 17 20 17.8923 20 19C20 20.1077 19.1077 21 18 21H5C3.34228 21 2 19.6577 2 18C2 16.3423 3.34228 15 5 15H6.4643L6.67152 14.2747Z" fill="black"/>
</svg>
