<svg width="24" height="24" viewBox="0 0 24 24" fill="none" xmlns="http://www.w3.org/2000/svg">
<g id="n-icon-share">
<path id="Shape" fill-rule="evenodd" clip-rule="evenodd" d="M12.1624 2.01446L12.0781 2H11.9929L11.9087 2.01446C11.8533 2.02893 11.7999 2.05303 11.7512 2.08678L11.682 2.14464L8.14645 5.68017L8.08859 5.74942C7.97047 5.91993 7.97047 6.14752 8.08859 6.31803L8.14645 6.38728L8.85355 7.09439L8.9228 7.15224C9.09331 7.27036 9.3209 7.27036 9.49141 7.15224L9.56066 7.09439L10.999 5.656L11 16L11.0081 16.0899C11.0504 16.3231 11.2545 16.5 11.5 16.5H12.5L12.5899 16.4919C12.8231 16.4496 13 16.2455 13 16L12.999 5.584L14.5104 7.09439L14.5797 7.15224C14.7502 7.27036 14.9778 7.27036 15.1483 7.15224L15.2175 7.09439L15.9246 6.38728L15.9825 6.31803C16.1006 6.14752 16.1006 5.91993 15.9825 5.74942L15.9246 5.68017L12.3891 2.14464L12.3198 2.08678C12.2711 2.05303 12.2177 2.02893 12.1624 2.01446ZM9 10.5V9.5C9 9.22386 8.77614 9 8.5 9H5C3.89543 9 3 9.89543 3 11V20C3 21.1046 3.89543 22 5 22H19C20.1046 22 21 21.1046 21 20V11C21 9.89543 20.1046 9 19 9H15.5C15.2239 9 15 9.22386 15 9.5V10.5C15 10.7761 15.2239 11 15.5 11H19V20H5V11H8.5C8.77614 11 9 10.7761 9 10.5Z" fill="black"/>
</g>
</svg>
