<svg width="24" height="24" viewBox="0 0 24 24" fill="none" xmlns="http://www.w3.org/2000/svg">
<g id="n-icon-align-bottom">
<g id="n-icon">
<g id="Union">
<path fill-rule="evenodd" clip-rule="evenodd" d="M8 6C8 5.44772 8.44772 5 9 5H15C15.5523 5 16 5.44772 16 6V17C16 17.5523 15.5523 18 15 18H9C8.44772 18 8 17.5523 8 17V6ZM10 16V7H14V16H10Z" fill="black"/>
<path d="M2.5 20C2.22386 20 2 20.2239 2 20.5V21.5C2 21.7761 2.22386 22 2.5 22H21.5C21.7761 22 22 21.7761 22 21.5V20.5C22 20.2239 21.7761 20 21.5 20H2.5Z" fill="black"/>
</g>
</g>
</g>
</svg>
