<svg width="24" height="24" viewBox="0 0 24 24" fill="none" xmlns="http://www.w3.org/2000/svg">
<path d="M16 1.5C16 1.22386 16.2239 1 16.5 1H17.5C17.7761 1 18 1.22386 18 1.5V6H22.5C22.7761 6 23 6.22386 23 6.5V7.5C23 7.77614 22.7761 8 22.5 8H16.5C16.2239 8 16 7.77614 16 7.5V1.5Z" fill="black"/>
<path d="M8.5 11H15.5C15.7761 11 16 11.2239 16 11.5V12.5C16 12.7761 15.7761 13 15.5 13H8.5C8.22386 13 8 12.7761 8 12.5V11.5C8 11.2239 8.22386 11 8.5 11Z" fill="black"/>
<path d="M8 22.5C8 22.7761 7.77614 23 7.5 23H6.5C6.22386 23 6 22.7761 6 22.5L6 18H1.5C1.22386 18 1 17.7761 1 17.5V16.5C1 16.2239 1.22386 16 1.5 16H7.5C7.77614 16 8 16.2239 8 16.5L8 22.5Z" fill="black"/>
</svg>
