<svg width="24" height="24" viewBox="0 0 24 24" fill="none" xmlns="http://www.w3.org/2000/svg">
<g id="n-icon-view-kanban">
<path id="Shape" fill-rule="evenodd" clip-rule="evenodd" d="M6 3C6.55228 3 7 3.44772 7 4V20C7 20.5523 6.55228 21 6 21H4C3.44772 21 3 20.5523 3 20V4C3 3.44772 3.44772 3 4 3H6ZM13 3C13.5523 3 14 3.44772 14 4V17C14 17.5523 13.5523 18 13 18H11C10.4477 18 10 17.5523 10 17V4C10 3.44772 10.4477 3 11 3H13ZM20 3C20.5523 3 21 3.44772 21 4V13C21 13.5523 20.5523 14 20 14H18C17.4477 14 17 13.5523 17 13V4C17 3.44772 17.4477 3 18 3H20Z" fill="black"/>
</g>
</svg>
