<svg width="24" height="24" viewBox="0 0 24 24" fill="none" xmlns="http://www.w3.org/2000/svg">
<g id="n-icon-list">
<g id="Shape">
<path d="M5.5 4C6.32843 4 7 4.67157 7 5.5C7 6.32843 6.32843 7 5.5 7C4.67157 7 4 6.32843 4 5.5C4 4.67157 4.67157 4 5.5 4Z" fill="black"/>
<path d="M5.5 10C6.32843 10 7 10.6716 7 11.5C7 12.3284 6.32843 13 5.5 13C4.67157 13 4 12.3284 4 11.5C4 10.6716 4.67157 10 5.5 10Z" fill="black"/>
<path d="M7 17.5C7 16.6716 6.32843 16 5.5 16C4.67157 16 4 16.6716 4 17.5C4 18.3284 4.67157 19 5.5 19C6.32843 19 7 18.3284 7 17.5Z" fill="black"/>
<path d="M20 19V17H10V19H20Z" fill="black"/>
<path d="M20 13V11H10V13H20Z" fill="black"/>
<path d="M20 7V5H10V7H20Z" fill="black"/>
</g>
</g>
</svg>
