<svg width="24" height="24" viewBox="0 0 24 24" fill="none" xmlns="http://www.w3.org/2000/svg">
<g id="n-icon-statistics">
<path id="Shape" fill-rule="evenodd" clip-rule="evenodd" d="M5.5 15C5.77614 15 6 15.2239 6 15.5V20.5C6 20.7761 5.77614 21 5.5 21H3.5C3.22386 21 3 20.7761 3 20.5V15.5C3 15.2239 3.22386 15 3.5 15H5.5ZM15.5 14C15.7761 14 16 14.2239 16 14.5V20.5C16 20.7761 15.7761 21 15.5 21H13.5C13.2239 21 13 20.7761 13 20.5V14.5C13 14.2239 13.2239 14 13.5 14H15.5ZM10.5 12C10.7761 12 11 12.2239 11 12.5V20.5C11 20.7761 10.7761 21 10.5 21H8.5C8.22386 21 8 20.7761 8 20.5V12.5C8 12.2239 8.22386 12 8.5 12H10.5ZM20.5 11C20.7761 11 21 11.2239 21 11.5V20.5C21 20.7761 20.7761 21 20.5 21H18.5C18.2239 21 18 20.7761 18 20.5V11.5C18 11.2239 18.2239 11 18.5 11H20.5ZM20.5 2C20.7761 2 21 2.22386 21 2.5V8L18.796 5.796L13.7648 10.7264L9.74326 6.78617L4.77176 11.6572C4.60166 11.8238 4.34225 11.8446 4.14983 11.7197L4.07191 11.6572L3.35729 10.9568C3.18551 10.7815 3.16898 10.5119 3.30596 10.3184L3.36452 10.2498L9.74326 4L13.7648 7.94025L17.389 4.389L15 2H20.5Z" fill="black"/>
</g>
</svg>
