<svg width="24" height="24" viewBox="0 0 24 24" fill="none" xmlns="http://www.w3.org/2000/svg">
<g id="n-icon-apps">
<path id="Shape" fill-rule="evenodd" clip-rule="evenodd" d="M19 2C19.5523 2 20 2.44772 20 3V10C20 10.5523 19.5523 11 19 11H12C11.4477 11 11 10.5523 11 10V3C11 2.44772 11.4477 2 12 2H19ZM9 6C9 5.44772 8.55228 5 8 5H4C3.44772 5 3 5.44772 3 6V12C3 12.5523 3.44772 13 4 13H8C8.55228 13 9 12.5523 9 12V6ZM19 13C19.5523 13 20 13.4477 20 14V21C20 21.5523 19.5523 22 19 22H12C11.4477 22 11 21.5523 11 21V14C11 13.4477 11.4477 13 12 13H19ZM8 15C8.55228 15 9 15.4477 9 16V20C9 20.5523 8.55228 21 8 21H4C3.44772 21 3 20.5523 3 20V16C3 15.4477 3.44772 15 4 15H8ZM13 4H18V9H13V4Z" fill="black"/>
</g>
</svg>
