<svg width="24" height="24" viewBox="0 0 24 24" fill="none" xmlns="http://www.w3.org/2000/svg">
<g id="n-icon-call-menu">
<path id="Shape" fill-rule="evenodd" clip-rule="evenodd" d="M8 3.99999H4.89001L4.77837 4.00692C4.33953 4.06184 4 4.43627 4 4.88999C3.99735 8.89822 5.58844 12.7431 8.42269 15.5773C11.2569 18.4116 15.1018 20.0026 19.11 20C19.6015 20 20 19.6015 20 19.11V16L19.9931 15.8883C19.9382 15.4495 19.5637 15.11 19.11 15.11C18.0328 15.1118 16.9623 14.9396 15.94 14.6C15.6191 14.5063 15.2726 14.5901 15.03 14.82L13.08 16.77L12.7388 16.5907C10.3715 15.3026 8.44613 13.3268 7.22001 10.92L9.22001 8.91999L9.30271 8.82751C9.47885 8.60051 9.5361 8.29945 9.45001 8.01999C9.11037 6.99769 8.93815 5.92723 8.94001 4.84999C8.92969 4.61204 8.82443 4.38815 8.64777 4.2284C8.47111 4.06866 8.23779 3.98639 8 3.99999ZM18 7.49999C18 6.11928 16.8807 4.99999 15.5 4.99999C14.1193 4.99999 13 6.11928 13 7.49999C13 8.8807 14.1193 9.99999 15.5 9.99999C16.8807 9.99999 18 8.8807 18 7.49999Z" fill="black"/>
</g>
</svg>
