<svg width="24" height="24" viewBox="0 0 24 24" fill="none" xmlns="http://www.w3.org/2000/svg">
<g id="n-icon-emoji-frown">
<path id="Shape" fill-rule="evenodd" clip-rule="evenodd" d="M12 2C17.5228 2 22 6.47715 22 12C22 17.5228 17.5228 22 12 22C6.47715 22 2 17.5228 2 12C2 6.47715 6.47715 2 12 2ZM12 4C7.58172 4 4 7.58172 4 12C4 16.4183 7.58172 20 12 20C16.4183 20 20 16.4183 20 12C20 7.58172 16.4183 4 12 4ZM16 17C16 14.7909 14.2091 13 12 13C9.79086 13 8 14.7909 8 17H10L10.0055 16.8507C10.0818 15.8159 10.9456 15 12 15C13.1046 15 14 15.8954 14 17H16ZM15 8C15.5523 8 16 8.44772 16 9V10C16 10.5523 15.5523 11 15 11C14.4477 11 14 10.5523 14 10V9C14 8.44772 14.4477 8 15 8ZM10 9C10 8.44772 9.55228 8 9 8C8.44772 8 8 8.44772 8 9V10C8 10.5523 8.44772 11 9 11C9.55228 11 10 10.5523 10 10V9Z" fill="black"/>
</g>
</svg>
