<svg width="24" height="24" viewBox="0 0 24 24" fill="none" xmlns="http://www.w3.org/2000/svg">
<g id="n-icon-flip-vert">
<path id="Shape" fill-rule="evenodd" clip-rule="evenodd" d="M7.04262 3.96625C7.15603 3.97589 7.26678 4.0241 7.35356 4.11089L10.8891 7.64642C11.0844 7.84168 11.0844 8.15827 10.8891 8.35353L10.182 9.06063C9.98673 9.2559 9.67015 9.2559 9.47488 9.06063L7.99948 7.58525L7.99999 18.5C8 18.7761 7.77614 19 7.49999 19H6.49999C6.22385 19 6 18.7761 5.99999 18.5L5.99948 7.58525L4.52514 9.06063C4.32988 9.2559 4.01329 9.2559 3.81803 9.06063L3.11092 8.35353C2.91566 8.15827 2.91566 7.84168 3.11092 7.64642L6.64646 4.11089C6.73324 4.0241 6.84399 3.97589 6.9574 3.96625H7.04262ZM17.9995 16.4122L19.4749 14.9393C19.6701 14.7441 19.9867 14.7441 20.182 14.9393L20.8891 15.6464C21.0844 15.8417 21.0844 16.1583 20.8891 16.3535L17.3536 19.8891C17.2885 19.9541 17.2099 19.9975 17.1268 20.0192L17.0426 20.0337H16.9574C16.844 20.0241 16.7332 19.9758 16.6465 19.8891L13.1109 16.3535C12.9157 16.1583 12.9157 15.8417 13.1109 15.6464L13.818 14.9393C14.0133 14.7441 14.3299 14.7441 14.5251 14.9393L15.9995 16.4132L16 5.49995C16 5.22382 16.2239 4.99997 16.5 4.99997H17.5C17.7761 4.99997 18 5.22385 18 5.5L17.9995 16.4122Z" fill="black"/>
</g>
</svg>
