<svg width="24" height="24" viewBox="0 0 24 24" fill="none" xmlns="http://www.w3.org/2000/svg">
<g id="n-icon-love-alt">
<path id="Path" fill-rule="evenodd" clip-rule="evenodd" d="M16.0563 4.13189L15.835 4.12848L15.5064 4.13979C14.1477 4.22676 12.9164 4.81017 12.0007 5.7155C10.9615 4.68946 9.51839 4.07691 7.94374 4.13189C4.90802 4.2379 2.53303 6.78478 2.63904 9.82049C2.79027 14.1512 5.91059 17.5444 12 20C18.0894 17.5444 21.2097 14.1512 21.361 9.82049C21.467 6.78478 19.092 4.2379 16.0563 4.13189ZM13.4068 7.13774C14.0033 6.54807 14.7893 6.18978 15.6342 6.13571L15.8506 6.12896L16.0254 6.13166C17.9183 6.19814 19.4296 7.81887 19.3622 9.75069C19.2513 12.9267 17.031 15.5578 12.3638 17.6704L12 17.8318C7.08422 15.6923 4.75157 13.0081 4.63782 9.75069C4.57036 7.81887 6.08172 6.19814 8.01354 6.13068C8.9907 6.09655 9.91304 6.46484 10.5955 7.13867L12.0016 8.52706L13.4068 7.13774Z" fill="black"/>
</g>
</svg>
