<svg width="24" height="24" viewBox="0 0 24 24" fill="none" xmlns="http://www.w3.org/2000/svg">
<g id="n-icon-build-cta">
<g id="Union">
<path d="M5 9H19C19.5523 9 20 9.44771 20 10V14C20 14.1872 19.9486 14.3624 19.8591 14.5122L21.7717 15.1498C21.9188 14.7957 22 14.4073 22 14V10C22 8.34315 20.6569 7 19 7H5C3.34315 7 2 8.34315 2 10V14C2 15.6569 3.34315 17 5 17H13.5583L13.4189 16.5817C13.2345 16.0286 13.2512 15.4831 13.4143 15H5C4.44772 15 4 14.5523 4 14V10C4 9.44772 4.44772 9 5 9Z" fill="black"/>
<path d="M8 11.5C8 11.2239 8.22386 11 8.5 11H15.5C15.7761 11 16 11.2239 16 11.5V12.5C16 12.7761 15.7761 13 15.5 13H8.5C8.22386 13 8 12.7761 8 12.5V11.5Z" fill="black"/>
<path d="M22.9121 17.6383L15.9487 15.3169C15.5578 15.1865 15.1859 15.5584 15.3162 15.9493L17.6374 22.9126C17.7754 23.3268 18.3408 23.3775 18.5504 22.9944L20.1213 20.1224L22.9939 18.5513C23.3769 18.3418 23.3263 17.7764 22.9121 17.6383Z" fill="black"/>
</g>
</g>
</svg>
