<svg width="24" height="24" viewBox="0 0 24 24" fill="none" xmlns="http://www.w3.org/2000/svg">
<g id="n-icon-tag-45">
<path id="Combined Shape" fill-rule="evenodd" clip-rule="evenodd" d="M11.6659 2.34972C10.994 2.19466 10.2896 2.39668 9.80197 2.88429L1.3934 11.2929C0.612355 12.0739 0.612355 13.3402 1.3934 14.1213L9.87868 22.6066C10.6597 23.3876 11.9261 23.3876 12.7071 22.6066L21.1157 14.198C21.6033 13.7104 21.8053 13.006 21.6502 12.3341L20.0593 5.43977C19.8873 4.69457 19.3054 4.11268 18.5602 3.94071L11.6659 2.34972ZM14.1213 9.87864C13.3403 9.09759 13.3403 7.83126 14.1213 7.05021C14.9024 6.26916 16.1687 6.26916 16.9498 7.05021C17.7308 7.83126 17.7308 9.09759 16.9498 9.87864C16.1687 10.6597 14.9024 10.6597 14.1213 9.87864Z" fill="black"/>
</g>
</svg>
