<svg width="24" height="24" viewBox="0 0 24 24" fill="none" xmlns="http://www.w3.org/2000/svg">
<g id="n-icon-insight">
<path id="Combined Shape" fill-rule="evenodd" clip-rule="evenodd" d="M21 10C21 5.02944 16.9706 1 12 1C7.02944 1 3 5.02944 3 10C3 13.1203 4.58793 15.8698 6.99978 17.4843L7 20H17L17.0012 17.4836C19.4125 15.869 21 13.1199 21 10ZM5 10C5 6.13401 8.13401 3 12 3C15.866 3 19 6.13401 19 10C19 12.3661 17.8193 14.5289 15.8884 15.8218L15.0017 16.4155L15.001 18H8.99983L8.99969 16.4163L8.11235 15.8223C6.18103 14.5295 5 12.3664 5 10ZM17 21L16.1382 22.7236C16.0535 22.893 15.8804 23 15.691 23H8.30902C8.11963 23 7.9465 22.893 7.8618 22.7236L7 21H17ZM12.5 9.5V5.5L8.5 10.5H11.5V14.5L15.5 9.5H12.5Z" fill="black"/>
</g>
</svg>
