<svg width="24" height="24" viewBox="0 0 24 24" fill="none" xmlns="http://www.w3.org/2000/svg">
<g id="n-icon-task-medal">
<g id="Vector">
<path fill-rule="evenodd" clip-rule="evenodd" d="M20 10C20 5.58172 16.4183 2 12 2C7.58172 2 4 5.58172 4 10C4 14.4183 7.58172 18 12 18C16.4183 18 20 14.4183 20 10ZM6 10C6 6.68629 8.68629 4 12 4C15.3137 4 18 6.68629 18 10C18 13.3137 15.3137 16 12 16C8.68629 16 6 13.3137 6 10Z" fill="black"/>
<path d="M15.0479 7.65367C14.8526 7.4584 14.536 7.4584 14.3408 7.65367L10.8445 11.1499L9.54814 9.85355C9.35288 9.65829 9.03629 9.65829 8.84103 9.85355L8.44819 10.2464C8.25293 10.4417 8.25293 10.7582 8.44819 10.9535L10.4909 12.9963C10.6862 13.1915 11.0028 13.1915 11.1981 12.9963L15.4407 8.75361C15.636 8.55835 15.636 8.24177 15.4407 8.0465L15.0479 7.65367Z" fill="black"/>
</g>
<path id="Rectangle" fill-rule="evenodd" clip-rule="evenodd" d="M8 16H16V22L12 20L8 22V16Z" fill="black"/>
</g>
</svg>
