<svg width="24" height="24" viewBox="0 0 24 24" fill="none" xmlns="http://www.w3.org/2000/svg">
<g id="n-icon-calling">
<path id="Union" fill-rule="evenodd" clip-rule="evenodd" d="M16.48 14.82C17.59 15.18 18.78 15.38 20.01 15.38C20.55 15.38 21 15.83 21 16.37V19.82C21 20.37 20.72 21 20.01 21C10.73 21 3 13.28 3 3.99C3 3.24 3.65 3 4.19 3H7.65C8.19 3 8.64 3.45 8.64 3.99C8.64 5.22 8.83 6.41 9.2 7.52C9.31 7.87 9.23 8.26 8.96 8.54L7.01 10.2C8.42 13.13 11.07 15.68 13.9 17.03L15.47 15.06C15.74 14.79 16.13 14.7 16.48 14.82ZM21 11C21 6.58172 17.4183 3 13 3V5C16.3137 5 19 7.68629 19 11H21ZM17 11C17 8.79086 15.2091 7 13 7V9C13.5544 9 14.0562 9.2256 14.4184 9.59001C14.7779 9.9516 15 10.4499 15 11H17Z" fill="black"/>
</g>
</svg>
