<svg width="24" height="24" viewBox="0 0 24 24" fill="none" xmlns="http://www.w3.org/2000/svg">
<g id="n-icon-view">
<path id="Combined Shape" fill-rule="evenodd" clip-rule="evenodd" d="M12 5C15.6819 5 19.0152 7.33333 22 12C19.0152 16.6667 15.6819 19 12 19C8.3181 19 4.98477 16.6667 2 12C4.98477 7.33333 8.3181 5 12 5ZM19.3528 11.6763C16.9974 8.49587 14.553 7 12 7C9.36188 7 6.83978 8.59726 4.41195 12C6.83978 15.4027 9.36188 17 12 17C14.553 17 16.9974 15.5041 19.3528 12.3237L19.5881 12L19.3528 11.6763ZM13.5 11C13.9379 11 14.332 10.8124 14.6062 10.5131C14.8568 10.9514 15 11.459 15 12C15 13.6569 13.6569 15 12 15C10.3431 15 9 13.6569 9 12C9 10.3431 10.3431 9 12 9C12.0284 9 12.0567 9.00039 12.0849 9.00118C12.0299 9.15724 12 9.32512 12 9.5C12 10.3284 12.6716 11 13.5 11Z" fill="black"/>
</g>
</svg>
