<svg width="24" height="24" viewBox="0 0 24 24" fill="none" xmlns="http://www.w3.org/2000/svg">
<g id="n-icon-import">
<path id="Union" fill-rule="evenodd" clip-rule="evenodd" d="M11.6464 4.35354C11.8417 4.15828 12.1583 4.15828 12.3536 4.35354L16.1464 8.14643C16.4614 8.46142 16.2383 8.99999 15.7929 8.99999H13V14.5C13 14.7761 12.7761 15 12.5 15H11.5C11.2239 15 11 14.7761 11 14.5V8.99999H8.20711C7.76165 8.99999 7.53857 8.46141 7.85355 8.14643L11.6464 4.35354ZM5 16.5C5 16.2238 5.22386 16 5.5 16H6.5C6.77614 16 7 16.2238 7 16.5V18H17V16.5C17 16.2238 17.2239 16 17.5 16H18.5C18.7761 16 19 16.2238 19 16.5V18C19 19.1046 18.1046 20 17 20H7C5.89543 20 5 19.1046 5 18V16.5Z" fill="black"/>
</g>
</svg>
