<svg width="24" height="24" viewBox="0 0 24 24" fill="none" xmlns="http://www.w3.org/2000/svg">
<g id="n-icon-win-thumb-up">
<path id="Shape" fill-rule="evenodd" clip-rule="evenodd" d="M13 2C14.1991 2 15.1712 2.97206 15.1712 4.17116C15.1712 4.34868 15.1494 4.52553 15.1063 4.69775L14.2808 8H20.5C21.3284 8 22 8.67157 22 9.5V11.9093C22 12.0892 21.9676 12.2676 21.9045 12.436L19.9096 17.7556C19.1778 19.7071 17.3122 21 15.228 21H10C8.34315 21 7 19.6569 7 18V8.82843C7 8.03278 7.31607 7.26972 7.87868 6.70711L12.5858 2H13ZM4.5 8C4.77614 8 5 8.22386 5 8.5V19.5C5 19.7761 4.77614 20 4.5 20H2.5C2.22386 20 2 19.7761 2 19.5V8.5C2 8.22386 2.22386 8 2.5 8H4.5ZM13.1542 4.25999L9.29289 8.12132C9.10536 8.30886 9 8.56321 9 8.82843V18C9 18.5523 9.44772 19 10 19H15.228C16.4785 19 17.5979 18.2243 18.037 17.0534L20 11.8187V10H13.6404C13.5177 10 13.3956 9.98496 13.2766 9.95521C12.4729 9.75429 11.9843 8.93989 12.1852 8.1362L13.1542 4.25999Z" fill="black"/>
</g>
</svg>
