<svg width="24" height="24" viewBox="0 0 24 24" fill="none" xmlns="http://www.w3.org/2000/svg">
<g id="n-icon-followup">
<path id="Path" fill-rule="evenodd" clip-rule="evenodd" d="M11.9598 3.08093C12.2177 3.21053 12.3806 3.47543 12.3806 3.7652L12.3791 9.70478L17.2388 9.70489C17.6592 9.70489 18 10.0474 18 10.4699C18 10.5887 17.9725 10.7058 17.9196 10.8121L13.0615 20.5769C12.8735 20.9548 12.4162 21.108 12.0402 20.9191C11.7823 20.7895 11.6194 20.5246 11.6194 20.2348L11.6179 14.295L6.76123 14.2951C6.34081 14.2951 6 13.9526 6 13.5301C6 13.4113 6.02751 13.2942 6.08037 13.1879L10.9385 3.42307C11.1265 3.04516 11.5838 2.89198 11.9598 3.08093Z" fill="black"/>
</g>
</svg>
