<svg width="24" height="24" viewBox="0 0 24 24" fill="none" xmlns="http://www.w3.org/2000/svg">
<g id="n-icon-remove-alt">
<path id="Oval Copy" fill-rule="evenodd" clip-rule="evenodd" d="M12 22C17.5228 22 22 17.5228 22 12C22 6.47715 17.5228 2 12 2C6.47715 2 2 6.47715 2 12C2 17.5228 6.47715 22 12 22Z" fill="black"/>
<path id="Path" fill-rule="evenodd" clip-rule="evenodd" d="M9.52514 8.11092L11.9995 10.5855L14.4749 8.11092C14.6701 7.91566 14.9867 7.91566 15.182 8.11092L15.8891 8.81803C16.0844 9.01329 16.0844 9.32988 15.8891 9.52514L13.4135 11.9995L15.8891 14.4749C16.0844 14.6701 16.0844 14.9867 15.8891 15.182L15.182 15.8891C14.9867 16.0844 14.6701 16.0844 14.4749 15.8891L11.9995 13.4135L9.52514 15.8891C9.32988 16.0844 9.01329 16.0844 8.81803 15.8891L8.11092 15.182C7.91566 14.9867 7.91566 14.6701 8.11092 14.4749L10.5855 11.9995L8.11092 9.52514C7.91566 9.32988 7.91566 9.01329 8.11092 8.81803L8.81803 8.11092C9.01329 7.91566 9.32988 7.91566 9.52514 8.11092Z" fill="white"/>
</g>
</svg>
