<svg width="32" height="32" viewBox="0 0 32 32" fill="none" xmlns="http://www.w3.org/2000/svg">
<g id="n-icon-bi">
<g id="Vector">
<path fill-rule="evenodd" clip-rule="evenodd" d="M20 18.6667C23.6819 18.6667 26.6667 15.6819 26.6667 12C26.6667 8.31811 23.6819 5.33334 20 5.33334C16.3181 5.33334 13.3333 8.31811 13.3333 12C13.3333 15.6819 16.3181 18.6667 20 18.6667Z" fill="black"/>
<path fill-rule="evenodd" clip-rule="evenodd" d="M18 28C19.8409 28 21.3333 26.5076 21.3333 24.6667C21.3333 22.8257 19.8409 21.3333 18 21.3333C16.159 21.3333 14.6667 22.8257 14.6667 24.6667C14.6667 26.5076 16.159 28 18 28Z" fill="black"/>
<path fill-rule="evenodd" clip-rule="evenodd" d="M8.66667 24C11.244 24 13.3333 21.9107 13.3333 19.3333C13.3333 16.756 11.244 14.6667 8.66667 14.6667C6.08934 14.6667 4 16.756 4 19.3333C4 21.9107 6.08934 24 8.66667 24Z" fill="black"/>
</g>
</g>
</svg>
