<svg width="48" height="48" viewBox="0 0 48 48" fill="none" xmlns="http://www.w3.org/2000/svg">
<path d="M6.10986 22C6.03727 22.6567 6 23.324 6 24C6 33.9411 14.0589 42 24 42C33.9411 42 42 33.9411 42 24C42 14.0589 33.9411 6 24 6C22.6252 6 21.2864 6.15412 20 6.44603V8.50407C21.2785 8.17501 22.6188 8 24 8C32.8366 8 40 15.1634 40 24C40 32.8366 32.8366 40 24 40C15.1634 40 8 32.8366 8 24C8 23.3227 8.04209 22.6552 8.12379 22H6.10986Z" fill="black"/>
<path d="M24.643 15C25.0005 15 25.2902 15.3098 25.2903 15.6921L25.2907 17.1504C27.4056 17.5574 28.7427 19.0359 28.7876 21.0699H26.6106C26.5044 19.7921 25.5044 19.0254 24.0442 19.0254C22.6018 19.0254 21.6283 19.7826 21.6283 20.9184C21.6283 21.8271 22.2743 22.3571 23.8407 22.7547L25.3097 23.1143C27.9027 23.7485 29 24.8938 29 26.9288C29 29.1281 27.5999 30.6331 25.2908 31.0398L25.2904 32.3079C25.2902 32.6902 25.0005 33 24.6431 33H23.348C22.9906 33 22.7009 32.6903 22.7007 32.308L22.7001 31.0451C20.4834 30.6571 19.0826 29.216 19 27.0802H21.2124C21.354 28.3391 22.531 29.1626 24.0885 29.1626C25.6283 29.1626 26.6991 28.3486 26.6991 27.2127C26.6991 26.2284 26.0442 25.6605 24.4336 25.2535L22.7788 24.837C20.4248 24.2596 19.3097 23.0481 19.3097 21.0983C19.3097 19.0938 20.6602 17.627 22.6998 17.1799L22.7006 15.6919C22.7008 15.3097 22.9906 15 23.3479 15H24.643Z" fill="black"/>
<path d="M7.35796 7L14 13.642V9L16 9V17H8V15H12.642L6 8.35796L7.35796 7Z" fill="black"/>
</svg>
