<svg width="24" height="24" viewBox="0 0 24 24" fill="none" xmlns="http://www.w3.org/2000/svg">
<path fill-rule="evenodd" clip-rule="evenodd" d="M19.095 3C19.6088 3 20.0389 3.38929 20.09 3.9005L21 13V20C21 20.5128 20.614 20.9355 20.1166 20.9933L20 21H4C3.44772 21 3 20.5523 3 20V13L3.90995 3.9005C3.96107 3.38929 4.39124 3 4.90499 3H19.095ZM9.00049 16.0008L5 16.0003V19H19V16.0003L14.9995 16.0008C14.1473 16.6404 13.1013 17 12 17C10.9905 17 10.0274 16.6979 9.21749 16.1548L9.00049 16.0008ZM5.80998 5H18.19L19 13.0998V14L14.2353 14.0009C13.686 14.6141 12.8881 15 12 15C11.1119 15 10.314 14.6141 9.76468 14.0009L5 14V13.0998L5.80998 5Z" fill="black"/>
</svg>
