<svg width="24" height="24" viewBox="0 0 24 24" fill="none" xmlns="http://www.w3.org/2000/svg">
<g id="n-icon-eye-closed">
<path id="Shape" fill-rule="evenodd" clip-rule="evenodd" d="M4.41195 12C5.38023 10.6429 6.36351 9.57295 7.36317 8.77701L9.29236 10.7066C9.10495 11.0982 9 11.5368 9 12C9 13.6568 10.3431 15 12 15C12.4629 15 12.9013 14.8951 13.2927 14.7079L14.9067 16.3216C13.9532 16.7774 12.9847 17 12 17C9.36188 17 6.83978 15.4027 4.41195 12ZM12 19C13.5224 19 14.9853 18.601 16.3885 17.8031L18.7175 20.1317C18.9128 20.327 19.2294 20.327 19.4246 20.1317L20.1317 19.4246C20.327 19.2293 20.327 18.9128 20.1317 18.7175L5.28249 3.86825C5.08722 3.67299 4.77064 3.67299 4.57538 3.86825L3.86827 4.57536C3.67301 4.77062 3.67301 5.0872 3.86827 5.28246L5.94258 7.357C4.56698 8.49359 3.25279 10.0413 2 12C4.98477 16.6666 8.3181 19 12 19ZM22 12C19.0152 7.33331 15.6819 4.99998 12 4.99998C11.1796 4.99998 10.3764 5.11584 9.59059 5.34756L11.2824 7.03985C11.5206 7.01321 11.7598 6.99998 12 6.99998C14.553 6.99998 16.9974 8.49585 19.3528 11.6763L19.5881 12L19.3528 12.3236C18.9364 12.8859 18.5172 13.3955 18.0952 13.8535L19.5084 15.2672C20.3643 14.3479 21.1948 13.2589 22 12Z" fill="black"/>
</g>
</svg>
