<svg width="24" height="24" viewBox="0 0 24 24" fill="none" xmlns="http://www.w3.org/2000/svg">
<g id="n-icon-emoji-wow">
<g id="Vector">
<path fill-rule="evenodd" clip-rule="evenodd" d="M22 12C22 6.47715 17.5228 2 12 2C6.47715 2 2 6.47715 2 12C2 17.5228 6.47715 22 12 22C17.5228 22 22 17.5228 22 12ZM4 12C4 7.58172 7.58172 4 12 4C16.4183 4 20 7.58172 20 12C20 16.4183 16.4183 20 12 20C7.58172 20 4 16.4183 4 12Z" fill="black"/>
<path fill-rule="evenodd" clip-rule="evenodd" d="M12 18C13.6569 18 15 16.8807 15 15.5C15 14.1193 13.6569 13 12 13C10.3431 13 9 14.1193 9 15.5C9 16.8807 10.3431 18 12 18Z" fill="black"/>
<path fill-rule="evenodd" clip-rule="evenodd" d="M15 8C15.5523 8 16 8.44772 16 9V10C16 10.5523 15.5523 11 15 11C14.4477 11 14 10.5523 14 10V9C14 8.44772 14.4477 8 15 8ZM9 8C9.55228 8 10 8.44772 10 9V10C10 10.5523 9.55228 11 9 11C8.44772 11 8 10.5523 8 10V9C8 8.44772 8.44772 8 9 8Z" fill="black"/>
</g>
</g>
</svg>
