<svg width="24" height="24" viewBox="0 0 24 24" fill="none" xmlns="http://www.w3.org/2000/svg">
<g id="n-icon-high-sound">
<path id="Combined Shape" fill-rule="evenodd" clip-rule="evenodd" d="M12 4.06189V19.9381C9.4636 19.6218 7.2959 18.1182 6.07077 16.0009L5 16C3.89543 16 3 15.1046 3 14V10C3 8.89543 3.89543 8 5 8L6.07019 8.00012C7.29522 5.88232 9.4632 4.37821 12 4.06189ZM14 19.9381C17.9463 19.446 21 16.0796 21 12C21 7.92039 17.9463 4.554 14 4.0619V6.08296C16.8377 6.55904 19 9.02701 19 12C19 14.973 16.8377 17.441 14 17.917V19.9381ZM17 12C17 13.8638 15.7252 15.4299 14 15.874V13.7324C14.5978 13.3866 15 12.7403 15 12C15 11.2597 14.5978 10.6134 14 10.2676V8.12602C15.7252 8.57006 17 10.1362 17 12Z" fill="black"/>
</g>
</svg>
