<svg width="24" height="24" viewBox="0 0 24 24" fill="none" xmlns="http://www.w3.org/2000/svg">
<g id="n-icon-rotate-opportunnity">
<g id="n-icon-automate-cycle">
<path id="Shape" fill-rule="evenodd" clip-rule="evenodd" d="M19 4.85857C17.1963 3.09032 14.7255 2 12 2C6.47715 2 2 6.47715 2 12C2 12.3379 2.01676 12.6718 2.04948 13.0011L4.06201 13.001C4.02108 12.6731 4 12.339 4 12C4 7.58172 7.58172 4 12 4C14.0287 4 15.881 4.75511 17.2912 5.9996L16.5 6C16.2239 6 16 6.22386 16 6.5V7.5C16 7.77614 16.2239 8 16.5 8H20.5L20.5899 7.99194C20.8231 7.94961 21 7.74546 21 7.5V3.5C21 3.22386 20.7761 3 20.5 3H19.5C19.2239 3 19 3.22386 19 3.5L19 4.85857ZM22 12C22 11.6625 21.9833 11.3288 21.9506 10.9999L19.9381 11C19.979 11.3276 20 11.6614 20 12C20 16.4183 16.4183 20 12 20C9.9718 20 8.11989 19.2452 6.7098 18.0013L7.5 18C7.77614 18 8 17.7761 8 17.5V16.5C8 16.2239 7.77614 16 7.5 16H3.5C3.22386 16 3 16.2239 3 16.5V20.5C3 20.7761 3.22386 21 3.5 21H4.5C4.77614 21 5 20.7761 5 20.5L4.99975 19.1412C6.80352 20.9096 9.27442 22 12 22C17.5228 22 22 17.5228 22 12Z" fill="black"/>
<path id="Vector" d="M12.4501 6.15002C12.6986 6.15002 12.9 6.35142 12.9001 6.59989L12.9004 7.54777C14.3707 7.81235 15.3002 8.77334 15.3315 10.0954H13.818C13.7442 9.26487 13.0489 8.76653 12.0338 8.76653C11.031 8.76653 10.3542 9.25872 10.3542 9.997C10.3542 10.5876 10.8033 10.9322 11.8923 11.1906L12.9136 11.4243C14.7162 11.8365 15.4791 12.581 15.4791 13.9037C15.4791 15.3333 14.5058 16.3115 12.9004 16.5759L12.9001 17.4002C12.9 17.6487 12.6986 17.85 12.4501 17.85H11.5497C11.3013 17.85 11.0999 17.6487 11.0997 17.4003L11.0993 16.5794C9.55827 16.3271 8.58439 15.3905 8.52698 14.0022H10.0651C10.1635 14.8204 10.9818 15.3557 12.0646 15.3557C13.1351 15.3557 13.8795 14.8266 13.8795 14.0883C13.8795 13.4485 13.4242 13.0793 12.3045 12.8148L11.154 12.5441C9.5175 12.1688 8.74231 11.3813 8.74231 10.1139C8.74231 8.811 9.68117 7.85755 11.0992 7.56699L11.0997 6.59977C11.0999 6.35134 11.3013 6.15002 11.5497 6.15002H12.4501Z" fill="black"/>
</g>
</g>
</svg>
