<svg width="24" height="24" viewBox="0 0 24 24" fill="none" xmlns="http://www.w3.org/2000/svg">
<g id="n-icon-product-add">
<path id="cart-plus" fill-rule="evenodd" clip-rule="evenodd" d="M6.33852 2C6.51376 2 6.67387 2.09145 6.76386 2.23712L6.80275 2.3143L7.477 4H8.103L8.2041 3.90101C9.45688 2.72225 11.1441 2 13 2C14.9067 2 16.6354 2.76233 17.8978 3.99883L20.328 4C20.6041 4 20.828 4.22386 20.828 4.5C20.828 4.54866 20.8209 4.59706 20.8069 4.64367L18.1069 13.6437C18.0514 13.8287 17.8954 13.9627 17.7094 13.9934L17.628 14H9C8.44772 14 8 14.4477 8 15C8 15.5128 8.38604 15.9355 8.88338 15.9933L9 16H18.5C18.7455 16 18.9496 16.1769 18.9919 16.4101L19 16.5V17.5C19 17.7455 18.8231 17.9496 18.5899 17.9919L18.5 18H9C7.34315 18 6 16.6569 6 15C6 13.8824 6.61115 12.9075 7.51749 12.3913L5 4H3.5C3.25454 4 3.05039 3.82312 3.00806 3.58988L3 3.5V2.5C3 2.25454 3.17688 2.05039 3.41012 2.00806L3.5 2H6.33852ZM10 20.5C10 19.6716 9.32843 19 8.5 19C7.67157 19 7 19.6716 7 20.5C7 21.3284 7.67157 22 8.5 22C9.32843 22 10 21.3284 10 20.5ZM20 20.5C20 19.6716 19.3284 19 18.5 19C17.6716 19 17 19.6716 17 20.5C17 21.3284 17.6716 22 18.5 22C19.3284 22 20 21.3284 20 20.5ZM12.0081 5.41012C12.0504 5.17688 12.2545 5 12.5 5H13.5L13.5899 5.00806C13.8231 5.05039 14 5.25454 14 5.5V7H15.5L15.5899 7.00806C15.8231 7.05039 16 7.25454 16 7.5V8.5L15.9919 8.58988C15.9496 8.82312 15.7455 9 15.5 9H14V10.5L13.9919 10.5899C13.9496 10.8231 13.7455 11 13.5 11H12.5L12.4101 10.9919C12.1769 10.9496 12 10.7455 12 10.5V9H10.5L10.4101 8.99194C10.1769 8.94961 10 8.74546 10 8.5V7.5L10.0081 7.41012C10.0504 7.17688 10.2545 7 10.5 7H12V5.5L12.0081 5.41012Z" fill="black"/>
</g>
</svg>
