<svg width="24" height="24" viewBox="0 0 24 24" fill="none" xmlns="http://www.w3.org/2000/svg">
<g id="n-icon-phone-dial">
<g id="Combined Shape">
<path d="M14.5 6C15.3284 6 16 5.32843 16 4.5C16 3.67157 15.3284 3 14.5 3C13.6716 3 13 3.67157 13 4.5C13 5.32843 13.6716 6 14.5 6Z" fill="black"/>
<path d="M19.065 15.6922C17.9033 15.6922 16.7794 15.5033 15.7311 15.1633C15.4006 15.05 15.0322 15.135 14.7772 15.39L13.2944 17.2506C10.6217 15.9756 8.11889 13.5672 6.78722 10.8L8.62889 9.23222C8.88389 8.96778 8.95944 8.59944 8.85556 8.26889C8.50611 7.22056 8.32667 6.09667 8.32667 4.935C8.32667 4.425 7.90167 4 7.39167 4H4.12389C3.61389 4 3 4.22667 3 4.935C3 13.7089 10.3006 21 19.065 21C19.7356 21 20 20.405 20 19.8856V16.6272C20 16.1172 19.575 15.6922 19.065 15.6922Z" fill="black"/>
<path d="M21 4.5C21 5.32843 20.3284 6 19.5 6C18.6716 6 18 5.32843 18 4.5C18 3.67157 18.6716 3 19.5 3C20.3284 3 21 3.67157 21 4.5Z" fill="black"/>
<path d="M14.5 11C15.3284 11 16 10.3284 16 9.5C16 8.67157 15.3284 8 14.5 8C13.6716 8 13 8.67157 13 9.5C13 10.3284 13.6716 11 14.5 11Z" fill="black"/>
<path d="M21 9.5C21 10.3284 20.3284 11 19.5 11C18.6716 11 18 10.3284 18 9.5C18 8.67157 18.6716 8 19.5 8C20.3284 8 21 8.67157 21 9.5Z" fill="black"/>
</g>
</g>
</svg>
