<svg width="24" height="24" viewBox="0 0 24 24" fill="none" xmlns="http://www.w3.org/2000/svg">
<g id="n-icon-overprice">
<g id="n-icon">
<g id="Vector">
<path d="M13 2C15.3869 2 17.6761 2.94821 19.364 4.63604C21.0518 6.32387 22 8.61305 22 11C22 15.9706 17.9706 20 13 20C12.3126 20 11.6432 19.9229 11 19.777V17.9186C11.635 18.1018 12.306 18.2 13 18.2C16.9764 18.2 20.2 14.9764 20.2 11C20.2 9.09044 19.4414 7.25909 18.0912 5.90883C16.7409 4.55857 14.9096 3.8 13 3.8C9.02355 3.8 5.8 7.02355 5.8 11H4C4 6.02944 8.02944 2 13 2Z" fill="black"/>
<path d="M13.4501 5.14999C13.6986 5.14999 13.9001 5.35139 13.9001 5.59986L13.9004 6.54774C15.3707 6.81232 16.3003 7.77331 16.3315 9.0954H14.818C14.7442 8.26484 14.049 7.7665 13.0338 7.7665C12.031 7.7665 11.3543 8.25869 11.3543 8.99697C11.3543 9.58759 11.8034 9.93212 12.8923 10.1905L13.9136 10.4243C15.7163 10.8365 16.4792 11.581 16.4792 12.9037C16.4792 14.3333 15.5058 15.3115 13.9005 15.5758L13.9002 16.4002C13.9001 16.6486 13.6986 16.85 13.4502 16.85H12.5498C12.3013 16.85 12.0999 16.6487 12.0998 16.4002L12.0994 15.5793C10.5583 15.3271 9.58442 14.3904 9.52701 13.0021H11.0651C11.1635 13.8204 11.9818 14.3557 13.0646 14.3557C14.1351 14.3557 14.8795 13.8266 14.8795 13.0883C14.8795 12.4484 14.4243 12.0793 13.3045 11.8147L12.1541 11.544C10.5175 11.1687 9.74234 10.3812 9.74234 9.11386C9.74234 7.81097 10.6812 6.85752 12.0992 6.56696L12.0997 5.59974C12.0999 5.35131 12.3013 5.14999 12.5497 5.14999H13.4501Z" fill="black"/>
<path d="M4 20.5C4 20.7761 4.22386 21 4.5 21H5.5C5.77614 21 6 20.7761 6 20.5V18H8.5C8.77614 18 9 17.7761 9 17.5V16.5C9 16.2239 8.77614 16 8.5 16H6V13.5C6 13.2239 5.77614 13 5.5 13H4.5C4.22386 13 4 13.2239 4 13.5V16H1.5C1.22386 16 1 16.2239 1 16.5V17.5C1 17.7761 1.22386 18 1.5 18H4V20.5Z" fill="black"/>
</g>
</g>
</g>
</svg>
