<svg width="24" height="24" viewBox="0 0 24 24" fill="none" xmlns="http://www.w3.org/2000/svg">
<g id="n-icon-half-star">
<path id="Shape" fill-rule="evenodd" clip-rule="evenodd" d="M12.8967 3.817C12.7994 3.61978 12.6398 3.46016 12.4426 3.36283C11.9473 3.1184 11.3477 3.32174 11.1033 3.817L9.06108 7.95493L4.4946 8.61847C4.27696 8.6501 4.07582 8.75258 3.92231 8.91007C3.53681 9.30555 3.5449 9.93866 3.94039 10.3242L7.24472 13.5451L6.46467 18.0931C6.4275 18.3099 6.46281 18.5328 6.56515 18.7275C6.82215 19.2164 7.42678 19.4043 7.91562 19.1473L12 17L16.0844 19.1473C16.279 19.2496 16.502 19.2849 16.7188 19.2478C17.2631 19.1544 17.6287 18.6375 17.5353 18.0931L16.7553 13.5451L20.0596 10.3242C20.2171 10.1707 20.3196 9.96952 20.3512 9.75188C20.4306 9.20533 20.0519 8.69789 19.5054 8.61847L14.9389 7.95493L12.8967 3.817ZM10.3892 9.78294L12 6.51911L13.6108 9.78294L17.2126 10.3063L14.6063 12.8469L15.2216 16.4341L12 14.7405L8.77841 16.4341L9.39368 12.8469L6.78736 10.3063L10.3892 9.78294Z" fill="black"/>
<path id="Path" fill-rule="evenodd" clip-rule="evenodd" d="M12.0002 3.25934L12 17L7.91562 19.1473C7.42678 19.4043 6.82215 19.2164 6.56515 18.7275C6.46281 18.5328 6.4275 18.3099 6.46467 18.0931L7.24472 13.5451L3.94039 10.3242C3.5449 9.93866 3.53681 9.30555 3.92231 8.91007C4.07582 8.75258 4.27696 8.6501 4.4946 8.61847L9.06108 7.95492L11.1033 3.817C11.2774 3.46421 11.6317 3.25954 12.0002 3.25934Z" fill="black"/>
</g>
</svg>
