<svg width="24" height="24" viewBox="0 0 24 24" fill="none" xmlns="http://www.w3.org/2000/svg">
<g id="n-icon-apps-alt">
<g id="icon-modulos-nectar">
<g id="Vector">
<path fill-rule="evenodd" clip-rule="evenodd" d="M21.6292 12.3274L18 14.4227C17.3812 14.7799 16.6188 14.7799 16 14.4227L12.3708 12.3274C11.752 11.9701 11.3708 11.3098 11.3708 10.5953V6.40472C11.3708 5.69019 11.752 5.02993 12.3708 4.67267L16 2.57737C16.6188 2.2201 17.3812 2.2201 18 2.57737L21.6292 4.67267C22.248 5.02993 22.6292 5.69019 22.6292 6.40472V10.5953C22.6292 11.3098 22.248 11.9701 21.6292 12.3274ZM13.3708 6.40472V10.5953L17 12.6906L20.6292 10.5953V6.40472L17 4.30942L13.3708 6.40472Z" fill="black"/>
<path fill-rule="evenodd" clip-rule="evenodd" d="M9.5 21.7113C9.8094 21.89 10.1906 21.89 10.5 21.7113L13.3971 20.0387C13.7065 19.8601 13.8971 19.5299 13.8971 19.1727V15.8274C13.8971 15.4701 13.7065 15.14 13.3971 14.9613L10.5 13.2887C10.1906 13.1101 9.8094 13.1101 9.5 13.2887L6.60289 14.9613C6.29349 15.14 6.10289 15.4701 6.10289 15.8274V19.1727C6.10289 19.5299 6.29349 19.8601 6.60289 20.0387L9.5 21.7113Z" fill="black"/>
<path fill-rule="evenodd" clip-rule="evenodd" d="M5.25 12.7113C5.5594 12.89 5.9406 12.89 6.25 12.7113L8.93061 11.1637C9.24001 10.9851 9.43061 10.6549 9.43061 10.2977V7.20237C9.43061 6.8451 9.24001 6.51497 8.93061 6.33634L6.25 4.78869C5.9406 4.61006 5.5594 4.61006 5.25 4.78869L2.56939 6.33634C2.25999 6.51498 2.06939 6.8451 2.06939 7.20237V10.2977C2.06939 10.6549 2.25999 10.9851 2.56939 11.1637L5.25 12.7113Z" fill="black"/>
</g>
</g>
</g>
</svg>
