<svg width="24" height="24" viewBox="0 0 24 24" fill="none" xmlns="http://www.w3.org/2000/svg">
<g id="n-icon-levels">
<path id="Shape" fill-rule="evenodd" clip-rule="evenodd" d="M16 2C19.3137 2 22 4.68629 22 8V16C22 19.3137 19.3137 22 16 22H8C4.68629 22 2 19.3137 2 16V8C2 4.68629 4.68629 2 8 2H16ZM16 4H8C5.79086 4 4 5.79086 4 8V16C4 18.2091 5.79086 20 8 20H16C18.2091 20 20 18.2091 20 16V8C20 5.79086 18.2091 4 16 4ZM9 12.5C9 12.2239 8.77614 12 8.5 12H7.5C7.22386 12 7 12.2239 7 12.5V16C7 16.5523 7.44772 17 8 17H8.5C8.77614 17 9 16.7761 9 16.5V12.5ZM12.5 9C12.7761 9 13 9.22386 13 9.5V16.5C13 16.7761 12.7761 17 12.5 17H11.5C11.2239 17 11 16.7761 11 16.5V9.5C11 9.22386 11.2239 9 11.5 9H12.5ZM17 7.5C17 7.22386 16.7761 7 16.5 7H15.5C15.2239 7 15 7.22386 15 7.5V16.5C15 16.7761 15.2239 17 15.5 17H16C16.5523 17 17 16.5523 17 16V7.5Z" fill="black"/>
</g>
</svg>
