<svg width="24" height="24" viewBox="0 0 24 24" fill="none" xmlns="http://www.w3.org/2000/svg">
<g id="n-icon-redo">
<g id="n-icon-re-do copy">
<path id="Combined Shape" fill-rule="evenodd" clip-rule="evenodd" d="M3 12C3 7.02944 7.02944 3 12 3C14.8273 3 17.35 4.30367 19 6.34267V4.5C19 4.22386 19.2239 4 19.5 4H20.5C20.7761 4 21 4.22386 21 4.5V8.5V9.5C21 9.77614 20.7761 10 20.5 10H19.5H15.5C15.2239 10 15 9.77614 15 9.5V8.5C15 8.22386 15.2239 8 15.5 8H17.7453C16.4804 6.18652 14.3787 5 12 5C8.13401 5 5 8.13401 5 12C5 15.866 8.13401 19 12 19C15.171 19 17.8496 16.8915 18.7101 14H20.777C19.8675 18.008 16.2832 21 12 21C7.02944 21 3 16.9706 3 12Z" fill="black"/>
</g>
</g>
</svg>
