<svg width="24" height="24" viewBox="0 0 24 24" fill="none" xmlns="http://www.w3.org/2000/svg">
<g id="n-icon-call-menu">
<g id="Vector">
<path d="M19.065 15.6922C17.9033 15.6922 16.7794 15.5033 15.7311 15.1633C15.4006 15.05 15.0322 15.135 14.7772 15.39L13.2944 17.2506C10.6217 15.9756 8.11889 13.5672 6.78722 10.8L8.62889 9.23222C8.88389 8.96778 8.95944 8.59944 8.85556 8.26889C8.50611 7.22056 8.32667 6.09667 8.32667 4.935C8.32667 4.425 7.90167 4 7.39167 4H4.12389C3.61389 4 3 4.22667 3 4.935C3 13.7089 10.3006 21 19.065 21C19.7356 21 20 20.405 20 19.8856V16.6272C20 16.1172 19.575 15.6922 19.065 15.6922Z" fill="black"/>
<path fill-rule="evenodd" clip-rule="evenodd" d="M15.5 11C16.8807 11 18 9.88071 18 8.5C18 7.11929 16.8807 6 15.5 6C14.1193 6 13 7.11929 13 8.5C13 9.88071 14.1193 11 15.5 11Z" fill="black"/>
</g>
</g>
</svg>
