<svg width="24" height="24" viewBox="0 0 24 24" fill="none" xmlns="http://www.w3.org/2000/svg">
<g id="n-icon-call-options">
<g id="Vector">
<path fill-rule="evenodd" clip-rule="evenodd" d="M18 21C19.1046 21 20 20.1046 20 19C20 17.8954 19.1046 17 18 17C16.8954 17 16 17.8954 16 19C16 20.1046 16.8954 21 18 21Z" fill="black"/>
<path fill-rule="evenodd" clip-rule="evenodd" d="M18 14C19.1046 14 20 13.1046 20 12C20 10.8954 19.1046 9.99998 18 9.99998C16.8954 9.99998 16 10.8954 16 12C16 13.1046 16.8954 14 18 14Z" fill="black"/>
<path fill-rule="evenodd" clip-rule="evenodd" d="M18 6.99998C19.1046 6.99998 20 6.10455 20 4.99998C20 3.89541 19.1046 2.99998 18 2.99998C16.8954 2.99998 16 3.89541 16 4.99998C16 6.10455 16.8954 6.99998 18 6.99998Z" fill="black"/>
<path d="M11.9101 19.159C11.137 18.3859 10.5148 17.5123 10.0434 16.5883C9.89881 16.2929 9.59711 16.1043 9.2577 16.1043L7.03267 16.3558C6.10243 13.7285 6.03958 10.4601 6.99496 7.7322L9.26399 7.91448C9.60968 7.90819 9.9051 7.71334 10.0559 7.42421C10.5211 6.49398 11.1496 5.62659 11.9227 4.85349C12.2621 4.51408 12.2621 3.94839 11.9227 3.60898L9.74796 1.43423C9.40855 1.09482 8.84915 0.837122 8.37775 1.30853C2.53862 7.14766 2.5449 16.8586 8.37775 22.6914C8.82401 23.1377 9.39598 22.9177 9.74168 22.572L11.9101 20.4036C12.2495 20.0641 12.2495 19.4985 11.9101 19.159Z" fill="black"/>
</g>
</g>
</svg>
