<svg width="24" height="24" viewBox="0 0 24 24" fill="none" xmlns="http://www.w3.org/2000/svg">
<g id="n-icon-mail-forward">
<path id="Shape" fill-rule="evenodd" clip-rule="evenodd" d="M20 3C21.1046 3 22 3.89543 22 5V15L20 13V6.868L12 12.2019L4 6.869V17H17.585L16.1464 15.5607C15.9512 15.3654 15.9512 15.0488 16.1464 14.8536L16.8536 14.1464C17.0488 13.9512 17.3654 13.9512 17.5607 14.1464L21.0962 17.682C21.2915 17.8772 21.2915 18.1938 21.0962 18.3891L17.5607 21.9246C17.3654 22.1199 17.0488 22.1199 16.8536 21.9246L16.1464 21.2175C15.9512 21.0223 15.9512 20.7057 16.1464 20.5104L17.654 19H4C2.89543 19 2 18.1046 2 17V5C2 3.89543 2.89543 3 4 3H20ZM19.196 5H4.803L12 9.79815L19.196 5Z" fill="black"/>
</g>
</svg>
