<svg width="24" height="24" viewBox="0 0 24 24" fill="none" xmlns="http://www.w3.org/2000/svg">
<g id="n-icon-contact-avatar">
<path id="Shape" fill-rule="evenodd" clip-rule="evenodd" d="M12 2C17.5228 2 22 6.47715 22 12C22 17.5228 17.5228 22 12 22C6.47715 22 2 17.5228 2 12C2 6.47715 6.47715 2 12 2ZM12 17C9.93274 17 8.28886 17.4928 7.10387 18.3262C8.45757 19.3761 10.1559 20 12 20C13.8441 20 15.5424 19.3761 16.8955 18.3278C15.7119 17.493 14.0677 17 12 17ZM4 12C4 7.58172 7.58172 4 12 4C16.4183 4 20 7.58172 20 12C20 13.8491 19.3726 15.5517 18.3187 16.9058C16.8463 15.7596 14.7622 15 12 15C9.23776 15 7.15374 15.7596 5.68084 16.9065C4.62736 15.5517 4 13.8491 4 12ZM12 6C14.2091 6 16 7.79086 16 10C16 12.2091 14.2091 14 12 14C9.79086 14 8 12.2091 8 10C8 7.79086 9.79086 6 12 6ZM10 10C10 8.89543 10.8954 8 12 8C13.1046 8 14 8.89543 14 10C14 11.1046 13.1046 12 12 12C10.8954 12 10 11.1046 10 10Z" fill="black"/>
</g>
</svg>
