<svg width="24" height="24" viewBox="0 0 24 24" fill="none" xmlns="http://www.w3.org/2000/svg">
<g id="n-icon-arrow-up-alt">
<path id="Combined Shape" d="M6.69668 9.35335C6.50142 9.15809 6.50142 8.84151 6.69668 8.64624L11.6464 3.6965C11.8417 3.50123 12.1583 3.50123 12.3535 3.6965L17.3033 8.64624C17.4985 8.84151 17.4985 9.15809 17.3033 9.35335L16.5962 10.0605C16.4009 10.2557 16.0843 10.2557 15.8891 10.0605L13 7.17136V19.4991C13 19.7753 12.7761 19.9991 12.5 19.9991H11.5C11.2238 19.9991 11 19.7753 11 19.4991V7.17138L8.11089 10.0605C7.91563 10.2557 7.59905 10.2557 7.40379 10.0605L6.69668 9.35335Z" fill="black"/>
</g>
</svg>
