<svg width="24" height="24" viewBox="0 0 24 24" fill="none" xmlns="http://www.w3.org/2000/svg">
<path fill-rule="evenodd" clip-rule="evenodd" d="M4 1H16L21 6V23H4V1Z" fill="url(#paint0_linear)"/>
<path d="M7 10H15C15.5523 10 16 10.4477 16 11V11C16 11.5523 15.5523 12 15 12H7V10Z" fill="#2979FF"/>
<path opacity="0.6" d="M7 14H17C17.5523 14 18 14.4477 18 15V15C18 15.5523 17.5523 16 17 16H7V14Z" fill="#2979FF"/>
<path opacity="0.6" d="M7 18H11C11.5523 18 12 18.4477 12 19V19C12 19.5523 11.5523 20 11 20H7V18Z" fill="#2979FF"/>
<path fill-rule="evenodd" clip-rule="evenodd" d="M16 1L21 6H16V1ZM8 3V5H6V3H8Z" fill="#2979FF"/>
<defs>
<linearGradient id="paint0_linear" x1="4" y1="1" x2="4" y2="23" gradientUnits="userSpaceOnUse">
<stop stop-color="white"/>
<stop offset="1" stop-color="#E5E5E5"/>
</linearGradient>
</defs>
</svg>
