<svg width="24" height="24" viewBox="0 0 24 24" fill="none" xmlns="http://www.w3.org/2000/svg">
<g id="n-icon-form-alt">
<g id="Vector">
<path fill-rule="evenodd" clip-rule="evenodd" d="M15.54 8.78906H13.4746C13.5449 6.72363 14.9775 5.21191 17.5879 5.21191C19.9961 5.21191 21.6045 6.60059 21.6045 8.53418C21.6045 9.87891 20.9365 10.8193 19.7412 11.5312C18.5898 12.1992 18.2646 12.6562 18.2646 13.5352V14.0449H16.2256L16.2168 13.4209C16.1377 12.1201 16.6475 11.3291 17.8604 10.6172L18.0453 10.5027C18.9923 9.9008 19.3193 9.43222 19.3193 8.61328C19.3193 7.68164 18.5811 7.00488 17.4736 7.00488C16.3398 7.00488 15.6104 7.69922 15.54 8.78906ZM15.9883 16.9277C15.9883 17.6221 16.5596 18.1758 17.2715 18.1758C17.9834 18.1758 18.5459 17.6221 18.5459 16.9277C18.5459 16.2334 17.9834 15.6885 17.2715 15.6885C16.5596 15.6885 15.9883 16.2334 15.9883 16.9277Z" fill="black"/>
<path d="M2 6.5C2 6.22386 2.22386 6 2.5 6H10.5C10.7761 6 11 6.22386 11 6.5V7.5C11 7.77614 10.7761 8 10.5 8H2.5C2.22386 8 2 7.77614 2 7.5V6.5Z" fill="black"/>
<path d="M2 11.5C2 11.2239 2.22386 11 2.5 11H10.5C10.7761 11 11 11.2239 11 11.5V12.5C11 12.7761 10.7761 13 10.5 13H2.5C2.22386 13 2 12.7761 2 12.5V11.5Z" fill="black"/>
<path d="M2 16.5C2 16.2239 2.22386 16 2.5 16H8.5C8.77614 16 9 16.2239 9 16.5V17.5C9 17.7761 8.77614 18 8.5 18H2.5C2.22386 18 2 17.7761 2 17.5V16.5Z" fill="black"/>
</g>
</g>
</svg>
