<svg width="24" height="24" viewBox="0 0 24 24" fill="none" xmlns="http://www.w3.org/2000/svg">
<g id="n-icon-chat">
<path id="Shape" fill-rule="evenodd" clip-rule="evenodd" d="M19 1C20.6569 1 22 2.34315 22 4V11C22 12.6569 20.6569 14 19 14H18V17C18 18.6569 16.6569 20 15 20H6L2 23V8C2 6.34315 3.34315 5 5 5H7V4C7 2.34315 8.34315 1 10 1H19ZM5 7C4.44772 7 4 7.44772 4 8V19L5.33333 18H15C15.5523 18 16 17.5523 16 17V8C16 7.44772 15.5523 7 15 7H5ZM9 15V13H6V15H9ZM19 3H10C9.44772 3 9 3.44772 9 4V5H15C16.6569 5 18 6.34315 18 8V12H19C19.5523 12 20 11.5523 20 11V4C20 3.44772 19.5523 3 19 3ZM14 11V9H6V11H14Z" fill="black"/>
</g>
</svg>
