<svg width="24" height="24" viewBox="0 0 24 24" fill="none" xmlns="http://www.w3.org/2000/svg">
<g id="n-icon-tag-45-alt">
<path id="Shape" fill-rule="evenodd" clip-rule="evenodd" d="M11.2162 4.29858L2.80761 12.7071L11.2929 21.1924L19.7015 12.7839L18.1105 5.88957L11.2162 4.29858ZM11.6659 2.34947L18.5602 3.94046C19.3054 4.11243 19.8873 4.69432 20.0592 5.43953L21.6502 12.3338C21.8053 13.0057 21.6033 13.7101 21.1157 14.1978L12.7071 22.6063C11.926 23.3874 10.6597 23.3874 9.87867 22.6063L1.39339 14.121C0.61234 13.34 0.61234 12.0737 1.39339 11.2926L9.80195 2.88404C10.2896 2.39644 10.994 2.19442 11.6659 2.34947ZM13.4142 7.75707C14.1953 6.97602 15.4616 6.97602 16.2426 7.75707C17.0237 8.53812 17.0237 9.80445 16.2426 10.5855C15.4616 11.3665 14.1953 11.3665 13.4142 10.5855C12.6332 9.80445 12.6332 8.53812 13.4142 7.75707Z" fill="black"/>
</g>
</svg>
