<svg width="24" height="24" viewBox="0 0 24 24" fill="none" xmlns="http://www.w3.org/2000/svg">
<g id="n-icon-call-done">
<g id="Vector">
<path d="M19.0479 5.65367C18.8526 5.4584 18.536 5.4584 18.3407 5.65367L14.8445 9.14992L13.5481 7.85355C13.3529 7.65829 13.0363 7.65829 12.841 7.85355L12.4482 8.24639C12.2529 8.44165 12.2529 8.75824 12.4482 8.9535L14.4909 10.9963C14.6862 11.1915 15.0028 11.1915 15.1981 10.9963L19.4407 6.75361C19.636 6.55835 19.636 6.24177 19.4407 6.0465L19.0479 5.65367Z" fill="black"/>
<path d="M18.175 15.3167C17.15 15.3167 16.1583 15.15 15.2333 14.85C14.9417 14.75 14.6167 14.825 14.3917 15.05L13.0833 16.6917C10.725 15.5667 8.51667 13.4417 7.34167 11L8.96667 9.61667C9.19167 9.38333 9.25833 9.05833 9.16667 8.76667C8.85833 7.84167 8.7 6.85 8.7 5.825C8.7 5.375 8.325 5 7.875 5H4.99167C4.54167 5 4 5.2 4 5.825C4 13.5667 10.4417 20 18.175 20C18.7667 20 19 19.475 19 19.0167V16.1417C19 15.6917 18.625 15.3167 18.175 15.3167Z" fill="black"/>
</g>
</g>
</svg>
