<svg width="24" height="24" viewBox="0 0 24 24" fill="none" xmlns="http://www.w3.org/2000/svg">
<g id="n-icon-unlink">
<g id="Vector">
<path d="M14.182 19.0108C14.3772 19.2061 14.3772 19.5227 14.182 19.7179L13.8284 20.0715C11.0947 22.8052 6.66259 22.8052 3.92891 20.0715C1.19524 17.3378 1.19524 12.9057 3.92891 10.172L4.28247 9.81844C4.47773 9.62318 4.79431 9.62318 4.98957 9.81844L5.69668 10.5255C5.89194 10.7208 5.89194 11.0374 5.69668 11.2327L5.34313 11.5862C3.39051 13.5388 3.39051 16.7047 5.34313 18.6573C7.29575 20.6099 10.4616 20.6099 12.4142 18.6573L12.7677 18.3037C12.963 18.1085 13.2796 18.1085 13.4749 18.3037L14.182 19.0108Z" fill="black"/>
<path d="M20.071 3.9283C22.8047 6.66197 22.8047 11.0941 20.071 13.8278L19.7175 14.1814C19.5222 14.3766 19.2056 14.3766 19.0104 14.1814L18.3033 13.4742C18.108 13.279 18.108 12.9624 18.3033 12.7671L18.6568 12.4136C20.6095 10.461 20.6095 7.29514 18.6568 5.34252C16.7042 3.3899 13.5384 3.3899 11.5858 5.34252L11.2322 5.69607C11.0369 5.89133 10.7204 5.89133 10.5251 5.69607L9.818 4.98896C9.62273 4.7937 9.62273 4.47712 9.818 4.28186L10.1715 3.9283C12.9052 1.19463 17.3374 1.19463 20.071 3.9283Z" fill="black"/>
<path d="M17.4805 18.5606C17.7506 18.5032 18.0161 18.6756 18.0735 18.9457L18.4893 20.902C18.5468 21.1721 18.3743 21.4376 18.1042 21.495L17.1261 21.7029C16.856 21.7604 16.5905 21.5879 16.5331 21.3178L16.1172 19.3615C16.0598 19.0914 16.2322 18.8259 16.5023 18.7685L17.4805 18.5606Z" fill="black"/>
<path d="M6.60195 5.44661C6.33522 5.51808 6.06105 5.35979 5.98958 5.09306L5.47194 3.16121C5.40047 2.89447 5.55876 2.6203 5.8255 2.54883L6.79142 2.29001C7.05816 2.21854 7.33232 2.37684 7.4038 2.64357L7.92143 4.57542C7.9929 4.84215 7.83461 5.11632 7.56788 5.18779L6.60195 5.44661Z" fill="black"/>
<path d="M18.7685 16.5024C18.8259 16.2323 19.0914 16.0599 19.3615 16.1173L21.3178 16.5331C21.5879 16.5905 21.7603 16.856 21.7029 17.1261L21.495 18.1043C21.4376 18.3744 21.1721 18.5468 20.902 18.4894L18.9457 18.0736C18.6756 18.0162 18.5031 17.7507 18.5605 17.4805L18.7685 16.5024Z" fill="black"/>
<path d="M5.18774 7.56793C5.11627 7.83467 4.8421 7.99296 4.57537 7.92149L2.64352 7.40385C2.37678 7.33238 2.21849 7.05821 2.28996 6.79147L2.54878 5.82555C2.62025 5.55882 2.89442 5.40052 3.16115 5.472L5.09301 5.98963C5.35974 6.0611 5.51803 6.33527 5.44656 6.60201L5.18774 7.56793Z" fill="black"/>
</g>
</g>
</svg>
