<svg width="24" height="24" viewBox="0 0 24 24" fill="none" xmlns="http://www.w3.org/2000/svg">
<g id="n-icon-product-top">
<path id="Shape" fill-rule="evenodd" clip-rule="evenodd" d="M9.61806 2L10.6181 4H20.3596C21.1881 4 21.8596 4.67157 21.8596 5.5C21.8596 5.58176 21.8529 5.66332 21.8397 5.74386L21.8148 5.8638L19.7808 14H11C10.4477 14 10 14.4477 10 15C10 15.5128 10.3861 15.9355 10.8834 15.9933L11 16H19.5C19.7455 16 19.9496 16.1769 19.992 16.4101L20 16.5V17.5C20 17.7455 19.8231 17.9496 19.5899 17.9919L19.5 18H11C9.34317 18 8.00002 16.6569 8.00002 15C8.00002 13.4023 9.24894 12.0963 10.8237 12.0051L11 12H18.2192L19.7192 6H9.38199L8.38199 4H6.50002C6.25456 4 6.05041 3.82312 6.00808 3.58988L6.00002 3.5V2.5C6.00002 2.25454 6.1769 2.05039 6.41015 2.00806L6.50002 2H9.61806ZM11 20.5C11 19.6716 10.3284 19 9.50002 19C8.6716 19 8.00002 19.6716 8.00002 20.5C8.00002 21.3284 8.6716 22 9.50002 22C10.3284 22 11 21.3284 11 20.5ZM20 20.5C20 19.6716 19.3284 19 18.5 19C17.6716 19 17 19.6716 17 20.5C17 21.3284 17.6716 22 18.5 22C19.3284 22 20 21.3284 20 20.5ZM5.42877 6.71458C5.38654 6.6442 5.32765 6.5853 5.25727 6.54308C5.02048 6.401 4.71335 6.47779 4.57128 6.71458L2.45437 10.2428C2.40775 10.3205 2.38312 10.4094 2.38312 10.5C2.38312 10.7761 2.60698 11 2.88312 11H7.11693C7.20755 11 7.29647 10.9754 7.37418 10.9287C7.61097 10.7867 7.68775 10.4795 7.54567 10.2428L5.42877 6.71458Z" fill="black"/>
</g>
</svg>
