<svg width="24" height="24" viewBox="0 0 24 24" fill="none" xmlns="http://www.w3.org/2000/svg">
<g id="n-icon-upload">
<path id="cloud" fill-rule="evenodd" clip-rule="evenodd" d="M19.35 9.04C18.67 5.59 15.64 3 12 3C9.11 3 6.6 4.64 5.35 7.04C2.34 7.36 0 9.91 0 13C0 15.9693 2.1648 18.4397 5 18.9168V16.8741C3.2743 16.4303 2 14.8647 2 13C2 10.79 3.79 9 6 9H6.71C7.37 6.69 9.48 5 12 5C15.04 5 17.5 7.46 17.5 10.5V11H19C20.66 11 22 12.34 22 14C22 15.66 20.66 17 19 17V19C21.76 19 24 16.76 24 14C24 11.36 21.95 9.22 19.35 9.04Z" fill="black"/>
<path id="Combined Shape" fill-rule="evenodd" clip-rule="evenodd" d="M15.9246 14.6802L12.3891 11.1446C12.3023 11.0579 12.1916 11.0096 12.0781 11H11.9929C11.8795 11.0096 11.7688 11.0579 11.682 11.1446L8.14645 14.6802C7.95118 14.8754 7.95118 15.192 8.14645 15.3873L8.85355 16.0944C9.04882 16.2896 9.3654 16.2896 9.56066 16.0944L11 14.6544V20.5C11 20.7761 11.2239 21 11.5 21H12.5C12.7761 21 13 20.7761 13 20.5V14.584L14.5104 16.0944C14.7057 16.2896 15.0223 16.2896 15.2175 16.0944L15.9246 15.3873C16.1199 15.192 16.1199 14.8754 15.9246 14.6802Z" fill="black"/>
</g>
</svg>
