<svg width="24" height="24" viewBox="0 0 24 24" fill="none" xmlns="http://www.w3.org/2000/svg">
<path fill-rule="evenodd" clip-rule="evenodd" d="M21 12.0001C21 16.9707 16.9706 21.0001 12 21.0001C7.02944 21.0001 3 16.9707 3 12.0001C3 8.4664 5.03656 5.40834 8 3.93564V1.75C3.90264 3.35014 1 7.33615 1 12.0001C1 18.0753 5.92487 23.0001 12 23.0001C18.0751 23.0001 23 18.0753 23 12.0001C23 7.33615 20.0974 3.35014 16 1.75V3.93564C18.9634 5.40834 21 8.4664 21 12.0001Z" fill="black"/>
<path d="M6.69668 11.1967C6.50142 11.392 6.50142 11.7085 6.69668 11.9038L11.6464 16.8536C11.8417 17.0488 12.1583 17.0488 12.3535 16.8536L17.3033 11.9038C17.4985 11.7085 17.4985 11.392 17.3033 11.1967L16.5962 10.4896C16.4009 10.2943 16.0843 10.2943 15.8891 10.4896L13 13.3787V1.5C13 1.22386 12.7761 1 12.5 1H11.5C11.2238 1 11 1.22386 11 1.5V13.3787L8.11089 10.4896C7.91563 10.2943 7.59905 10.2943 7.40379 10.4896L6.69668 11.1967Z" fill="black"/>
</svg>
