<svg width="24" height="24" viewBox="0 0 24 24" fill="none" xmlns="http://www.w3.org/2000/svg">
<g id="n-icon-flip">
<path id="Union" fill-rule="evenodd" clip-rule="evenodd" d="M19.8891 7.35344C20.0844 7.15818 20.0844 6.8416 19.8891 6.64634L16.3536 3.1108C16.1583 2.91554 15.8417 2.91554 15.6465 3.1108L14.9394 3.81791C14.7441 4.01317 14.7441 4.32975 14.9394 4.52502L16.4139 6H5.50002C5.22387 6 5.00002 6.22386 5.00002 6.5V7.5C5.00002 7.77614 5.22387 8 5.50002 8H16.413L14.9394 9.47476C14.7441 9.67002 14.7441 9.98661 14.9394 10.1819L15.6465 10.889C15.8417 11.0842 16.1583 11.0842 16.3536 10.889L19.8891 7.35344ZM8.35356 13.1108C8.1583 12.9155 7.84172 12.9155 7.64646 13.1108L4.11092 16.6463C3.91566 16.8416 3.91566 17.1582 4.11092 17.3534L7.64646 20.889C7.84172 21.0842 8.1583 21.0842 8.35356 20.889L9.06067 20.1819C9.25593 19.9866 9.25593 19.67 9.06067 19.4748L7.58604 18H18.5C18.7762 18 19 17.7761 19 17.5V16.5C19 16.2239 18.7762 16 18.5 16H7.58518L9.06067 14.525C9.25593 14.3298 9.25593 14.0132 9.06067 13.8179L8.35356 13.1108Z" fill="black"/>
</g>
</svg>
