<svg width="24" height="24" viewBox="0 0 24 24" fill="none" xmlns="http://www.w3.org/2000/svg">
<g id="n-icon-menu-expand">
<path id="Shape" fill-rule="evenodd" clip-rule="evenodd" d="M7.97215 17H19.5C19.7455 17 19.9496 17.1769 19.9919 17.4101L20 17.5V18.5C20 18.7455 19.8231 18.9496 19.5899 18.9919L19.5 19H6.5659C6.40406 19 6.25222 18.9217 6.15842 18.7898C6.01617 18.5897 6.04201 18.3208 6.20756 18.1512L6.27614 18.0925L7.68239 17.0925C7.74587 17.0474 7.8187 17.0179 7.89497 17.006L7.97215 17H19.5H7.97215ZM4.10957 8.72796C4.2629 8.53629 4.52855 8.48737 4.73713 8.60002L4.81235 8.64988L8.51196 11.6096C8.54079 11.6326 8.56698 11.6588 8.59004 11.6877C8.74338 11.8793 8.7328 12.1492 8.57711 12.328L8.51196 12.3904L4.81235 15.3501C4.72369 15.421 4.61354 15.4597 4.5 15.4597C4.25454 15.4597 4.05039 15.2828 4.00806 15.0496L4 14.9597V9.04031C4 8.92678 4.03864 8.81662 4.10957 8.72796ZM11.5 11H19.5C19.7455 11 19.9496 11.1769 19.9919 11.4101L20 11.5V12.5C20 12.7455 19.8231 12.9496 19.5899 12.9919L19.5 13H11.5C11.2545 13 11.0504 12.8231 11.0081 12.5899L11 12.5V11.5C11 11.2545 11.1769 11.0504 11.4101 11.0081L11.5 11H19.5H11.5ZM6.5659 5H19.5C19.7455 5 19.9496 5.17688 19.9919 5.41012L20 5.5V6.5C20 6.74546 19.8231 6.94961 19.5899 6.99194L19.5 7H7.97215C7.89426 7 7.81782 6.98181 7.74877 6.94732L7.68239 6.90748L6.27614 5.90748C6.14424 5.81368 6.0659 5.66185 6.0659 5.5C6.0659 5.25454 6.24278 5.05039 6.47603 5.00806L6.5659 5H19.5H6.5659Z" fill="black"/>
</g>
</svg>
