<svg width="24" height="24" viewBox="0 0 24 24" fill="none" xmlns="http://www.w3.org/2000/svg">
<g id="n-icon-expand-side-bar">
<path id="Shape" fill-rule="evenodd" clip-rule="evenodd" d="M8.5 3C8.77614 3 9 3.22386 9 3.5V20.5C9 20.7761 8.77614 21 8.5 21H6.5C6.22386 21 6 20.7761 6 20.5V3.5C6 3.22386 6.22386 3 6.5 3H8.5ZM14.5 7.56752C14.617 7.56752 14.7302 7.60853 14.8201 7.68341L19.5391 11.6159C19.7512 11.7927 19.7799 12.108 19.6031 12.3201L19.5391 12.3841L14.8201 16.3166C14.608 16.4934 14.2927 16.4647 14.1159 16.2526C14.041 16.1627 14 16.0494 14 15.9325V8.06752C14 7.79138 14.2239 7.56752 14.5 7.56752Z" fill="black"/>
</g>
</svg>
