<svg width="24" height="24" viewBox="0 0 24 24" fill="none" xmlns="http://www.w3.org/2000/svg">
<g id="n-icon-undo">
<path id="Combined Shape" fill-rule="evenodd" clip-rule="evenodd" d="M21 12C21 7.02944 16.9706 3 12 3C9.17273 3 6.64996 4.30367 5 6.34267V4.5C5 4.22386 4.77614 4 4.5 4H3.5C3.22386 4 3 4.22386 3 4.5V8.5V9.5C3 9.77614 3.22386 10 3.5 10H4.5H8.5C8.77614 10 9 9.77614 9 9.5V8.5C9 8.22386 8.77614 8 8.5 8H6.25469C7.51964 6.18652 9.62125 5 12 5C15.866 5 19 8.13401 19 12C19 15.866 15.866 19 12 19C8.82898 19 6.15043 16.8915 5.28988 14H3.22302C4.13247 18.008 7.71682 21 12 21C16.9706 21 21 16.9706 21 12Z" fill="black"/>
</g>
</svg>
