<svg width="24" height="24" viewBox="0 0 24 24" fill="none" xmlns="http://www.w3.org/2000/svg">
<g id="n-icon-discount">
<g id="n-icon">
<path id="Subtract" fill-rule="evenodd" clip-rule="evenodd" d="M12.6953 1.67263C12.3076 1.2976 11.6924 1.2976 11.3047 1.67263L9.63199 3.29083C9.4103 3.50529 9.10205 3.60544 8.79665 3.56225L6.49224 3.2363C5.95816 3.16076 5.46042 3.52239 5.36723 4.05367L4.96512 6.34602C4.91182 6.64982 4.72131 6.91204 4.44884 7.0566L2.39295 8.14741C1.91648 8.40021 1.72636 8.98535 1.96324 9.46994L2.98533 11.5608C3.12079 11.8379 3.12079 12.1621 2.98533 12.4392L1.96324 14.5301C1.72636 15.0147 1.91648 15.5998 2.39295 15.8526L4.44884 16.9434C4.72131 17.088 4.91182 17.3502 4.96512 17.654L5.36723 19.9463C5.46042 20.4776 5.95816 20.8392 6.49224 20.7637L8.79665 20.4378C9.10205 20.3946 9.4103 20.4947 9.63199 20.7092L11.3047 22.3274C11.6924 22.7024 12.3076 22.7024 12.6953 22.3274L14.368 20.7092C14.5897 20.4947 14.898 20.3946 15.2034 20.4378L17.5078 20.7637C18.0418 20.8392 18.5396 20.4776 18.6328 19.9463L19.0349 17.654C19.0882 17.3502 19.2787 17.088 19.5512 16.9434L21.6071 15.8526C22.0835 15.5998 22.2737 15.0147 22.0368 14.5301L21.0147 12.4392C20.8792 12.1621 20.8792 11.8379 21.0147 11.5608L22.0368 9.46994C22.2737 8.98535 22.0835 8.40021 21.6071 8.14741L19.5512 7.0566C19.2787 6.91204 19.0882 6.64982 19.0349 6.34602L18.6328 4.05367C18.5396 3.52239 18.0418 3.16076 17.5078 3.2363L15.2034 3.56225C14.898 3.60544 14.5897 3.50529 14.368 3.29083L12.6953 1.67263ZM7 8.5C7 7.67157 7.67157 7 8.5 7C9.32843 7 10 7.67157 10 8.5C10 9.32843 9.32843 10 8.5 10C7.67157 10 7 9.32843 7 8.5ZM15.1169 7H14L8.45435 16.2428C8.25439 16.576 8.49445 17 8.8831 17H10L15.5457 7.75725C15.7456 7.42399 15.5056 7 15.1169 7ZM15.5 14C14.6716 14 14 14.6716 14 15.5C14 16.3284 14.6716 17 15.5 17C16.3284 17 17 16.3284 17 15.5C17 14.6716 16.3284 14 15.5 14Z" fill="black"/>
</g>
</g>
</svg>
