<svg width="24" height="24" viewBox="0 0 24 24" fill="none" xmlns="http://www.w3.org/2000/svg">
<g id="n-icon-win">
<path id="Shape" fill-rule="evenodd" clip-rule="evenodd" d="M17 2V4H21.093C21.1301 4 21.1671 4.00251 21.2038 4.00749L21.3129 4.02986C21.7641 4.15424 22.051 4.63127 21.9924 5.12776L21.9727 5.24254L21.3476 8C20.8319 10.275 19.0214 11.8929 16.9137 11.9949L16.702 12L16.5837 12.0005C15.9411 13.471 14.6116 14.5726 13.0008 14.8998L13 18H14C14.5523 18 15 18.4477 15 19V20H16C16.5523 20 17 20.4477 17 21V22H7V21C7 20.4477 7.44772 20 8 20H9V19C9 18.4477 9.44772 18 10 18H11L11.0002 14.9C9.38898 14.573 8.05907 13.4713 7.41628 12.0005L7.29803 12C5.1007 12 3.18534 10.3508 2.65241 8L2.02729 5.24254C1.90582 4.70674 2.20122 4.16381 2.68708 4.02986C2.75901 4.01003 2.83287 4 2.90701 4H7V2H17ZM19.9316 6H17L17.0006 9.98355C18.1813 9.85291 19.1857 8.95544 19.5416 7.69783L19.5881 7.51493L19.9316 6ZM7 6H4.06842L4.41185 7.51493C4.71864 8.86819 5.76279 9.8472 7.00044 9.98366L7 6Z" fill="black"/>
</g>
</svg>
