<svg width="24" height="24" viewBox="0 0 24 24" fill="none" xmlns="http://www.w3.org/2000/svg">
<g id="n-icon-align-vert-center">
<g id="n-icon">
<path id="Union" fill-rule="evenodd" clip-rule="evenodd" d="M9 5C8.44772 5 8 5.44772 8 6V11H2.5C2.22386 11 2 11.2239 2 11.5V12.5C2 12.7761 2.22386 13 2.5 13H8V18C8 18.5523 8.44772 19 9 19H15C15.5523 19 16 18.5523 16 18V13H21.5C21.7761 13 22 12.7761 22 12.5V11.5C22 11.2239 21.7761 11 21.5 11H16V6C16 5.44772 15.5523 5 15 5H9ZM10 7V17H14V7H10Z" fill="black"/>
</g>
</g>
</svg>
