<svg width="24" height="24" viewBox="0 0 24 24" fill="none" xmlns="http://www.w3.org/2000/svg">
<g id="n-icon-statistics-alt">
<g id="Vector">
<path fill-rule="evenodd" clip-rule="evenodd" d="M3 13.5C3 13.2238 3.22386 13 3.5 13H5.5C5.77614 13 6 13.2238 6 13.5V20.5C6 20.7761 5.77614 21 5.5 21H3.5C3.22386 21 3 20.7761 3 20.5V13.5Z" fill="black"/>
<path fill-rule="evenodd" clip-rule="evenodd" d="M9 10.5C9 10.2238 9.22386 9.99999 9.5 9.99999H11.5C11.7761 9.99999 12 10.2238 12 10.5V14.5C12 14.7761 11.7761 15 11.5 15H9.5C9.22386 15 9 14.7761 9 14.5V10.5Z" fill="black"/>
<path d="M17.8363 2.30575C17.6456 2.13238 17.3544 2.13238 17.1637 2.30575L12.957 6.13002C12.6188 6.43744 12.8363 6.99999 13.2933 6.99999H16V18H9.5C9.22386 18 9 18.2238 9 18.5V20.5C9 20.7761 9.22386 21 9.5 21H16.4986L16.5 21H18.5C18.7761 21 19 20.7761 19 20.5V6.99999H21.7067C22.1637 6.99999 22.3812 6.43744 22.043 6.13002L17.8363 2.30575Z" fill="black"/>
</g>
</g>
</svg>
