<svg width="24" height="24" viewBox="0 0 24 24" fill="none" xmlns="http://www.w3.org/2000/svg">
<g id="n-icon-sand-clock">
<path id="Shape" fill-rule="evenodd" clip-rule="evenodd" d="M19.9663 4.2658C20.5996 3.71576 21 2.90464 21 2H3C3 2.90464 3.40041 3.71576 4.03337 4.26436C4.01129 4.50661 4 4.75199 4 5C4 7.67768 5.31554 10.0481 7.33555 11.4998C5.31554 12.9519 4 15.3223 4 18C4 18.5578 4.05709 19.1023 4.16513 19.6264C3.45633 20.1751 3 21.0343 3 22H21L20.9949 21.8237C20.9431 20.9301 20.5002 20.1415 19.8343 19.6279C19.9429 19.1023 20 18.5578 20 18C20 15.3223 18.6845 12.9519 16.6645 11.5002C18.6845 10.0481 20 7.67768 20 5C20 4.77422 19.9906 4.55063 19.9723 4.32959L19.9663 4.2658ZM6 5H18L17.9948 5.25154C17.8916 7.7541 16.2556 9.86106 14.0007 10.6583V12.3417L14.2893 12.4522L14.5718 12.5776L14.661 12.6209L14.8457 12.7165L15.0407 12.8264L15.1711 12.9055L15.3614 13.0292L15.5722 13.1788L15.8107 13.3653L15.9626 13.4946L16.1811 13.6967C16.3742 13.8843 16.5547 14.0848 16.7211 14.2967L16.8711 14.4961L17.0018 14.6849L17.1242 14.877L17.2746 15.1378L17.3597 15.3001C17.4478 15.4747 17.5277 15.6543 17.5987 15.8381C17.6735 16.0317 17.7386 16.2303 17.7933 16.4328C17.8431 16.6174 17.8843 16.8055 17.9165 16.9966L17.9636 17.3352C17.9876 17.5535 18 17.7753 18 18C18 18.341 17.9716 18.6753 17.9169 19.0007L17.6587 19.0003C16.8883 16.8202 14.8937 15.2184 12.5009 15.0206L12.5009 8.96894C13.7685 8.81056 14.8518 8.05907 15.4643 7.001H8.53571C9.14834 8.05935 10.232 8.81096 11.5001 8.96906L11.5001 15.0205C9.10682 15.2179 7.11181 16.8199 6.3413 19.0003L6.08308 19.0007C6.02844 18.6753 6 18.341 6 18C6 17.8894 6.00299 17.7795 6.00891 17.6701C6.02102 17.4467 6.04534 17.2266 6.08123 17.0103L6.13852 16.7122L6.20673 16.4328C6.27299 16.1873 6.35444 15.948 6.45013 15.7158C6.51154 15.5667 6.57878 15.4207 6.65148 15.2781C6.70349 15.1761 6.75834 15.0758 6.81584 14.9775L6.96869 14.7298L7.11755 14.5118L7.31564 14.2504L7.47145 14.0639L7.66971 13.847L7.93042 13.591L8.15137 13.3968L8.31463 13.2649L8.48072 13.14L8.6589 13.0156L8.8349 12.9018L9.12509 12.7324L9.39889 12.5916L9.71089 12.4521L10.0003 12.3413V10.6587L9.7761 10.5744C7.62933 9.71713 6.09373 7.65571 6.00414 5.22494L6 5Z" fill="black"/>
</g>
</svg>
