<svg width="24" height="24" viewBox="0 0 24 24" fill="none" xmlns="http://www.w3.org/2000/svg">
<g id="n-icon-alert-circle">
<g id="n-icon">
<g id="Subtract">
<mask id="path-3-inside-1" fill="white">
<path fill-rule="evenodd" clip-rule="evenodd" d="M12 21C16.9706 21 21 16.9706 21 12C21 7.02944 16.9706 3 12 3C7.02944 3 3 7.02944 3 12C3 16.9706 7.02944 21 12 21ZM11 7.5C11 7.22386 11.2239 7 11.5 7H12.5C12.7761 7 13 7.22386 13 7.5V12.5C13 12.7761 12.7761 13 12.5 13H11.5C11.2239 13 11 12.7761 11 12.5V7.5ZM12 15C12.5523 15 13 15.4477 13 16C13 16.5523 12.5523 17 12 17C11.4477 17 11 16.5523 11 16C11 15.4477 11.4477 15 12 15Z"/>
</mask>
<path fill-rule="evenodd" clip-rule="evenodd" d="M12 21C16.9706 21 21 16.9706 21 12C21 7.02944 16.9706 3 12 3C7.02944 3 3 7.02944 3 12C3 16.9706 7.02944 21 12 21ZM11 7.5C11 7.22386 11.2239 7 11.5 7H12.5C12.7761 7 13 7.22386 13 7.5V12.5C13 12.7761 12.7761 13 12.5 13H11.5C11.2239 13 11 12.7761 11 12.5V7.5ZM12 15C12.5523 15 13 15.4477 13 16C13 16.5523 12.5523 17 12 17C11.4477 17 11 16.5523 11 16C11 15.4477 11.4477 15 12 15Z" fill="black"/>
<path d="M19 12C19 15.866 15.866 19 12 19V23C18.0751 23 23 18.0751 23 12H19ZM12 5C15.866 5 19 8.13401 19 12H23C23 5.92487 18.0751 1 12 1V5ZM5 12C5 8.13401 8.13401 5 12 5V1C5.92487 1 1 5.92487 1 12H5ZM12 19C8.13401 19 5 15.866 5 12H1C1 18.0751 5.92487 23 12 23V19ZM11.5 5C10.1193 5 9 6.11929 9 7.5H13C13 8.32843 12.3284 9 11.5 9V5ZM12.5 5H11.5V9H12.5V5ZM15 7.5C15 6.11929 13.8807 5 12.5 5V9C11.6716 9 11 8.32843 11 7.5H15ZM15 12.5V7.5H11V12.5H15ZM12.5 15C13.8807 15 15 13.8807 15 12.5H11C11 11.6716 11.6716 11 12.5 11V15ZM11.5 15H12.5V11H11.5V15ZM9 12.5C9 13.8807 10.1193 15 11.5 15V11C12.3284 11 13 11.6716 13 12.5H9ZM9 7.5V12.5H13V7.5H9ZM15 16C15 14.3431 13.6569 13 12 13V17C11.4477 17 11 16.5523 11 16H15ZM12 19C13.6569 19 15 17.6569 15 16H11C11 15.4477 11.4477 15 12 15V19ZM9 16C9 17.6569 10.3431 19 12 19V15C12.5523 15 13 15.4477 13 16H9ZM12 13C10.3431 13 9 14.3431 9 16H13C13 16.5523 12.5523 17 12 17V13Z" fill="black" mask="url(#path-3-inside-1)"/>
</g>
</g>
</g>
</svg>
