<svg width="24" height="24" viewBox="0 0 24 24" fill="none" xmlns="http://www.w3.org/2000/svg">
<g id="n-icon-scale-arrow">
<g id="n-icon">
<path id="Union" fill-rule="evenodd" clip-rule="evenodd" d="M5.35356 8.1108C5.1583 7.91554 4.84172 7.91554 4.64646 8.1108L1.11092 11.6463C0.915662 11.8416 0.915662 12.1582 1.11092 12.3534L4.64646 15.889C4.84172 16.0842 5.1583 16.0842 5.35356 15.889L6.06067 15.1819C6.25593 14.9866 6.25593 14.67 6.06067 14.4748L4.58604 13H19.413L17.9394 14.4748C17.7441 14.67 17.7441 14.9866 17.9394 15.1819L18.6465 15.889C18.8417 16.0842 19.1583 16.0842 19.3536 15.889L22.8891 12.3534C23.0844 12.1582 23.0844 11.8416 22.8891 11.6463L19.3536 8.1108C19.1583 7.91554 18.8417 7.91554 18.6465 8.1108L17.9394 8.81791C17.7441 9.01317 17.7441 9.32975 17.9394 9.52502L19.4139 11H4.58518L6.06067 9.52502C6.25593 9.32975 6.25593 9.01317 6.06067 8.81791L5.35356 8.1108Z" fill="black"/>
</g>
</g>
</svg>
