<svg width="24" height="24" viewBox="0 0 24 24" fill="none" xmlns="http://www.w3.org/2000/svg">
<g id="n-icon-align-center">
<g id="n-icon">
<path id="Union" fill-rule="evenodd" clip-rule="evenodd" d="M11 2.5C11 2.22386 11.2239 2 11.5 2H12.5C12.7761 2 13 2.22386 13 2.5V8H18C18.5523 8 19 8.44772 19 9V15C19 15.5523 18.5523 16 18 16H13V21.5C13 21.7761 12.7761 22 12.5 22H11.5C11.2239 22 11 21.7761 11 21.5V16H6C5.44772 16 5 15.5523 5 15V9C5 8.44772 5.44772 8 6 8H11V2.5ZM17 14V10H7V14H17Z" fill="black"/>
</g>
</g>
</svg>
