<svg width="24" height="24" viewBox="0 0 24 24" fill="none" xmlns="http://www.w3.org/2000/svg">
<g id="n-icon-filter">
<path id="Shape" fill-rule="evenodd" clip-rule="evenodd" d="M15.5 16C15.7761 16 16 16.2239 16 16.5V18C16 18.2761 15.7761 18.5 15.5 18.5H8.5C8.22386 18.5 8 18.2761 8 18V16.5C8 16.2239 8.22386 16 8.5 16H15.5ZM17.5 11C17.7761 11 18 11.2239 18 11.5V13C18 13.2761 17.7761 13.5 17.5 13.5H6.5C6.22386 13.5 6 13.2761 6 13V11.5C6 11.2239 6.22386 11 6.5 11H17.5ZM19.5 6C19.7761 6 20 6.22386 20 6.5V8C20 8.27614 19.7761 8.5 19.5 8.5H4.5C4.22386 8.5 4 8.27614 4 8V6.5C4 6.22386 4.22386 6 4.5 6H19.5Z" fill="black"/>
</g>
</svg>
