<svg width="24" height="24" viewBox="0 0 24 24" fill="none" xmlns="http://www.w3.org/2000/svg">
<path d="M22 8.5C22 8.77614 21.7761 9 21.5 9H20.5C20.2239 9 20 8.77614 20 8.5V4L15.5 4C15.2239 4 15 3.77614 15 3.5L15 2.5C15 2.22386 15.2239 2 15.5 2H21.5C21.7761 2 22 2.22386 22 2.5V8.5Z" fill="black"/>
<path d="M11 13V15.5C11 15.7761 11.2239 16 11.5 16H12.5C12.7761 16 13 15.7761 13 15.5V13H15.5C15.7761 13 16 12.7761 16 12.5V11.5C16 11.2239 15.7761 11 15.5 11H13V8.5C13 8.22386 12.7761 8 12.5 8H11.5C11.2239 8 11 8.22386 11 8.5V11H8.5C8.22386 11 8 11.2239 8 11.5V12.5C8 12.7761 8.22386 13 8.5 13H11Z" fill="black"/>
<path d="M2 15.5C2 15.2239 2.22386 15 2.5 15H3.5C3.77614 15 4 15.2239 4 15.5V20H8.5C8.77614 20 9 20.2239 9 20.5V21.5C9 21.7761 8.77614 22 8.5 22H2.5C2.22386 22 2 21.7761 2 21.5V15.5Z" fill="black"/>
</svg>
