<svg width="24" height="24" viewBox="0 0 24 24" fill="none" xmlns="http://www.w3.org/2000/svg">
<g id="n-icon-color-bucket">
<path id="Shape" fill-rule="evenodd" clip-rule="evenodd" d="M7.0347 1.153L7.11295 1.19795L18.9907 9.51481L12.1077 19.3446C11.1574 20.7018 9.28676 21.0317 7.92955 20.0814L2.19548 16.0663C0.838267 15.116 0.508423 13.2454 1.45876 11.8881L7.19452 3.69662L5.96579 2.83625C5.76472 2.69546 5.69895 2.43348 5.79805 2.21813L5.843 2.13989L6.41658 1.32074C6.55737 1.11967 6.81935 1.05389 7.0347 1.153ZM20 11C22 13 23 14.6667 23 16C23 17.7673 21.6568 19 20 19C18.3431 19 17 17.7673 17 16C17 14.6667 18 13 20 11ZM4.52195 10.9995H15.509L10.4694 18.1975C10.1527 18.6499 9.5291 18.7598 9.0767 18.4431L3.34264 14.428C2.89023 14.1112 2.78028 13.4877 3.09706 13.0353L4.52195 10.9995ZM20 13.9985L19.8494 14.1986C19.2725 14.9846 19 15.5991 19 16C19 16.6129 19.3972 17 20 17C20.6028 17 21 16.6129 21 16C21 15.5991 20.7274 14.9846 20.1506 14.1986L20 13.9985ZM5.92195 8.99948L8.83282 4.84377L14.768 8.99948H5.92195Z" fill="black"/>
</g>
</svg>
