<svg width="24" height="24" viewBox="0 0 24 24" fill="none" xmlns="http://www.w3.org/2000/svg">
<g id="n-icon-refresh">
<path id="cloud" fill-rule="evenodd" clip-rule="evenodd" d="M12 3C15.7492 3 18.896 5.57907 19.7631 9.05986C22.1622 9.42516 24 11.498 24 14C24 16.419 22.2822 18.4367 20 18.9V16.8293C21.1652 16.4175 22 15.3062 22 14C22 12.5141 20.9118 11.2578 19.4621 11.0371L18.1446 10.8365L17.8224 9.5433C17.1625 6.89418 14.7704 5 12 5C9.8076 5 7.82408 6.18438 6.76652 8.0609L6.29493 8.89768L5.347 9.05273C3.4297 9.36632 2 11.0335 2 13C2 14.4808 2.80482 15.7741 4 16.4656V18.6586C1.66962 17.8349 0 15.6124 0 13C0 10.0186 2.17457 7.54504 5.02417 7.07895C6.39601 4.6448 9.00592 3 12 3Z" fill="black"/>
<path id="arrow" fill-rule="evenodd" clip-rule="evenodd" d="M17 15C17 12.2386 14.7614 10 12 10C9.23858 10 7 12.2386 7 15C7 15.9338 7.25599 16.8078 7.70163 17.5557L9.19394 16.0634C9.06861 15.7329 9 15.3745 9 15C9 13.3431 10.3431 12 12 12C13.6569 12 15 13.3431 15 15C15 16.4865 13.9189 17.7205 12.5 17.9585V16.2574L9.67157 19.0858L12.5 21.9142V19.9753C15.0267 19.7245 17 17.5927 17 15Z" fill="black"/>
</g>
</svg>
