<svg width="24" height="24" viewBox="0 0 24 24" fill="none" xmlns="http://www.w3.org/2000/svg">
<g id="n-icon-regular-screen">
<path id="Shape" fill-rule="evenodd" clip-rule="evenodd" d="M14.5 3H15.5C15.7455 3 15.9496 3.17688 15.9919 3.41012L16 3.5V7C16 7.51284 16.386 7.93551 16.8834 7.99327L17 8H20.5C20.7455 8 20.9496 8.17688 20.9919 8.41012L21 8.5V9.5C21 9.74546 20.8231 9.94961 20.5899 9.99194L20.5 10H17C15.4023 10 14.0963 8.75108 14.0051 7.17627L14 7V3.5C14 3.25454 14.1769 3.05039 14.4101 3.00806L14.5 3ZM7 14H3.5L3.41012 14.0081C3.17688 14.0504 3 14.2545 3 14.5V15.5L3.00806 15.5899C3.05039 15.8231 3.25454 16 3.5 16H7L7.11662 16.0067C7.61396 16.0645 8 16.4872 8 17V20.5L8.00806 20.5899C8.05039 20.8231 8.25454 21 8.5 21H9.5L9.58988 20.9919C9.82312 20.9496 10 20.7455 10 20.5V17L9.99491 16.8237C9.90366 15.2489 8.59768 14 7 14ZM20.5 14H17L16.8237 14.0051C15.2489 14.0963 14 15.4023 14 17V20.5L14.0081 20.5899C14.0504 20.8231 14.2545 21 14.5 21H15.5L15.5899 20.9919C15.8231 20.9496 16 20.7455 16 20.5V17L16.0067 16.8834C16.0645 16.386 16.4872 16 17 16H20.5L20.5899 15.9919C20.8231 15.9496 21 15.7455 21 15.5V14.5L20.9919 14.4101C20.9496 14.1769 20.7455 14 20.5 14ZM9.5 3H8.5L8.41012 3.00806C8.17688 3.05039 8 3.25454 8 3.5V7L7.99327 7.11662C7.93551 7.61396 7.51284 8 7 8H3.5L3.41012 8.00806C3.17688 8.05039 3 8.25454 3 8.5V9.5L3.00806 9.58988C3.05039 9.82312 3.25454 10 3.5 10H7L7.17627 9.99491C8.75108 9.90366 10 8.59768 10 7V3.5L9.99194 3.41012C9.94961 3.17688 9.74546 3 9.5 3Z" fill="black"/>
</g>
</svg>
