<svg width="24" height="24" viewBox="0 0 24 24" fill="none" xmlns="http://www.w3.org/2000/svg">
<g id="n-icon-contact-maps">
<path id="Shape" fill-rule="evenodd" clip-rule="evenodd" d="M23 6.02564C23 3.25006 20.7614 1 18 1C15.2386 1 13 3.25006 13 6.02564C13 9.83077 14.6667 12.6556 18 14.5C21.3333 12.6556 23 9.83077 23 6.02564ZM11.325 3.00518C11.2171 3.00174 11.1088 3 11 3C5.47715 3 1 7.47715 1 13C1 18.5228 5.47715 23 11 23C15.965 23 20.0849 19.3816 20.8669 14.6375C20.0987 15.2862 19.2235 15.866 18.2412 16.377L18 16.5C18.0811 16.4594 18.1615 16.4184 18.2412 16.377L18.2585 16.3681C17.3899 18.2369 15.821 19.7141 13.8888 20.4628C14.9334 18.989 15.5904 17.2324 15.8591 15.2069C14.8952 14.5043 14.0747 13.7096 13.4001 12.8229C12.6741 12.8824 11.9021 12.9123 11.084 12.9123C9.97159 12.9123 8.94437 12.857 8.00191 12.7457C8.05022 9.55369 9.01396 7.1236 10.8936 5.38766L11.0015 5.29237L11 5C11 4.29706 11.1136 3.62767 11.325 3.00518ZM8.15408 15.1691L8.10923 14.8581C9.03741 14.9529 10.029 15 11.084 15C12.0743 15 13.0087 14.9585 13.8868 14.8747C13.5739 17.337 12.6122 19.2678 10.9995 20.7085C9.45294 19.3265 8.50455 17.492 8.15408 15.1691ZM3.02034 13.5844L3.03393 13.7417C3.3167 16.8175 5.34056 19.3892 8.11113 20.4625C6.95531 18.8319 6.274 16.8549 6.06742 14.5505C4.93285 14.3199 3.91753 13.9983 3.02034 13.5844ZM8.11119 5.53716L7.94032 5.60596C5.5363 6.60186 3.72323 8.73602 3.17323 11.3363C3.96124 11.7895 4.90711 12.1467 6.00981 12.4058C6.09796 9.68762 6.79857 7.38921 8.11119 5.53716ZM16 6C16 4.89543 16.8954 4 18 4C19.1046 4 20 4.89543 20 6C20 7.10457 19.1046 8 18 8C16.8954 8 16 7.10457 16 6Z" fill="black"/>
</g>
</svg>
