<svg width="24" height="24" viewBox="0 0 24 24" fill="none" xmlns="http://www.w3.org/2000/svg">
<g id="n-icon-notification-center">
<g id="Vector">
<path d="M15 5.5C15 5.22386 15.2239 5 15.5 5H22.5C22.7761 5 23 5.22386 23 5.5V6.5C23 6.77614 22.7761 7 22.5 7H15.5C15.2239 7 15 6.77614 15 6.5V5.5Z" fill="black"/>
<path d="M16 10.5C16 10.2239 16.2239 10 16.5 10H22.5C22.7761 10 23 10.2239 23 10.5V11.5C23 11.7761 22.7761 12 22.5 12H16.5C16.2239 12 16 11.7761 16 11.5V10.5Z" fill="black"/>
<path d="M17 15.5C17 15.2239 17.2239 15 17.5 15H22.5C22.7761 15 23 15.2239 23 15.5V16.5C23 16.7761 22.7761 17 22.5 17H17.5C17.2239 17 17 16.7761 17 16.5V15.5Z" fill="black"/>
<path fill-rule="evenodd" clip-rule="evenodd" d="M8 3C8.55228 3 9 3.44772 9 4L9.00119 4.10026C11.2828 4.56399 13 6.58146 13 9V14L15 16V17H1V16L3 14V9C3 6.58111 4.71767 4.5634 6.99981 4.10006L7 4C7 3.44772 7.44772 3 8 3ZM8 6C6.40232 6 5.09634 7.24892 5.00509 8.82373L5 9V15H11V9C11 7.34315 9.65685 6 8 6Z" fill="black"/>
<path d="M6 18H10C10 19.1046 9.10457 20 8 20C6.89543 20 6 19.1046 6 18Z" fill="black"/>
</g>
</g>
</svg>
