<svg width="24" height="24" viewBox="0 0 24 24" fill="none" xmlns="http://www.w3.org/2000/svg">
<g id="n-icon-timer-25%">
<g id="n-icon">
<g id="Subtract">
<path d="M8.5 0C8.22386 0 8 0.223858 8 0.5V1.5C8 1.77614 8.22386 2 8.5 2H15.5C15.7761 2 16 1.77614 16 1.5V0.5C16 0.223858 15.7761 0 15.5 0H8.5Z" fill="black"/>
<path d="M12 19C15.3137 19 18 16.3137 18 13C18 9.68629 15.3137 7 12 7V11C13.1046 11 14 11.8954 14 13C14 14.1046 13.1046 15 12 15C10.8954 15 10 14.1046 10 13H6C6 16.3137 8.68629 19 12 19Z" fill="black"/>
<path fill-rule="evenodd" clip-rule="evenodd" d="M22 13C22 11.465 21.6542 10.0108 21.0361 8.71103C21.6139 8.36037 22 7.72527 22 7C22 5.89543 21.1046 5 20 5C19.4778 5 19.0023 5.20016 18.6461 5.52794C16.8794 3.9554 14.5513 3 12 3C6.47715 3 2 7.47715 2 13C2 18.5228 6.47715 23 12 23C17.5228 23 22 18.5228 22 13ZM12 21C16.4183 21 20 17.4183 20 13C20 11.2145 19.415 9.56555 18.4263 8.23444C18.4085 8.21172 18.3911 8.18862 18.3742 8.16513C16.9132 6.24186 14.6016 5 12 5C7.58172 5 4 8.58172 4 13C4 17.4183 7.58172 21 12 21Z" fill="black"/>
</g>
</g>
</g>
</svg>
