<svg width="24" height="24" viewBox="0 0 24 24" fill="none" xmlns="http://www.w3.org/2000/svg">
<g id="n-icon-dashboard">
<path id="Shape" fill-rule="evenodd" clip-rule="evenodd" d="M12 2V12L19.0711 19.0711C17.2614 20.8807 14.7614 22 12 22C6.47715 22 2 17.5228 2 12C2 6.57076 6.32667 2.15207 11.7201 2.00384L12 2ZM16 13L21.9506 13.0007C21.8048 14.4679 21.3419 15.8418 20.6314 17.0528L16 13ZM14.0003 2.2001C18.2392 3.06068 21.5044 6.60253 21.9484 10.9782L14 11L14.0003 2.2001ZM16.0002 5.06952L16.0001 8.99452L19.4123 8.98518C18.7828 7.43996 17.6824 6.1303 16.2838 5.24159L16.0002 5.06952Z" fill="black"/>
</g>
</svg>
