<svg width="24" height="24" viewBox="0 0 24 24" fill="none" xmlns="http://www.w3.org/2000/svg">
<g id="n-icon-arrow-down">
<g id="n-icon-arrow-up">
<path id="Combined Shape" d="M17.3033 14.6467C17.4986 14.8419 17.4986 15.1585 17.3033 15.3538L12.3536 20.3035C12.1583 20.4988 11.8417 20.4988 11.6465 20.3035L6.69672 15.3538C6.50146 15.1585 6.50146 14.8419 6.69672 14.6466L7.40383 13.9395C7.59909 13.7443 7.91567 13.7443 8.11093 13.9395L11 16.8286L11 4.50088C11 4.22473 11.2239 4.00088 11.5 4.00088L12.5 4.00088C12.7762 4.00088 13 4.22473 13 4.50088L13 16.8286L15.8891 13.9395C16.0844 13.7443 16.401 13.7443 16.5962 13.9395L17.3033 14.6467Z" fill="black"/>
</g>
</g>
</svg>
