<svg width="24" height="24" viewBox="0 0 24 24" fill="none" xmlns="http://www.w3.org/2000/svg">
<g id="n-icon-feedback">
<path id="Shape" fill-rule="evenodd" clip-rule="evenodd" d="M21 6C21 4.34315 19.6569 3 18 3H6C4.34315 3 3 4.34315 3 6V23L7 20H18C19.6569 20 21 18.6569 21 17V6ZM6 5H18C18.5523 5 19 5.44772 19 6V17C19 17.5523 18.5523 18 18 18H6.33333L5 19V6C5 5.44772 5.44772 5 6 5ZM12 14C12.5523 14 13 14.4477 13 15C13 15.5523 12.5523 16 12 16C11.4477 16 11 15.5523 11 15C11 14.4477 11.4477 14 12 14ZM13 7.5C13 7.22386 12.7761 7 12.5 7H11.5C11.2239 7 11 7.22386 11 7.5V11.5C11 11.7761 11.2239 12 11.5 12H12.5C12.7761 12 13 11.7761 13 11.5V7.5Z" fill="black"/>
</g>
</svg>
