<svg width="24" height="24" viewBox="0 0 24 24" fill="none" xmlns="http://www.w3.org/2000/svg">
<g id="n-icon-product">
<path id="Shape" fill-rule="evenodd" clip-rule="evenodd" d="M9 14H17.628C17.8488 14 18.0434 13.8552 18.1069 13.6437L20.8069 4.64367C20.8209 4.59706 20.828 4.54866 20.828 4.5C20.828 4.22386 20.6041 4 20.328 4H7.477L6.80275 2.3143L6.76386 2.23712C6.67387 2.09145 6.51376 2 6.33852 2H3.5L3.41012 2.00806C3.17688 2.05039 3 2.25454 3 2.5V3.5L3.00806 3.58988C3.05039 3.82312 3.25454 4 3.5 4H5L7.51749 12.3913C6.61115 12.9075 6 13.8824 6 15C6 16.6569 7.34315 18 9 18H18.5L18.5899 17.9919C18.8231 17.9496 19 17.7455 19 17.5V16.5L18.9919 16.4101C18.9496 16.1769 18.7455 16 18.5 16H9L8.88338 15.9933C8.38604 15.9355 8 15.5128 8 15C8 14.4477 8.44772 14 9 14ZM8.5 19C9.32843 19 10 19.6716 10 20.5C10 21.3284 9.32843 22 8.5 22C7.67157 22 7 21.3284 7 20.5C7 19.6716 7.67157 19 8.5 19ZM18.5 19C19.3284 19 20 19.6716 20 20.5C20 21.3284 19.3284 22 18.5 22C17.6716 22 17 21.3284 17 20.5C17 19.6716 17.6716 19 18.5 19Z" fill="black"/>
</g>
</svg>
