<svg width="24" height="24" viewBox="0 0 24 24" fill="none" xmlns="http://www.w3.org/2000/svg">
<g id="n-icon-fire">
<path id="Subtract" fill-rule="evenodd" clip-rule="evenodd" d="M16 10.2C17.2687 10.2 18.3994 9.602 19.1322 8.66921C19.6886 10.0109 20 11.469 20 12.9C20 16.5 17.5 21 12 21C6.5 21 4 16.5 4 12.9C4 7.92944 7.5 3 12 3C12.4494 3 12.8888 3.05089 13.3158 3.14728C12.5076 3.88831 12 4.95913 12 6.15C12 8.38675 13.7909 10.2 16 10.2ZM12 12.9C12 14.3912 10.8807 15.6 9.5 15.6C8.93762 15.6 8.41862 15.3995 8.00095 15.061C8.00032 15.0906 8 15.1202 8 15.15C8 17.3868 9.79086 19.2 12 19.2C14.2091 19.2 16 17.3868 16 15.15C16 12.9132 14.2091 11.1 12 11.1C11.7961 11.1 11.5958 11.1154 11.4001 11.1452C11.7741 11.6172 12 12.2301 12 12.9Z" fill="black"/>
</g>
</svg>
