<svg width="24" height="24" viewBox="0 0 24 24" fill="none" xmlns="http://www.w3.org/2000/svg">
<path fill-rule="evenodd" clip-rule="evenodd" d="M10 18H7C5.34315 18 4 16.6569 4 15V7C4 5.34315 5.34315 4 7 4H17C18.6569 4 20 5.34315 20 7V15C20 16.6569 18.6569 18 17 18H13.3944L10 20.263V18ZM8 24L14 20H17C19.7614 20 22 17.7614 22 15V7C22 4.23858 19.7614 2 17 2H7C4.23858 2 2 4.23858 2 7V15C2 17.7614 4.23858 20 7 20H8V24Z" fill="black"/>
<path fill-rule="evenodd" clip-rule="evenodd" d="M12.8087 8.47591L14.5304 10.2051L9.82619 15H8V13.1659L12.8087 8.47591ZM13.6695 7.61133L14.1 7.17904C14.0999 7.17905 14.1 7.17902 14.1 7.17904C14.3377 6.94034 14.7231 6.94031 14.9608 7.17904L15.8217 8.04362C16.0594 8.28229 16.0594 8.6692 15.8219 8.90797C15.822 8.90789 15.8219 8.90804 15.8219 8.90797L15.3913 9.34049L14.9608 8.9082C14.9608 8.90822 14.9608 8.90819 14.9608 8.9082L13.6695 7.61133Z" fill="black"/>
</svg>
