<svg width="24" height="24" viewBox="0 0 24 24" fill="none" xmlns="http://www.w3.org/2000/svg">
<g id="n-icon-th-large">
<path id="Shape" fill-rule="evenodd" clip-rule="evenodd" d="M10 3C10.5523 3 11 3.44772 11 4V10C11 10.5523 10.5523 11 10 11H4C3.44772 11 3 10.5523 3 10V4C3 3.44772 3.44772 3 4 3H10ZM11 14C11 13.4477 10.5523 13 10 13H4C3.44772 13 3 13.4477 3 14V20C3 20.5523 3.44772 21 4 21H10C10.5523 21 11 20.5523 11 20V14ZM21 14C21 13.4477 20.5523 13 20 13H14C13.4477 13 13 13.4477 13 14V20C13 20.5523 13.4477 21 14 21H20C20.5523 21 21 20.5523 21 20V14ZM9 15H5V19H9V15ZM15 15H19V19H15V15ZM21 4C21 3.44772 20.5523 3 20 3H14C13.4477 3 13 3.44772 13 4V10C13 10.5523 13.4477 11 14 11H20C20.5523 11 21 10.5523 21 10V4ZM9 5H5V9H9V5ZM15 5H19V9H15V5Z" fill="black"/>
</g>
</svg>
