<svg width="24" height="24" viewBox="0 0 24 24" fill="none" xmlns="http://www.w3.org/2000/svg">
<g id="n-icon-alert-losang">
<g id="n-icon">
<path id="Subtract" fill-rule="evenodd" clip-rule="evenodd" d="M14.8284 3.82843C13.2663 2.26633 10.7337 2.26634 9.17156 3.82843L3.82977 9.17022C2.26768 10.7323 2.26768 13.265 3.82978 14.8271L9.17156 20.1689C10.7337 21.731 13.2663 21.731 14.8284 20.1689L20.1702 14.8271C21.7323 13.265 21.7323 10.7323 20.1702 9.17022L14.8284 3.82843ZM11 7.5C11 7.22386 11.2238 7 11.5 7H12.5C12.7761 7 13 7.22386 13 7.5V12.5C13 12.7761 12.7761 13 12.5 13H11.5C11.2238 13 11 12.7761 11 12.5V7.5ZM12 15C12.5523 15 13 15.4477 13 16C13 16.5523 12.5523 17 12 17C11.4477 17 11 16.5523 11 16C11 15.4477 11.4477 15 12 15Z" fill="black"/>
</g>
</g>
</svg>
