<svg width="24" height="24" viewBox="0 0 24 24" fill="none" xmlns="http://www.w3.org/2000/svg">
<g id="n-icon-automate">
<path id="Oval" fill-rule="evenodd" clip-rule="evenodd" d="M22 12C22 6.47715 17.5228 2 12 2C6.47715 2 2 6.47715 2 12C2 17.5228 6.47715 22 12 22C17.5228 22 22 17.5228 22 12ZM4 12C4 7.58172 7.58172 4 12 4C16.4183 4 20 7.58172 20 12C20 16.4183 16.4183 20 12 20C7.58172 20 4 16.4183 4 12Z" fill="black"/>
<path id="Path" fill-rule="evenodd" clip-rule="evenodd" d="M11.9146 6.0529C12.084 6.13759 12.191 6.31072 12.191 6.50011L12.19 10.382L15.382 10.3821C15.6581 10.3821 15.882 10.6059 15.882 10.8821C15.882 10.9597 15.8639 11.0363 15.8292 11.1057L12.6382 17.4876C12.5147 17.7346 12.2144 17.8347 11.9674 17.7113C11.798 17.6266 11.691 17.4534 11.691 17.264L11.69 13.382L8.5 13.3821C8.22386 13.3821 8 13.1582 8 12.8821C8 12.8045 8.01807 12.7279 8.05279 12.6585L11.2438 6.2765C11.3673 6.02951 11.6676 5.9294 11.9146 6.0529Z" fill="black"/>
</g>
</svg>
