<svg width="24" height="24" viewBox="0 0 24 24" fill="none" xmlns="http://www.w3.org/2000/svg">
<g id="n-icon-feedback-audio">
<path id="Combined Shape" fill-rule="evenodd" clip-rule="evenodd" d="M17 6C17 3.23858 14.7614 1 12 1C9.23858 1 7 3.23858 7 6V11C7 13.7614 9.23858 16 12 16C14.7614 16 17 13.7614 17 11V6ZM21 11C21 10.4477 20.5523 10 20 10C19.4477 10 19 10.4477 19 11V12L18.9959 12.2249C18.8776 15.4344 16.2384 18 13 18H11C7.68629 18 5 15.3137 5 12V11C5 10.4477 4.55228 10 4 10C3.44772 10 3 10.4477 3 11V12C3 16.4183 6.58172 20 11 20V23H13V20C17.4183 20 21 16.4183 21 12V11ZM12 11C12.5523 11 13 11.4477 13 12C13 12.5523 12.5523 13 12 13C11.4477 13 11 12.5523 11 12C11 11.4477 11.4477 11 12 11ZM13 4.5C13 4.22386 12.7761 4 12.5 4H11.5C11.2239 4 11 4.22386 11 4.5V8.5C11 8.77614 11.2239 9 11.5 9H12.5C12.7761 9 13 8.77614 13 8.5V4.5Z" fill="black"/>
</g>
</svg>
