<svg width="24" height="24" viewBox="0 0 24 24" fill="none" xmlns="http://www.w3.org/2000/svg">
<g id="n-icon-audio">
<path id="Shape" fill-rule="evenodd" clip-rule="evenodd" d="M12 2C14.7614 2 17 4.23858 17 7V11C17 13.7614 14.7614 16 12 16C9.23858 16 7 13.7614 7 11V7C7 4.23858 9.23858 2 12 2ZM20 10C20.5523 10 21 10.4477 21 11V12C21 16.4183 17.4183 20 13 20V23H11V20C6.58172 20 3 16.4183 3 12V11C3 10.4477 3.44772 10 4 10C4.55228 10 5 10.4477 5 11V12C5 15.3137 7.68629 18 11 18H13C16.2384 18 18.8776 15.4344 18.9959 12.2249L19 12V11C19 10.4477 19.4477 10 20 10ZM9 7C9 5.34315 10.3431 4 12 4C13.6569 4 15 5.34315 15 7V11C15 12.6569 13.6569 14 12 14C10.3431 14 9 12.6569 9 11V7Z" fill="black"/>
</g>
</svg>
