<svg width="24" height="24" viewBox="0 0 24 24" fill="none" xmlns="http://www.w3.org/2000/svg">
<g id="n-icon-config">
<g id="Vector">
<path fill-rule="evenodd" clip-rule="evenodd" d="M4 12C4 7.58172 7.58172 4 12 4C16.4183 4 20 7.58172 20 12C20 16.4183 16.4183 20 12 20C7.58172 20 4 16.4183 4 12ZM17 12C17 9.23858 14.7614 7 12 7C9.23857 7 7 9.23858 7 12C7 14.7614 9.23857 17 12 17C14.7614 17 17 14.7614 17 12Z" fill="black"/>
<path d="M10.7808 2C10.3219 2 9.92192 2.3123 9.81063 2.75746L9.31063 4.75746C9.15285 5.38861 9.6302 6 10.2808 6H13.7192C14.3698 6 14.8472 5.38861 14.6894 4.75746L14.1894 2.75746C14.0781 2.3123 13.6781 2 13.2192 2H10.7808Z" fill="black"/>
<path d="M10.7808 22C10.3219 22 9.92192 21.6877 9.81063 21.2425L9.31063 19.2425C9.15285 18.6114 9.6302 18 10.2808 18H13.7192C14.3698 18 14.8472 18.6114 14.6894 19.2425L14.1894 21.2425C14.0781 21.6877 13.6781 22 13.2192 22H10.7808Z" fill="black"/>
<path d="M2.90104 9.27478C2.57116 8.95581 2.5007 8.45327 2.73013 8.05588L3.94936 5.94412C4.17879 5.54673 4.64924 5.35648 5.09041 5.48269L7.07246 6.04967C7.69794 6.2286 7.98874 6.9477 7.66346 7.51111L5.94423 10.4889C5.61895 11.0523 4.85079 11.16 4.3831 10.7078L2.90104 9.27478Z" fill="black"/>
<path d="M20.0506 18.0559C19.8212 18.4533 19.3508 18.6435 18.9096 18.5173L16.9275 17.9503C16.3021 17.7714 16.0113 17.0523 16.3365 16.4889L18.0558 13.5111C18.381 12.9477 19.1492 12.84 19.6169 13.2922L21.099 14.7252C21.4288 15.0442 21.4993 15.5467 21.2699 15.9441L20.0506 18.0559Z" fill="black"/>
<path d="M18.9096 5.48269C19.3508 5.35648 19.8212 5.54673 20.0506 5.94412L21.2699 8.05588C21.4993 8.45327 21.4288 8.95581 21.099 9.27478L19.6169 10.7078C19.1492 11.16 18.381 11.0523 18.0558 10.4889L16.3365 7.51111C16.0113 6.9477 16.3021 6.2286 16.9275 6.04967L18.9096 5.48269Z" fill="black"/>
<path d="M2.73013 15.9441C2.5007 15.5467 2.57116 15.0442 2.90104 14.7252L4.3831 13.2922C4.85079 12.84 5.61895 12.9477 5.94423 13.5111L7.66346 16.4889C7.98874 17.0523 7.69794 17.7714 7.07246 17.9503L5.09041 18.5173C4.64924 18.6435 4.17879 18.4533 3.94936 18.0559L2.73013 15.9441Z" fill="black"/>
</g>
</g>
</svg>
