<svg width="24" height="24" viewBox="0 0 24 24" fill="none" xmlns="http://www.w3.org/2000/svg">
<g id="n-icon-build-site">
<g id="Union">
<path fill-rule="evenodd" clip-rule="evenodd" d="M22 5C22 3.89543 21.1046 3 20 3H4C2.89543 3 2 3.89543 2 5V19C2 20.1046 2.89543 21 4 21H14.8917L14.225 19H4V9H20V14.5592L22 15.2259V5ZM4 5H20V7H4V5Z" fill="black"/>
<path d="M22.9121 17.6383L15.9487 15.3169C15.5578 15.1865 15.1859 15.5584 15.3162 15.9493L17.6374 22.9126C17.7754 23.3268 18.3408 23.3775 18.5504 22.9944L20.1213 20.1224L22.9939 18.5513C23.3769 18.3418 23.3263 17.7764 22.9121 17.6383Z" fill="black"/>
</g>
</g>
</svg>
