<svg width="24" height="24" viewBox="0 0 24 24" fill="none" xmlns="http://www.w3.org/2000/svg">
<g id="n-icon-missed-call">
<g id="Vector">
<path d="M6.28322 19.7713C6.95424 19.1094 7.71255 18.5767 8.5145 18.1732C8.77091 18.0494 8.93457 17.7911 8.93457 17.5005L8.71636 15.5957C10.9967 14.7993 13.8336 14.7455 16.2012 15.5634L16.043 17.5059C16.0485 17.8019 16.2176 18.0548 16.4686 18.1839C17.276 18.5821 18.0288 19.1202 18.6998 19.7821C18.9944 20.0726 19.4854 20.0726 19.78 19.7821L21.6676 17.9202C21.9622 17.6297 22.1859 17.1508 21.7767 16.7472C16.7086 11.7482 8.27992 11.7536 3.21726 16.7472C2.82992 17.1292 3.02086 17.6189 3.32091 17.9149L5.20304 19.7713C5.49764 20.0619 5.98863 20.0619 6.28322 19.7713Z" fill="black"/>
<path fill-rule="evenodd" clip-rule="evenodd" d="M10.5 4C10.7761 4 11 4.22386 11 4.5V5.5C11 5.77614 10.7761 6 10.5 6H9.414L11.5 8.08579L15.2929 4.29289L16.7071 5.70711L11.5 10.9142L8 7.415V8.5C8 8.77614 7.77614 9 7.5 9H6.5C6.22386 9 6 8.77614 6 8.5V4.5C6 4.22386 6.22386 4 6.5 4H10.5Z" fill="black"/>
</g>
</g>
</svg>
