<svg width="24" height="24" viewBox="0 0 24 24" fill="none" xmlns="http://www.w3.org/2000/svg">
<g id="n-icon-filter-by">
<path id="Shape" fill-rule="evenodd" clip-rule="evenodd" d="M11.6229 14.2721L14.6464 17.2956C14.8417 17.4909 14.8417 17.8075 14.6464 18.0027L14.0027 18.6464C13.8075 18.8417 13.4909 18.8417 13.2956 18.6464L10.2721 15.6229C9.89905 15.2499 9.89905 14.6451 10.2721 14.2721C10.6451 13.8991 11.2499 13.8991 11.6229 14.2721ZM22.5 15C22.7761 15 23 15.2239 23 15.5V17C23 17.2761 22.7761 17.5 22.5 17.5H18.5C18.2239 17.5 18 17.2761 18 17V15.5C18 15.2239 18.2239 15 18.5 15H22.5ZM9.96831 6.53872C12.0199 8.59034 12.0199 11.9167 9.96831 13.9683C7.91669 16.0199 4.59034 16.0199 2.53872 13.9683C0.487094 11.9167 0.487094 8.59034 2.53872 6.53872C4.59034 4.48709 7.91669 4.48709 9.96831 6.53872ZM3.77698 7.77698C2.40923 9.14473 2.40923 11.3623 3.77698 12.73C5.14473 14.0978 7.3623 14.0978 8.73005 12.73C10.0978 11.3623 10.0978 9.14473 8.73005 7.77698C7.3623 6.40923 5.14473 6.40923 3.77698 7.77698ZM22.5 10C22.7761 10 23 10.2239 23 10.5V12C23 12.2761 22.7761 12.5 22.5 12.5H16.5C16.2239 12.5 16 12.2761 16 12V10.5C16 10.2239 16.2239 10 16.5 10H22.5ZM22.5 5C22.7761 5 23 5.22386 23 5.5V7C23 7.27614 22.7761 7.5 22.5 7.5H14.5C14.2239 7.5 14 7.27614 14 7V5.5C14 5.22386 14.2239 5 14.5 5H22.5Z" fill="black"/>
</g>
</svg>
