<svg width="24" height="24" viewBox="0 0 24 24" fill="none" xmlns="http://www.w3.org/2000/svg">
<g id="n-icon-download-alt">
<path id="Union" fill-rule="evenodd" clip-rule="evenodd" d="M11 2.5V13.5864L9.56066 12.1464C9.3654 11.9512 9.04882 11.9512 8.85355 12.1464L8.14645 12.8536C7.95118 13.0488 7.95118 13.3654 8.14645 13.5607L11.682 17.0962C11.7688 17.183 11.8795 17.2312 11.9929 17.2408H12.0781C12.1916 17.2312 12.3023 17.183 12.3891 17.0962L15.9246 13.5607C16.1199 13.3654 16.1199 13.0488 15.9246 12.8536L15.2175 12.1464C15.0223 11.9512 14.7057 11.9512 14.5104 12.1464L13 13.6568V2.5C13 2.22386 12.7761 2 12.5 2H11.5C11.2239 2 11 2.22386 11 2.5ZM21 10C21 8.89543 20.1046 8 19 8H15.5C15.2239 8 15 8.22386 15 8.5V9.5C15 9.77614 15.2239 10 15.5 10H19V20H5V10H8.5C8.77614 10 9 9.77614 9 9.5V8.5C9 8.22386 8.77614 8 8.5 8H5C3.89543 8 3 8.89543 3 10V20C3 21.1046 3.89543 22 5 22H19C20.1046 22 21 21.1046 21 20V10Z" fill="black"/>
</g>
</svg>
