<svg width="24" height="24" viewBox="0 0 24 24" fill="none" xmlns="http://www.w3.org/2000/svg">
<g id="n-icon-check-all">
<g id="Vector">
<path d="M12.0459 8.14645C11.8507 7.95118 11.5341 7.95118 11.3388 8.14645L6.03553 13.4497L3.56066 10.9749C3.3654 10.7796 3.04882 10.7796 2.85355 10.9749L2.14645 11.682C1.95118 11.8772 1.95118 12.1938 2.14645 12.3891L5.68198 15.9246C5.87724 16.1199 6.19383 16.1199 6.38909 15.9246L12.753 9.56066C12.9483 9.3654 12.9483 9.04882 12.753 8.85355L12.0459 8.14645Z" fill="black"/>
<path d="M21.5312 8.14645C21.336 7.95118 21.0194 7.95118 20.8241 8.14645L15.5208 13.4497L14.1066 12.0355L12.6924 13.4497L14.4599 15.2172C14.4598 15.2172 14.46 15.2173 14.4599 15.2172L15.1673 15.9246C15.3625 16.1199 15.6791 16.1199 15.8744 15.9246L16.5815 15.2175C16.5814 15.2176 16.5816 15.2174 16.5815 15.2175L22.2383 9.56066C22.4336 9.3654 22.4336 9.04882 22.2383 8.85355L21.5312 8.14645Z" fill="black"/>
</g>
</g>
</svg>
