<svg width="24" height="24" viewBox="0 0 24 24" fill="none" xmlns="http://www.w3.org/2000/svg">
<g id="n-icon-columns">
<path id="Shape" fill-rule="evenodd" clip-rule="evenodd" d="M7 5C7 4.44772 6.55228 4 6 4H2C1.44772 4 1 4.44772 1 5V19C1 19.5523 1.44772 20 2 20H6C6.55228 20 7 19.5523 7 19V5ZM15 5C15 4.44772 14.5523 4 14 4H10C9.44771 4 9 4.44772 9 5V19C9 19.5523 9.44771 20 10 20H14C14.5523 20 15 19.5523 15 19V5ZM22 4C22.5523 4 23 4.44772 23 5V19C23 19.5523 22.5523 20 22 20H18C17.4477 20 17 19.5523 17 19V5C17 4.44772 17.4477 4 18 4H22ZM3 6H5V18H3V6ZM13 6H11V18H13V6ZM19 6H21V18H19V6Z" fill="black"/>
</g>
</svg>
