<svg width="24" height="24" viewBox="0 0 24 24" fill="none" xmlns="http://www.w3.org/2000/svg">
<g id="n-icon-notification">
<path id="Shape" fill-rule="evenodd" clip-rule="evenodd" d="M14 20C14 21.1046 13.1046 22 12 22C10.8954 22 10 21.1046 10 20H14ZM12 2C12.5523 2 13 2.44772 13 3L13.0008 3.08309C15.8381 3.5595 18 6.02729 18 9V16L20 18V19H4V18L6 16V9C6 6.02694 8.16238 3.55893 11.0002 3.08293L11 3C11 2.44772 11.4477 2 12 2ZM12 5C9.8578 5 8.10892 6.68397 8.0049 8.80036L8 9V17H16V9C16 6.79086 14.2091 5 12 5Z" fill="black"/>
</g>
</svg>
