<svg width="24" height="24" viewBox="0 0 24 24" fill="none" xmlns="http://www.w3.org/2000/svg">
<g id="n-icon-calendar">
<path id="Combined Shape" fill-rule="evenodd" clip-rule="evenodd" d="M15 2.5C15 2.22386 15.2239 2 15.5 2H16.5C16.7761 2 17 2.22386 17 2.5V4H19C20.1046 4 21 4.89543 21 6V19C21 20.1046 20.1046 21 19 21H5C3.89543 21 3 20.1046 3 19V6C3 4.89543 3.89543 4 5 4H7V2.5C7 2.22386 7.22386 2 7.5 2H8.5C8.77614 2 9 2.22386 9 2.5V4H15V2.5ZM7 6V6.5C7 6.77614 7.22386 7 7.5 7H8.5C8.77614 7 9 6.77614 9 6.5V6H15V6.5C15 6.77614 15.2239 7 15.5 7H16.5C16.7761 7 17 6.77614 17 6.5V6H19V9H5V6H7ZM5 19V11H19V19H5ZM15 13C13.8954 13 13 13.8954 13 15C13 16.1046 13.8954 17 15 17C16.1046 17 17 16.1046 17 15C17 13.8954 16.1046 13 15 13Z" fill="black"/>
</g>
</svg>
