<svg width="24" height="24" viewBox="0 0 24 24" fill="none" xmlns="http://www.w3.org/2000/svg">
<g id="n-icon-lead-play">
<path id="Oval" fill-rule="evenodd" clip-rule="evenodd" d="M22 12C22 6.47715 17.5228 2 12 2C6.47715 2 2 6.47715 2 12C2 17.5228 6.47715 22 12 22C17.5228 22 22 17.5228 22 12ZM4 12C4 7.58172 7.58172 4 12 4C16.4183 4 20 7.58172 20 12C20 16.4183 16.4183 20 12 20C7.58172 20 4 16.4183 4 12Z" fill="black"/>
<path id="Triangle" fill-rule="evenodd" clip-rule="evenodd" d="M16.3216 11.576C16.6349 11.7718 16.6349 12.2282 16.3216 12.424L9.765 16.5219C9.43197 16.73 9 16.4906 9 16.0979L9 7.90212C9 7.50941 9.43198 7.26998 9.765 7.47812L16.3216 11.576Z" fill="black"/>
</g>
</svg>
