<svg width="24" height="24" viewBox="0 0 24 24" fill="none" xmlns="http://www.w3.org/2000/svg">
<g id="n-icon-price-table">
<g id="n-icon-grid">
<g id="Union">
<path fill-rule="evenodd" clip-rule="evenodd" d="M3 21H13V19H9V15H13V13H9V9H21V3C21 1.89543 20.1046 1 19 1H3C1.89543 1 1 1.89543 1 3V19C1 20.1046 1.89543 21 3 21ZM3 15H7V19H3V15ZM7 9H3V13H7V9ZM3 3H7V7H3V3ZM13 3H9V7H13V3ZM15 3H19V7H15V3Z" fill="black"/>
<path d="M20.4032 11.4614C20.4032 11.2066 20.2003 11 19.9501 11H19.0435C18.7934 11 18.5906 11.2065 18.5904 11.4613L18.5899 12.4533C17.1621 12.7513 16.2168 13.7292 16.2168 15.0655C16.2168 16.3654 16.9973 17.1731 18.6451 17.558L19.8035 17.8356C20.931 18.107 21.3894 18.4856 21.3894 19.1418C21.3894 19.899 20.6398 20.4417 19.5619 20.4417C18.4717 20.4417 17.6478 19.8927 17.5487 19.0535H16C16.0578 20.4774 17.0384 21.4381 18.5901 21.6968L18.5905 22.5387C18.5906 22.7935 18.7934 23 19.0436 23H19.9502C20.2003 23 20.4032 22.7935 20.4033 22.5386L20.4036 21.6932C22.0199 21.4221 23 20.4187 23 18.9525C23 17.5959 22.2319 16.8323 20.4168 16.4096L19.3885 16.1698C18.292 15.9047 17.8398 15.5514 17.8398 14.9456C17.8398 14.1884 18.5212 13.6836 19.531 13.6836C20.5531 13.6836 21.2531 14.1947 21.3274 15.0466H22.8513C22.8199 13.6906 21.8839 12.7049 20.4035 12.4336L20.4032 11.4614Z" fill="black"/>
</g>
</g>
</g>
</svg>
