<svg width="24" height="24" viewBox="0 0 24 24" fill="none" xmlns="http://www.w3.org/2000/svg">
<g id="n-icon-levels">
<path id="Shape" fill-rule="evenodd" clip-rule="evenodd" d="M6 14C6.55228 14 7 14.4477 7 15V19C7 19.5523 6.55228 20 6 20H5C4.44772 20 4 19.5523 4 19V15C4 14.4477 4.44772 14 5 14H6ZM12 9C12.5523 9 13 9.44772 13 10V19C13 19.5523 12.5523 20 12 20H11C10.4477 20 10 19.5523 10 19V10C10 9.44772 10.4477 9 11 9H12ZM18 4C18.5523 4 19 4.44772 19 5V19C19 19.5523 18.5523 20 18 20H17C16.4477 20 16 19.5523 16 19V5C16 4.44772 16.4477 4 17 4H18Z" fill="black"/>
</g>
</svg>
