<svg width="24" height="24" viewBox="0 0 24 24" fill="none" xmlns="http://www.w3.org/2000/svg">
<g id="n-icon-edit">
<path id="Shape" fill-rule="evenodd" clip-rule="evenodd" d="M11 3V5H5C4.44772 5 4 5.44772 4 6V19C4 19.5523 4.44772 20 5 20H18C18.5523 20 19 19.5523 19 19V13H21V19C21 20.6569 19.6569 22 18 22H5C3.34315 22 2 20.6569 2 19V6C2 4.34315 3.34315 3 5 3H11ZM15 6.5L17.5 9L9.5 17H7V14.5L15 6.5ZM20.2142 4.91716L19.0828 3.78579C18.6923 3.39526 18.0592 3.39526 17.6686 3.78579L16.6787 4.77574L19.2243 7.32132L20.2142 6.33137C20.6047 5.94085 20.6047 5.30768 20.2142 4.91716Z" fill="black"/>
</g>
</svg>
