<svg width="24" height="24" viewBox="0 0 24 24" fill="none" xmlns="http://www.w3.org/2000/svg">
<g id="n-icon-circle-select-on">
<path id="Oval" fill-rule="evenodd" clip-rule="evenodd" d="M12 22C17.5228 22 22 17.5228 22 12C22 6.47715 17.5228 2 12 2C6.47715 2 2 6.47715 2 12C2 17.5228 6.47715 22 12 22Z" fill="black"/>
<path id="Path" fill-rule="evenodd" clip-rule="evenodd" d="M6.1967 12.5607C6.00144 12.3655 6.00144 12.0489 6.1967 11.8536L6.90381 11.1465C7.09907 10.9512 7.41565 10.9512 7.61091 11.1465L10.0858 13.62L15.3891 8.31808C15.5844 8.12282 15.9009 8.12282 16.0962 8.31808L16.8033 9.02518C16.9986 9.22045 16.9986 9.53703 16.8033 9.73229L10.4393 16.0963C10.2658 16.2698 9.99635 16.2891 9.80148 16.1541L9.73224 16.0963L6.1967 12.5607Z" fill="white"/>
</g>
</svg>
