<svg width="24" height="24" viewBox="0 0 24 24" fill="none" xmlns="http://www.w3.org/2000/svg">
<g id="n-icon-trash-alt">
<g id="Shape">
<path d="M13.9933 3.88338C13.9355 3.38604 13.5128 3 13 3H11C10.4477 3 10 3.44772 10 4H5C4.44772 4 4 4.44772 4 5V6H20V5C20 4.44772 19.5523 4 19 4H14L13.9933 3.88338Z" fill="black"/>
<path fill-rule="evenodd" clip-rule="evenodd" d="M20 8L17.2358 19.4686C17.0192 20.367 16.2155 21 15.2914 21H8.70856C7.7845 21 6.98075 20.367 6.76423 19.4686L4 8H20ZM17.4607 10H6.53934L8.70857 19H15.2915L17.4607 10Z" fill="black"/>
</g>
</g>
</svg>
