<svg width="24" height="24" viewBox="0 0 24 24" fill="none" xmlns="http://www.w3.org/2000/svg">
<g id="n-icon-lose-thumb-down">
<path id="Shape" fill-rule="evenodd" clip-rule="evenodd" d="M10 3H15.228C17.2378 3 19.0443 4.20217 19.8269 6.03784L19.9096 6.24438L21.9045 11.564C21.9519 11.6903 21.9819 11.8222 21.994 11.9562L22 12.0907V14.5C22 15.2797 21.4051 15.9204 20.6445 15.9931L20.5 16H14.2808L15.1063 19.3022C15.1494 19.4745 15.1712 19.6513 15.1712 19.8288C15.1712 20.9758 14.2818 21.915 13.1551 21.9945L13 22H12.5858L7.87868 17.2929C7.36295 16.7772 7.05439 16.093 7.00654 15.3697L7 15.1716V6C7 4.40232 8.24892 3.09634 9.82373 3.00509L10 3H15.228H10ZM15.228 5H10C9.48716 5 9.06449 5.38604 9.00673 5.88338L9 6V15.1716C9 15.3926 9.07316 15.6061 9.20608 15.7796L9.29289 15.8787L13.1542 19.74L12.1852 15.8638C11.9843 15.0601 12.4729 14.2457 13.2766 14.0448C13.3559 14.025 13.4366 14.0117 13.518 14.005L13.6404 14H20V12.1813L18.037 6.94663C17.621 5.83735 16.5945 5.08275 15.4243 5.00639L15.228 5ZM2.5 4H4.5C4.74546 4 4.94961 4.17688 4.99194 4.41012L5 4.5V15.5C5 15.7455 4.82312 15.9496 4.58988 15.9919L4.5 16H2.5C2.25454 16 2.05039 15.8231 2.00806 15.5899L2 15.5V4.5C2 4.25454 2.17688 4.05039 2.41012 4.00806L2.5 4H4.5H2.5Z" fill="black"/>
</g>
</svg>
