<svg width="24" height="24" viewBox="0 0 24 24" fill="none" xmlns="http://www.w3.org/2000/svg">
<g id="n-icon-view-list">
<path id="Shape" fill-rule="evenodd" clip-rule="evenodd" d="M5 17C6.10457 17 7 17.8954 7 19C7 20.1046 6.10457 21 5 21C3.89543 21 3 20.1046 3 19C3 17.8954 3.89543 17 5 17ZM17.5 17.5C18.0523 17.5 18.5 17.9477 18.5 18.5V19.5C18.5 20.0523 18.0523 20.5 17.5 20.5H10.5C9.94772 20.5 9.5 20.0523 9.5 19.5V18.5C9.5 17.9477 9.94772 17.5 10.5 17.5H17.5ZM5 10C6.10457 10 7 10.8954 7 12C7 13.1046 6.10457 14 5 14C3.89543 14 3 13.1046 3 12C3 10.8954 3.89543 10 5 10ZM20.5 10.5C21.0523 10.5 21.5 10.9477 21.5 11.5V12.5C21.5 13.0523 21.0523 13.5 20.5 13.5H10.5C9.94772 13.5 9.5 13.0523 9.5 12.5V11.5C9.5 10.9477 9.94772 10.5 10.5 10.5H20.5ZM5 3C6.10457 3 7 3.89543 7 5C7 6.10457 6.10457 7 5 7C3.89543 7 3 6.10457 3 5C3 3.89543 3.89543 3 5 3ZM10.5 3.5H20.5C21.0523 3.5 21.5 3.94772 21.5 4.5V5.5C21.5 6.05228 21.0523 6.5 20.5 6.5H10.5C9.94772 6.5 9.5 6.05228 9.5 5.5V4.5C9.5 3.94772 9.94772 3.5 10.5 3.5Z" fill="black"/>
</g>
</svg>
