<svg width="24" height="24" viewBox="0 0 24 24" fill="none" xmlns="http://www.w3.org/2000/svg">
<g id="n-icon-refresh-alt">
<path id="Combined Shape" fill-rule="evenodd" clip-rule="evenodd" d="M5 4.5C5 4.22386 5.22386 4 5.5 4H8.5H9.5C9.77614 4 10 4.22386 10 4.5V5.5V8.5C10 8.77614 9.77614 9 9.5 9H8.5C8.22386 9 8 8.77614 8 8.5V7.52779C6.7725 8.62643 6 10.223 6 12C6 14.973 8.16229 17.441 11 17.917V19.9381C7.05369 19.446 4 16.0796 4 12C4 9.61061 5.04751 7.46589 6.70835 6H5.5C5.22386 6 5 5.77614 5 5.5V4.5ZM13 4.06189V6.08296C15.8377 6.55904 18 9.027 18 12C18 13.777 17.2275 15.3736 16 16.4722V15.5C16 15.2239 15.7761 15 15.5 15H14.5C14.2239 15 14 15.2239 14 15.5V18.5V19.5C14 19.7761 14.2239 20 14.5 20H15.5H18.5C18.7761 20 19 19.7761 19 19.5V18.5C19 18.2239 18.7761 18 18.5 18H17.2916C18.9525 16.5341 20 14.3894 20 12C20 7.92038 16.9463 4.55399 13 4.06189Z" fill="black"/>
</g>
</svg>
