<svg width="24" height="24" viewBox="0 0 24 24" fill="none" xmlns="http://www.w3.org/2000/svg">
<g id="n-icon-job">
<path id="Combined Shape" fill-rule="evenodd" clip-rule="evenodd" d="M13 3C14.6569 3 16 4.34315 16 6H19C20.1046 6 21 6.89543 21 8V19C21 20.1046 20.1046 21 19 21H5C3.89543 21 3 20.1046 3 19V8C3 6.89543 3.89543 6 5 6H8C8 4.34315 9.34315 3 11 3H13ZM5 11.9262V19H19V11.9262C17.7589 12.9245 16.0176 13.6019 14 13.8705V14C14 14.5523 13.5523 15 13 15H11C10.4477 15 10 14.5523 10 14V13.8705C7.98235 13.6019 6.24115 12.9245 5 11.9262ZM19 8H5C5 10.2545 7.90357 12 12 12C16.0964 12 19 10.2545 19 8ZM13 5C13.5523 5 14 5.44772 14 6H10C10 5.44772 10.4477 5 11 5H13Z" fill="black"/>
</g>
</svg>
