<svg width="24" height="24" viewBox="0 0 24 24" fill="none" xmlns="http://www.w3.org/2000/svg">
<g id="n-icon-funnel-steps">
<path id="Rectangle 25 (Stroke)" fill-rule="evenodd" clip-rule="evenodd" d="M17.5585 5H4.77485L6.68655 10.7351C6.96023 11.5562 6.96024 12.4438 6.68655 13.2649L4.77485 19H17.5585L19.8918 12L17.5585 5ZM4.77485 3C3.40973 3 2.44579 4.33739 2.87748 5.63245L4.78918 11.3675C4.92602 11.7781 4.92602 12.2219 4.78918 12.6325L2.87748 18.3675C2.4458 19.6626 3.40973 21 4.77485 21H17.5585C18.4193 21 19.1836 20.4491 19.4558 19.6325L21.7892 12.6325C21.926 12.2219 21.926 11.7781 21.7892 11.3675L19.4558 4.36754C19.1836 3.55086 18.4193 3 17.5585 3H4.77485Z" fill="black"/>
</g>
</svg>
