<svg width="24" height="24" viewBox="0 0 24 24" fill="none" xmlns="http://www.w3.org/2000/svg">
<g id="n-icon-history-clock">
<g id="n-icon">
<g id="Union">
<path d="M3.05492 13C3.55236 17.5 7.36743 21 12 21C16.9706 21 21 16.9706 21 12C21 7.02944 16.9706 3 12 3C8.87957 3 6.13006 4.58803 4.51554 7L6.5 7C6.77614 7 7 7.22386 7 7.5V8.5C7 8.77614 6.77614 9 6.5 9H1.5C1.22386 9 1 8.77614 1 8.5V3.5C1 3.22386 1.22386 3 1.5 3H2.5C2.77614 3 3 3.22386 3 3.5L3 5.67382C4.99074 2.84689 8.27968 1 12 1C18.0751 1 23 5.92487 23 12C23 18.0751 18.0751 23 12 23C6.26194 23 1.55006 18.6065 1.04483 13H3.05492Z" fill="black"/>
<path d="M12 10C11.2597 10 10.6134 10.4022 10.2676 11H7.5C7.22386 11 7 11.2239 7 11.5V12.5C7 12.7761 7.22386 13 7.5 13H10.2676C10.6134 13.5978 11.2597 14 12 14C13.1046 14 14 13.1046 14 12C14 11.7412 13.9509 11.494 13.8614 11.267L16.7106 8.41775C16.9059 8.22249 16.9059 7.9059 16.7106 7.71064L16.3536 7.35355C16.1583 7.15829 15.8417 7.15829 15.6464 7.35355L12.8232 10.1768C12.5722 10.0632 12.2935 10 12 10Z" fill="black"/>
</g>
</g>
</g>
</svg>
