<svg width="24" height="24" viewBox="0 0 24 24" fill="none" xmlns="http://www.w3.org/2000/svg">
<path d="M22 9.5C22 9.77614 21.7761 10 21.5 10H20.5C20.2239 10 20 9.77614 20 9.5V4L14.5 4C14.2239 4 14 3.77614 14 3.5L14 2.5C14 2.22386 14.2239 2 14.5 2H21.5C21.7761 2 22 2.22386 22 2.5V9.5Z" fill="black"/>
<path d="M2 14.5C2 14.2239 2.22386 14 2.5 14H3.5C3.77614 14 4 14.2239 4 14.5V20H9.5C9.77614 20 10 20.2239 10 20.5V21.5C10 21.7761 9.77614 22 9.5 22H2.5C2.22386 22 2 21.7761 2 21.5V14.5Z" fill="black"/>
</svg>
