<svg width="24" height="24" viewBox="0 0 24 24" fill="none" xmlns="http://www.w3.org/2000/svg">
<g id="n-icon-alert-alt">
<path id="Shape" fill-rule="evenodd" clip-rule="evenodd" d="M13.7308 4.99045C13.5558 4.68802 13.3045 4.43675 13.0021 4.26167C12.0461 3.70824 10.8226 4.03452 10.2691 4.99045L2.73803 17.9987C2.56173 18.3033 2.46889 18.6489 2.46889 19.0008C2.46889 20.1054 3.36432 21.0008 4.46889 21.0008H19.5311C19.883 21.0008 20.2286 20.908 20.5332 20.7316C21.4891 20.1782 21.8154 18.9546 21.262 17.9987L13.7308 4.99045ZM4.46889 19.0008L12 5.99252L19.5311 19.0008H4.46889ZM12 16.0008C12.5523 16.0008 13 16.4485 13 17.0008C13 17.5531 12.5523 18.0008 12 18.0008C11.4477 18.0008 11 17.5531 11 17.0008C11 16.4485 11.4477 16.0008 12 16.0008ZM13 10.5008C13 10.2246 12.7761 10.0008 12.5 10.0008H11.5C11.2239 10.0008 11 10.2246 11 10.5008V14.0008C11 14.2769 11.2239 14.5008 11.5 14.5008H12.5C12.7761 14.5008 13 14.2769 13 14.0008V10.5008Z" fill="black"/>
</g>
</svg>
