<svg width="24" height="24" viewBox="0 0 24 24" fill="none" xmlns="http://www.w3.org/2000/svg">
<g id="n-icon-list">
<path id="Shape" fill-rule="evenodd" clip-rule="evenodd" d="M20 2.5C20 2.22386 19.7761 2 19.5 2H4.5C4.22386 2 4 2.22386 4 2.5V21.5C4 21.7761 4.22386 22 4.5 22H19.5C19.7761 22 20 21.7761 20 21.5V2.5ZM6 4H18V20H6V4ZM9.5 15C9.77614 15 10 15.2239 10 15.5V16.5C10 16.7761 9.77614 17 9.5 17H8.5C8.22386 17 8 16.7761 8 16.5V15.5C8 15.2239 8.22386 15 8.5 15H9.5ZM16 15.5C16 15.2239 15.7761 15 15.5 15H11.5C11.2239 15 11 15.2239 11 15.5V16.5C11 16.7761 11.2239 17 11.5 17H15.5C15.7761 17 16 16.7761 16 16.5V15.5ZM9.5 11C9.77614 11 10 11.2239 10 11.5V12.5C10 12.7761 9.77614 13 9.5 13H8.5C8.22386 13 8 12.7761 8 12.5V11.5C8 11.2239 8.22386 11 8.5 11H9.5ZM16 11.5C16 11.2239 15.7761 11 15.5 11H11.5C11.2239 11 11 11.2239 11 11.5V12.5C11 12.7761 11.2239 13 11.5 13H15.5C15.7761 13 16 12.7761 16 12.5V11.5ZM15.5 7C15.7761 7 16 7.22386 16 7.5V8.5C16 8.77614 15.7761 9 15.5 9H11.5C11.2239 9 11 8.77614 11 8.5V7.5C11 7.22386 11.2239 7 11.5 7H15.5ZM10 7.5C10 7.22386 9.77614 7 9.5 7H8.5C8.22386 7 8 7.22386 8 7.5V8.5C8 8.77614 8.22386 9 8.5 9H9.5C9.77614 9 10 8.77614 10 8.5V7.5Z" fill="black"/>
</g>
</svg>
