<svg width="24" height="24" viewBox="0 0 24 24" fill="none" xmlns="http://www.w3.org/2000/svg">
<g id="n-icon-unlocked">
<path id="Shape" fill-rule="evenodd" clip-rule="evenodd" d="M12 2C15.3137 2 18 4.68629 18 8V11C19.1046 11 20 11.8954 20 13V20C20 21.1046 19.1046 22 18 22H6C4.89543 22 4 21.1046 4 20V13C4 11.8954 4.89543 11 6 11H16V8C16 5.79086 14.2091 4 12 4C9.79086 4 8 5.79086 8 8V9H6V8C6 4.68629 8.68629 2 12 2ZM6 13V20H18V13H6ZM13 16C13 15.4477 12.5523 15 12 15C11.4477 15 11 15.4477 11 16V17C11 17.5523 11.4477 18 12 18C12.5523 18 13 17.5523 13 17V16Z" fill="black"/>
</g>
</svg>
