<svg width="24" height="24" viewBox="0 0 24 24" fill="none" xmlns="http://www.w3.org/2000/svg">
<g id="n-icon-loop">
<path id="Union" d="M7 6C8.35065 6 9.59707 6.44629 10.5998 7.19944C10.1957 7.73732 9.85788 8.32779 9.59835 8.95875C8.89936 8.36099 7.99184 8 7 8C4.79086 8 3 9.79086 3 12C3 14.2091 4.79086 16 7 16C9.20914 16 11 14.2091 11 12C11 8.68629 13.6863 6 17 6C20.3137 6 23 8.68629 23 12C23 15.3137 20.3137 18 17 18C15.6493 18 14.4029 17.5537 13.4002 16.8006C13.8043 16.2627 14.1421 15.6722 14.4017 15.0412C15.1006 15.639 16.0082 16 17 16C19.2091 16 21 14.2091 21 12C21 9.79086 19.2091 8 17 8C14.7909 8 13 9.79086 13 12C13 15.3137 10.3137 18 7 18C3.68629 18 1 15.3137 1 12C1 8.68629 3.68629 6 7 6Z" fill="black"/>
</g>
</svg>
