<svg width="24" height="24" viewBox="0 0 24 24" fill="none" xmlns="http://www.w3.org/2000/svg">
<g id="n-icon-tasks">
<path id="Shape" fill-rule="evenodd" clip-rule="evenodd" d="M12 2C17.5228 2 22 6.47715 22 12C22 17.5228 17.5228 22 12 22C6.47715 22 2 17.5228 2 12C2 6.47715 6.47715 2 12 2ZM12 4C7.58172 4 4 7.58172 4 12C4 16.4183 7.58172 20 12 20C16.4183 20 20 16.4183 20 12C20 7.58172 16.4183 4 12 4ZM16.5459 9.18198L15.8388 8.47487C15.6436 8.27961 15.327 8.27961 15.1317 8.47487L10.5362 13.0704L8.76777 11.3033C8.5725 11.108 8.25592 11.108 8.06066 11.3033L7.35355 12.0104C7.15829 12.2057 7.15829 12.5223 7.35355 12.7175L10.182 15.5459L10.2512 15.6038C10.4461 15.7388 10.7155 15.7195 10.8891 15.5459L16.5459 9.88909C16.7412 9.69383 16.7412 9.37724 16.5459 9.18198Z" fill="black"/>
</g>
</svg>
