<svg width="24" height="24" viewBox="0 0 24 24" fill="none" xmlns="http://www.w3.org/2000/svg">
<g id="n-icon-large-fire">
<g id="n-icon-fire">
<path id="Subtract" fill-rule="evenodd" clip-rule="evenodd" d="M13.0268 2C13.0874 2 13.1478 2.00098 13.2079 2.00293C12.4856 2.66599 12.0302 3.63495 12.0302 4.71426C12.0302 6.71299 13.5919 8.33327 15.5185 8.33327C17.1451 8.33327 18.5117 7.17814 18.8977 5.6154C20.2097 7.55614 21 10.0395 21 12.4499C21 17 18 21 12 21C5.05369 21 2.58339 14.4725 3.06041 10.1423C3.1204 9.59777 3.2 9.10179 3.29289 8.65112C3.89451 5.73237 5.05369 4.71426 5.05369 4.71426C5.05369 4.71426 5.38413 6.15571 6.04546 7.59124C7.39056 4.40383 9.97849 2 13.0268 2ZM9.5386 15.5713C10.9147 15.5713 12.0302 14.3561 12.0302 12.857C12.0302 12.1836 11.8051 11.5674 11.4323 11.093C11.6273 11.0631 11.827 11.0475 12.0302 11.0475C14.2319 11.0475 16.0168 12.8704 16.0168 15.1189C16.0168 17.3675 14.2319 19.1903 12.0302 19.1903C9.82848 19.1903 8.04363 17.3675 8.04363 15.1189C8.04363 15.089 8.04395 15.0592 8.04458 15.0294C8.46084 15.3697 8.97811 15.5713 9.5386 15.5713Z" fill="black"/>
</g>
</g>
</svg>
