<svg width="24" height="24" viewBox="0 0 24 24" fill="none" xmlns="http://www.w3.org/2000/svg">
<g id="n-icon-call-task">
<g id="Vector">
<path fill-rule="evenodd" clip-rule="evenodd" d="M16.5 12C18.9853 12 21 9.98528 21 7.5C21 5.01472 18.9853 3 16.5 3C14.0147 3 12 5.01472 12 7.5C12 9.98528 14.0147 12 16.5 12ZM16 4.8C16 4.63431 16.1343 4.5 16.3 4.5H16.7C16.8657 4.5 17 4.63431 17 4.8V7.5H18.7C18.8657 7.5 19 7.63431 19 7.8V8.2C19 8.36569 18.8657 8.5 18.7 8.5H16.5C16.2239 8.5 16 8.27614 16 8V4.8Z" fill="black"/>
<path d="M18.12 16.0044C17.0267 16.0044 15.9689 15.8267 14.9822 15.5067C14.6711 15.4 14.3244 15.48 14.0844 15.72L12.6889 17.4711C10.1733 16.2711 7.81778 14.0044 6.56444 11.4L8.29778 9.92444C8.53778 9.67556 8.60889 9.32889 8.51111 9.01778C8.18222 8.03111 8.01333 6.97333 8.01333 5.88C8.01333 5.4 7.61333 5 7.13333 5H4.05778C3.57778 5 3 5.21333 3 5.88C3 14.1378 9.87111 21 18.12 21C18.7511 21 19 20.44 19 19.9511V16.8844C19 16.4044 18.6 16.0044 18.12 16.0044Z" fill="black"/>
</g>
</g>
</svg>
