<svg width="48" height="48" viewBox="0 0 48 48" fill="none" xmlns="http://www.w3.org/2000/svg">
<path fill-rule="evenodd" clip-rule="evenodd" d="M30.2497 30.0939C31.0495 29.3106 31.5482 28.4992 31.704 27.7038C31.8651 26.8812 31.6466 26.0801 31.0424 25.5477C29.839 24.4873 28.0069 25.0366 26.8756 26.4211C25.9336 27.5739 25.6906 28.9654 26.0349 30.1789C25.7738 30.2449 25.5078 30.296 25.2398 30.3309C23.8496 30.5118 22.5363 30.2428 21.6166 29.5225L20.3834 31.0971C21.8387 32.2368 23.7381 32.5431 25.4979 32.3141C26.0425 32.2433 26.5863 32.1198 27.1142 31.9473C28.2138 32.9716 29.9112 33.3357 31.7947 32.644C32.8773 32.2464 33.7104 31.6865 34.3957 31.1619C34.6625 30.9577 34.8886 30.7752 35.0928 30.6104C35.454 30.3188 35.7464 30.0828 36.073 29.8808C36.5124 29.609 36.8625 29.5068 37.2722 29.5575C37.7261 29.6136 38.3898 29.8747 39.3941 30.6396L40.6059 29.0485C39.4727 28.1854 38.4739 27.6908 37.5176 27.5726C36.5172 27.4489 35.7095 27.7539 35.0208 28.1799C34.59 28.4464 34.1329 28.814 33.708 29.1557C33.5244 29.3033 33.3469 29.4461 33.1801 29.5738C32.574 30.0377 31.9227 30.4664 31.1053 30.7666C30.3483 31.0445 29.7288 31.0528 29.2454 30.9114C29.6066 30.6665 29.9439 30.3934 30.2497 30.0939ZM28.4244 27.6865C27.9672 28.2461 27.8269 28.8568 27.9081 29.3948C28.2572 29.1795 28.5752 28.9345 28.8503 28.6651C29.4755 28.0527 29.6893 27.585 29.7413 27.3194C29.7663 27.1918 29.7531 27.1201 29.7443 27.0909C29.7362 27.0639 29.7269 27.0542 29.7201 27.0482C29.7089 27.0383 29.609 26.9658 29.3665 27.0198C29.1311 27.0722 28.7823 27.2485 28.4244 27.6865Z" fill="black"/>
<path d="M16.5144 15C16.8004 15 17.0322 15.2238 17.0323 15.4999L17.0326 16.5531C18.7245 16.847 19.7942 17.9148 19.8301 19.3838H18.0885C18.0035 18.4609 17.2035 17.9072 16.0354 17.9072C14.8814 17.9072 14.1027 18.4541 14.1027 19.2744C14.1027 19.9307 14.6195 20.3135 15.8726 20.6006L17.0478 20.8604C19.1221 21.3184 20 22.1455 20 23.6152C20 25.2036 18.8799 26.2906 17.0326 26.5843L17.0323 27.5002C17.0322 27.7763 16.8004 28 16.5145 28H15.4784C15.1925 28 14.9607 27.7763 14.9605 27.5003L14.9601 26.5882C13.1867 26.3079 12.0661 25.2671 12 23.7246H13.7699C13.8832 24.6338 14.8248 25.2285 16.0708 25.2285C17.3027 25.2285 18.1593 24.6406 18.1593 23.8203C18.1593 23.1094 17.6354 22.6992 16.3469 22.4053L15.023 22.1045C13.1398 21.6875 12.2478 20.8125 12.2478 19.4043C12.2478 17.9566 13.3282 16.8973 14.9599 16.5744L14.9605 15.4997C14.9607 15.2237 15.1925 15 15.4783 15H16.5144Z" fill="black"/>
<path d="M24 14H38V16H24V14Z" fill="black"/>
<path d="M34 18H24V20H34V18Z" fill="black"/>
<path fill-rule="evenodd" clip-rule="evenodd" d="M2 39H46V8H2V39ZM4 10H6V37H4V10ZM44 10H8V37H44V10Z" fill="black"/>
</svg>
