<svg width="24" height="24" viewBox="0 0 24 24" fill="none" xmlns="http://www.w3.org/2000/svg">
<g id="n-icon-product-add-alt">
<path id="Shape" fill-rule="evenodd" clip-rule="evenodd" d="M9.61803 2L10.618 4H20.3596C21.188 4 21.8596 4.67157 21.8596 5.5C21.8596 5.58176 21.8529 5.66332 21.8397 5.74386L21.8148 5.8638L19.7808 14H11C10.4477 14 10 14.4477 10 15C10 15.5128 10.386 15.9355 10.8834 15.9933L11 16H19.5C19.7455 16 19.9496 16.1769 19.9919 16.4101L20 16.5V17.5C20 17.7455 19.8231 17.9496 19.5899 17.9919L19.5 18H11C9.34315 18 8 16.6569 8 15C8 13.4023 9.24892 12.0963 10.8237 12.0051L11 12H18.2192L19.7192 6H9.38197L8.38197 4H6.5C6.25454 4 6.05039 3.82312 6.00806 3.58988L6 3.5V2.5C6 2.25454 6.17688 2.05039 6.41012 2.00806L6.5 2H9.61803ZM11 20.5C11 19.6716 10.3284 19 9.5 19C8.67157 19 8 19.6716 8 20.5C8 21.3284 8.67157 22 9.5 22C10.3284 22 11 21.3284 11 20.5ZM20 20.5C20 19.6716 19.3284 19 18.5 19C17.6716 19 17 19.6716 17 20.5C17 21.3284 17.6716 22 18.5 22C19.3284 22 20 21.3284 20 20.5ZM6 6.5C6 6.22386 5.77614 6 5.5 6H4.5C4.22386 6 4 6.22386 4 6.5V8H2.5C2.22386 8 2 8.22386 2 8.5V9.5C2 9.77614 2.22386 10 2.5 10H4V11.5C4 11.7761 4.22386 12 4.5 12H5.5C5.77614 12 6 11.7761 6 11.5V10H7.5C7.77614 10 8 9.77614 8 9.5V8.5C8 8.22386 7.77614 8 7.5 8H6V6.5Z" fill="black"/>
</g>
</svg>
