<svg width="24" height="24" viewBox="0 0 24 24" fill="none" xmlns="http://www.w3.org/2000/svg">
<g id="n-icon-repeat">
<g id="n-icon-flip">
<g id="Union">
<path d="M17.8891 4.64634C18.0844 4.8416 18.0844 5.15818 17.8891 5.35344L14.3536 8.88898C14.1583 9.08424 13.8417 9.08424 13.6465 8.88898L12.9394 8.18187C12.7441 7.98661 12.7441 7.67002 12.9394 7.47476L14.3999 6.01312C14.2677 6.00442 14.1344 6 14 6H10C6.68629 6 4 8.68629 4 12C4 13.3141 4.42246 14.5295 5.13897 15.5179L3.71134 16.9455C2.63948 15.5844 2 13.8669 2 12C2 7.58172 5.58172 4 10 4H14C14.1426 4 14.2842 4.00373 14.425 4.01109L12.9394 2.52502C12.7441 2.32975 12.7441 2.01317 12.9394 1.81791L13.6465 1.1108C13.8417 0.91554 14.1583 0.91554 14.3536 1.1108L17.8891 4.64634Z" fill="black"/>
<path d="M9.64646 15.1108C9.84172 14.9155 10.1583 14.9155 10.3536 15.1108L11.0607 15.8179C11.2559 16.0132 11.2559 16.3298 11.0607 16.525L9.59841 17.9868C9.73114 17.9955 9.86505 18 10 18H14C17.3137 18 20 15.3137 20 12C20 10.6783 19.5727 9.45649 18.8486 8.46508L20.2757 7.03804C21.3554 8.40172 22 10.1256 22 12C22 16.4183 18.4183 20 14 20H10C9.85741 20 9.71569 19.9963 9.57494 19.9889L11.0607 21.4748C11.2559 21.67 11.2559 21.9866 11.0607 22.1819L10.3536 22.889C10.1583 23.0842 9.84172 23.0842 9.64646 22.889L6.11092 19.3534C5.91566 19.1582 5.91566 18.8416 6.11092 18.6463L9.64646 15.1108Z" fill="black"/>
</g>
</g>
</g>
</svg>
