<svg width="24" height="24" viewBox="0 0 24 24" fill="none" xmlns="http://www.w3.org/2000/svg">
<g id="n-icon-themes">
<path id="Shape" fill-rule="evenodd" clip-rule="evenodd" d="M9.5 2C12.83 2 15.653 4.17015 16.6321 7.17331L16.6789 7.3214C19.7584 8.25487 22 11.1157 22 14.5C22 18.6421 18.6421 22 14.5 22C11.1157 22 8.25487 19.7584 7.3214 16.6789C4.24163 15.7451 2 12.8843 2 9.5C2 5.35786 5.35786 2 9.5 2ZM14.5 9C11.4624 9 9 11.4624 9 14.5C9 14.6607 9.00684 14.8203 9.0204 14.9785L9.14174 14.9884L9.26329 14.995L9.5 15C12.5376 15 15 12.5376 15 9.5L14.9952 9.26835L14.9794 9.02051L14.7407 9.00514L14.5 9ZM4 9.5C4 6.46243 6.46243 4 9.5 4C11.638 4 13.4911 5.21991 14.3999 7.00065C10.337 7.05381 7.05341 10.3376 7.00065 14.4006C5.21946 13.4904 4 11.6376 4 9.5ZM7.00065 14.4006C7.00022 14.4337 7 14.4668 7 14.5L7.00163 14.4011L7.00065 14.4006Z" fill="black"/>
</g>
</svg>
