<svg width="48" height="48" viewBox="0 0 48 48" fill="none" xmlns="http://www.w3.org/2000/svg">
<path d="M26.9001 20.5999C26.9001 20.3514 26.6986 20.15 26.4501 20.15H25.5497C25.3013 20.15 25.0999 20.3513 25.0997 20.5997L25.0992 21.567C23.6812 21.8575 22.7423 22.811 22.7423 24.1139C22.7423 25.3812 23.5175 26.1687 25.1541 26.544L26.3045 26.8147C27.4243 27.0793 27.8795 27.4484 27.8795 28.0883C27.8795 28.8266 27.1351 29.3557 26.0646 29.3557C24.9818 29.3557 24.1635 28.8204 24.0651 28.0021H22.527C22.5844 29.3904 23.5583 30.3271 25.0994 30.5793L25.0998 31.4002C25.0999 31.6487 25.3013 31.85 25.5498 31.85H26.4502C26.6986 31.85 26.9001 31.6486 26.9002 31.4002L26.9005 30.5758C28.5058 30.3115 29.4791 29.3333 29.4791 27.9037C29.4791 26.581 28.7163 25.8365 26.9136 25.4243L25.8923 25.1905C24.8034 24.9321 24.3542 24.5876 24.3542 23.997C24.3542 23.2587 25.031 22.7665 26.0338 22.7665C27.049 22.7665 27.7442 23.2648 27.818 24.0954H29.3315C29.3003 22.7733 28.3707 21.8123 26.9004 21.5477L26.9001 20.5999Z" fill="black"/>
<path fill-rule="evenodd" clip-rule="evenodd" d="M26 17C28.3869 17 30.6761 17.9482 32.364 19.636C34.0518 21.3239 35 23.6131 35 26C35 30.9706 30.9706 35 26 35C21.0294 35 17 30.9706 17 26C17 21.0294 21.0294 17 26 17ZM26 18.8C22.0236 18.8 18.8 22.0236 18.8 26C18.8 29.9764 22.0236 33.2 26 33.2C29.9764 33.2 33.2 29.9764 33.2 26C33.2 24.0904 32.4414 22.2591 31.0912 20.9088C29.7409 19.5586 27.9096 18.8 26 18.8Z" fill="black"/>
<path d="M36 32H42V34H36V32Z" fill="black"/>
<path d="M16 18H10V20H16V18Z" fill="black"/>
<path d="M40 28H42V30H40V28Z" fill="black"/>
<path d="M12 22H10V24H12V22Z" fill="black"/>
<path fill-rule="evenodd" clip-rule="evenodd" d="M46 14H42V10H2V34H6V38H46V14ZM4 12H40V14H6V32H4V12ZM44 16H8V36H44V16Z" fill="black"/>
</svg>
