<svg width="24" height="24" viewBox="0 0 24 24" fill="none" xmlns="http://www.w3.org/2000/svg">
<g id="n-icon-web-browser">
<g id="n-icon">
<path id="Subtract" fill-rule="evenodd" clip-rule="evenodd" d="M2 4C2 2.89543 2.89543 2 4 2H20C21.1046 2 22 2.89543 22 4V19C22 20.1046 21.1046 21 20 21H4C2.89543 21 2 20.1046 2 19V4ZM4 19V8H20V19H4ZM4 4.5C4 4.22386 4.22386 4 4.5 4H15.5C15.7761 4 16 4.22386 16 4.5V5.5C16 5.77614 15.7761 6 15.5 6H4.5C4.22386 6 4 5.77614 4 5.5V4.5ZM19 4C18.4477 4 18 4.44772 18 5C18 5.55228 18.4477 6 19 6C19.5523 6 20 5.55228 20 5C20 4.44772 19.5523 4 19 4Z" fill="black"/>
</g>
</g>
</svg>
