<svg width="24" height="24" viewBox="0 0 24 24" fill="none" xmlns="http://www.w3.org/2000/svg">
<g id="n-icon-share-alt">
<path id="Union" fill-rule="evenodd" clip-rule="evenodd" d="M10.5 3C10.7761 3 11 3.22386 11 3.5V4.5C11 4.77614 10.7761 5 10.5 5H6C5.44772 5 5 5.44772 5 6V18C5 18.5523 5.44772 19 6 19H18C18.5523 19 19 18.5523 19 18V13.5C19 13.2239 19.2239 13 19.5 13H20.5C20.7761 13 21 13.2239 21 13.5V18C21 19.6569 19.6569 21 18 21H6C4.34315 21 3 19.6569 3 18V6C3 4.34315 4.34315 3 6 3H10.5ZM21 9.5C21 9.77614 20.7761 10 20.5 10H19.5C19.2239 10 19 9.77614 19 9.5V6.4143L12.7071 12.7072L11.2929 11.293L17.5859 5H14.5C14.2239 5 14 4.77614 14 4.5V3.5C14 3.22386 14.2239 3 14.5 3H20.5C20.7761 3 21 3.22386 21 3.5V9.5Z" fill="black"/>
</g>
</svg>
