<svg width="24" height="24" viewBox="0 0 24 24" fill="none" xmlns="http://www.w3.org/2000/svg">
<g id="n-icon-tag">
<g id="Vector">
<path fill-rule="evenodd" clip-rule="evenodd" d="M16 10C14.8954 10 14 10.8954 14 12C14 13.1046 14.8954 14 16 14C17.1046 14 18 13.1046 18 12C18 10.8954 17.1046 10 16 10Z" fill="black"/>
<path fill-rule="evenodd" clip-rule="evenodd" d="M18.5875 4.94C18.222 4.35524 17.5811 4 16.8915 4H5C3.89543 4 3 4.89543 3 6V18C3 19.1046 3.89543 20 5 20H16.8915C17.5811 20 18.222 19.6448 18.5875 19.06L22.3375 13.06C22.7428 12.4115 22.7428 11.5885 22.3375 10.94L18.5875 4.94ZM5 18V6H16.8915L20.6415 12L16.8915 18H5Z" fill="black"/>
</g>
</g>
</svg>
