<svg width="24" height="24" viewBox="0 0 24 24" fill="none" xmlns="http://www.w3.org/2000/svg">
<path d="M14 2.5C14 2.22386 14.2239 2 14.5 2H15.5C15.7761 2 16 2.22386 16 2.5V8H21.5C21.7761 8 22 8.22386 22 8.5V9.5C22 9.77614 21.7761 10 21.5 10H14.5C14.2239 10 14 9.77614 14 9.5V2.5Z" fill="black"/>
<path d="M2.5 16L8 16L8 21.5C8 21.7761 8.22386 22 8.5 22H9.5C9.77614 22 10 21.7761 10 21.5V14.5C10 14.2239 9.77614 14 9.5 14L2.5 14C2.22386 14 2 14.2239 2 14.5V15.5C2 15.7761 2.22386 16 2.5 16Z" fill="black"/>
</svg>
