<svg width="24" height="24" viewBox="0 0 24 24" fill="none" xmlns="http://www.w3.org/2000/svg">
<g id="n-icon-search">
<g id="n-icon-search_2">
<path id="Combined Shape" fill-rule="evenodd" clip-rule="evenodd" d="M14.9497 5.05025C17.6834 7.78392 17.6834 12.2161 14.9497 14.9497C12.2161 17.6834 7.78392 17.6834 5.05025 14.9497C2.31658 12.2161 2.31658 7.78392 5.05025 5.05025C7.78392 2.31658 12.2161 2.31658 14.9497 5.05025ZM13.2998 6.70017C15.1223 8.52262 15.1223 11.4774 13.2998 13.2998C11.4774 15.1223 8.52261 15.1223 6.70017 13.2998C4.87772 11.4774 4.87772 8.52262 6.70017 6.70017C8.52261 4.87772 11.4774 4.87772 13.2998 6.70017Z" fill="black"/>
<path id="Rectangle" d="M15 16.4142C14.6095 16.0237 14.6095 15.3905 15 15C15.3905 14.6095 16.0237 14.6095 16.4142 15L22.0711 20.6568L20.6569 22.0711L15 16.4142Z" fill="black"/>
</g>
</g>
</svg>
