<svg width="48" height="48" viewBox="0 0 48 48" fill="none" xmlns="http://www.w3.org/2000/svg">
<path fill-rule="evenodd" clip-rule="evenodd" d="M11 7H5V47H37V41H35V45H7V9H11V7Z" fill="black"/>
<path fill-rule="evenodd" clip-rule="evenodd" d="M13 3H32.2984L41 9.96125V39H13V3ZM11 1H33L43 9V41H11V1ZM28.196 29.7092C28.042 30.5039 27.5487 31.3147 26.7577 32.0973C26.4553 32.3965 26.1217 32.6693 25.7644 32.914C26.2426 33.0552 26.8553 33.047 27.6039 32.7693C28.4123 32.4694 29.0564 32.0411 29.6558 31.5776C29.8207 31.4501 29.9963 31.3075 30.1778 31.16L30.1779 31.1599L30.178 31.1598C30.5982 30.8185 31.0503 30.4512 31.4763 30.1849C32.1575 29.7593 32.9562 29.4545 33.9457 29.5781C34.8914 29.6962 35.8793 30.1905 37 31.0528L35.8015 32.6425C34.8083 31.8782 34.1519 31.6173 33.703 31.5613C33.2978 31.5107 32.9515 31.6127 32.5169 31.8843C32.1939 32.0862 31.9048 32.322 31.5475 32.6133C31.3456 32.7779 31.1219 32.9603 30.8581 33.1643C30.1803 33.6885 29.3564 34.2479 28.2858 34.6451C26.4229 35.3361 24.7442 34.9724 23.6568 33.949C23.1346 34.1214 22.5968 34.2447 22.0582 34.3155C20.3177 34.5443 18.4393 34.2383 17 33.0995L18.2196 31.5263C19.1292 32.246 20.428 32.5147 21.803 32.334C22.068 32.2991 22.3311 32.2481 22.5893 32.1822C22.2488 30.9697 22.4892 29.5795 23.4208 28.4276C24.5396 27.0444 26.3516 26.4956 27.5417 27.555C28.1393 28.0869 28.3554 28.8874 28.196 29.7092ZM24.4418 31.3988C24.3616 30.8612 24.5003 30.251 24.9525 29.692C25.3064 29.2543 25.6514 29.0782 25.8842 29.0258C26.124 28.9719 26.2228 29.0443 26.234 29.0542C26.2407 29.0602 26.2499 29.0699 26.2579 29.0968C26.2665 29.126 26.2796 29.1977 26.2549 29.3251C26.2035 29.5906 25.9921 30.0579 25.3737 30.6696C25.1017 30.9388 24.7872 31.1837 24.4418 31.3988ZM17 15H37V17H17V15ZM33 21V19H17V21H33ZM25 7H17V9H25V7Z" fill="black"/>
</svg>
