<svg width="24" height="24" viewBox="0 0 24 24" fill="none" xmlns="http://www.w3.org/2000/svg">
<g id="n-icon-qtd">
<path id="Shape" fill-rule="evenodd" clip-rule="evenodd" d="M22 12C22 6.47715 17.5228 2 12 2C6.47715 2 2 6.47715 2 12C2 17.5228 6.47715 22 12 22C17.5228 22 22 17.5228 22 12ZM4 12C4 7.58172 7.58172 4 12 4C16.4183 4 20 7.58172 20 12C20 16.4183 16.4183 20 12 20C7.58172 20 4 16.4183 4 12ZM14.5 15C14.7761 15 15 15.2239 15 15.5V16.5C15 16.7761 14.7761 17 14.5 17H9.5C9.22386 17 9 16.7761 9 16.5V15.5C9 15.2239 9.22386 15 9.5 15H14.5ZM13 6.5C13 6.22386 12.7761 6 12.5 6H11.5C11.2239 6 11 6.22386 11 6.5V8H9.5C9.22386 8 9 8.22386 9 8.5V9.5C9 9.77614 9.22386 10 9.5 10H11V11.5C11 11.7761 11.2239 12 11.5 12H12.5C12.7761 12 13 11.7761 13 11.5V10H14.5C14.7761 10 15 9.77614 15 9.5V8.5C15 8.22386 14.7761 8 14.5 8H13V6.5Z" fill="black"/>
</g>
</svg>
