<svg width="24" height="24" viewBox="0 0 24 24" fill="none" xmlns="http://www.w3.org/2000/svg">
<g id="n-icon-search">
<path id="Shape" fill-rule="evenodd" clip-rule="evenodd" d="M17.3777 15.4079L21.7865 19.8167C22.0712 20.1015 22.0712 20.5631 21.7865 20.8478L20.8478 21.7865C20.5631 22.0712 20.1015 22.0712 19.8167 21.7865L15.4079 17.3777C14.864 16.8337 14.864 15.9519 15.4079 15.4079C15.9519 14.864 16.8337 14.864 17.3777 15.4079ZM14.8033 4.1967C17.7322 7.12563 17.7322 11.8744 14.8033 14.8033C11.8744 17.7322 7.12563 17.7322 4.1967 14.8033C1.26777 11.8744 1.26777 7.12563 4.1967 4.1967C7.12563 1.26777 11.8744 1.26777 14.8033 4.1967ZM5.61091 5.61091C3.46303 7.7588 3.46303 11.2412 5.61091 13.3891C7.7588 15.537 11.2412 15.537 13.3891 13.3891C15.537 11.2412 15.537 7.7588 13.3891 5.61091C11.2412 3.46303 7.7588 3.46303 5.61091 5.61091Z" fill="black"/>
</g>
</svg>
