<svg width="24" height="24" viewBox="0 0 24 24" fill="none" xmlns="http://www.w3.org/2000/svg">
<g id="n-icon-text-justify-left">
<path id="Shape" fill-rule="evenodd" clip-rule="evenodd" d="M15.5 17C15.7761 17 16 17.2239 16 17.5V18.5C16 18.7761 15.7761 19 15.5 19H4.5C4.22386 19 4 18.7761 4 18.5V17.5C4 17.2239 4.22386 17 4.5 17H15.5ZM19.5 13C19.7761 13 20 13.2239 20 13.5V14.5C20 14.7761 19.7761 15 19.5 15H4.5C4.22386 15 4 14.7761 4 14.5V13.5C4 13.2239 4.22386 13 4.5 13H19.5ZM19.5 9C19.7761 9 20 9.22386 20 9.5V10.5C20 10.7761 19.7761 11 19.5 11H4.5C4.22386 11 4 10.7761 4 10.5V9.5C4 9.22386 4.22386 9 4.5 9H19.5ZM19.5 5C19.7761 5 20 5.22386 20 5.5V6.5C20 6.77614 19.7761 7 19.5 7H4.5C4.22386 7 4 6.77614 4 6.5V5.5C4 5.22386 4.22386 5 4.5 5H19.5Z" fill="black"/>
</g>
</svg>
