<svg width="24" height="24" viewBox="0 0 24 24" fill="none" xmlns="http://www.w3.org/2000/svg">
<g id="n-icon-mute-alt">
<path id="Shape" fill-rule="evenodd" clip-rule="evenodd" d="M5.21324 3.81039L5.28249 3.86825L20.1317 18.7175C20.3053 18.8911 20.3246 19.1605 20.1896 19.3553L20.1317 19.4246L19.4246 20.1317C19.2511 20.3053 18.9816 20.3246 18.7868 20.1896L18.7175 20.1317L17.3201 18.7344C16.3393 19.3649 15.2117 19.787 14 19.9381L14.0003 17.917C14.6639 17.8056 15.2905 17.5853 15.8612 17.2751L3.86827 5.28246C3.69471 5.1089 3.67542 4.83947 3.81042 4.6446L3.86827 4.57536L4.57538 3.86825C4.74895 3.69468 5.01837 3.6754 5.21324 3.81039ZM6.26559 7.67987L12 13.4139L12 19.9381C9.4636 19.6218 7.2959 18.1181 6.07077 16.0009L5 16C3.89543 16 3 15.1045 3 14V9.99998C3 8.89541 3.89543 7.99998 5 7.99998L6.07019 8.00009C6.13288 7.89172 6.19804 7.78495 6.26559 7.67987ZM14 4.06187C17.9463 4.55398 21 7.92036 21 12C21 13.3751 20.653 14.6692 20.0419 15.7995L18.543 14.3009C18.8374 13.5923 19 12.8151 19 12C19 9.0271 16.8379 6.55921 14.0003 6.08299L14 4.06187ZM14.0009 8.12623C15.7257 8.5706 17 10.1365 17 12C17 12.2375 16.9793 12.4702 16.9396 12.6964L14.0008 9.75823L14.0009 8.12623ZM12 4.06186L12 7.75886L9.19988 4.9584C10.052 4.49758 10.9972 4.18691 12 4.06186Z" fill="black"/>
</g>
</svg>
