<svg width="24" height="24" viewBox="0 0 24 24" fill="none" xmlns="http://www.w3.org/2000/svg">
<g id="n-icon-alert">
<path id="Shape" fill-rule="evenodd" clip-rule="evenodd" d="M13.0021 4.26167C13.3045 4.43675 13.5558 4.68802 13.7308 4.99045L21.262 17.9987C21.8154 18.9546 21.4891 20.1782 20.5332 20.7316C20.2286 20.908 19.883 21.0008 19.5311 21.0008H4.46889C3.36432 21.0008 2.46889 20.1054 2.46889 19.0008C2.46889 18.6489 2.56173 18.3033 2.73803 17.9987L10.2691 4.99045C10.8226 4.03452 12.0461 3.70824 13.0021 4.26167ZM12 16.0008C11.4477 16.0008 11 16.4485 11 17.0008C11 17.5531 11.4477 18.0008 12 18.0008C12.5523 18.0008 13 17.5531 13 17.0008C13 16.4485 12.5523 16.0008 12 16.0008ZM11.5 9.00079H12.5L12.5899 9.00885C12.8231 9.05118 13 9.25533 13 9.50079V13.5008L12.9919 13.5907C12.9496 13.8239 12.7455 14.0008 12.5 14.0008H11.5L11.4101 13.9927C11.1769 13.9504 11 13.7463 11 13.5008V9.50079L11.008 9.41092C11.0504 9.17767 11.2545 9.00079 11.5 9.00079Z" fill="black"/>
</g>
</svg>
