<svg width="24" height="24" viewBox="0 0 24 24" fill="none" xmlns="http://www.w3.org/2000/svg">
<g id="n-icon-timer">
<path id="Shape" fill-rule="evenodd" clip-rule="evenodd" d="M15.5 2C15.7761 2 16 2.22386 16 2.5V3.5C16 3.77614 15.7761 4 15.5 4H13L13.001 5.06201C16.8662 5.54447 19.8748 8.78433 19.9962 12.7508L20 13C20 17.4183 16.4183 21 12 21C7.66509 21 4.13546 17.5522 4.00381 13.2492L4 13H6C6 16.3137 8.68629 19 12 19C15.3137 19 18 16.3137 18 13C18 9.7616 15.4344 7.12243 12.2249 7.00414L12 7H11V4H8.5C8.22386 4 8 3.77614 8 3.5V2.5C8 2.22386 8.22386 2 8.5 2H15.5ZM8.45753 5.82509L12.2683 12.6829C12.4024 12.9243 12.3154 13.2287 12.074 13.3628C11.9361 13.4395 11.77 13.4465 11.626 13.3817L4.51111 10.1802C5.22801 8.27719 6.64947 6.71948 8.45753 5.82509Z" fill="black"/>
</g>
</svg>
