<svg width="24" height="24" viewBox="0 0 24 24" fill="none" xmlns="http://www.w3.org/2000/svg">
<g id="n-icon-clock">
<g id="n-icon">
<g id="Union">
<path d="M12 10C11.2597 10 10.6134 10.4022 10.2676 11H7.5C7.22386 11 7 11.2239 7 11.5V12.5C7 12.7761 7.22386 13 7.5 13H10.2676C10.6134 13.5978 11.2597 14 12 14C13.1046 14 14 13.1046 14 12C14 11.7412 13.9509 11.494 13.8614 11.267L16.7106 8.41775C16.9059 8.22249 16.9059 7.9059 16.7106 7.71064L16.3536 7.35355C16.1583 7.15829 15.8417 7.15829 15.6464 7.35355L12.8232 10.1768C12.5722 10.0632 12.2935 10 12 10Z" fill="black"/>
<path fill-rule="evenodd" clip-rule="evenodd" d="M1 7C1 3.68629 3.68629 1 7 1H17C20.3137 1 23 3.68629 23 7V17C23 20.3137 20.3137 23 17 23H7C3.68629 23 1 20.3137 1 17V7ZM3 7C3 4.79086 4.79086 3 7 3H17C19.2091 3 21 4.79086 21 7V17C21 19.2091 19.2091 21 17 21H7C4.79086 21 3 19.2091 3 17V7Z" fill="black"/>
</g>
</g>
</g>
</svg>
