<svg width="24" height="24" viewBox="0 0 24 24" fill="none" xmlns="http://www.w3.org/2000/svg">
<path fill-rule="evenodd" clip-rule="evenodd" d="M4 1H16L21 6V23H4V1Z" fill="url(#paint0_linear)"/>
<path fill-rule="evenodd" clip-rule="evenodd" d="M16 1L21 6H16V1ZM8 3V5H6V3H8Z" fill="#00C853"/>
<path fill-rule="evenodd" clip-rule="evenodd" d="M9 10H8V11H9V10ZM7 9V12H10V9H7Z" fill="#00C853"/>
<path opacity="0.6" fill-rule="evenodd" clip-rule="evenodd" d="M9 14H8V15H9V14ZM7 13V16H10V13H7Z" fill="#00C853"/>
<path opacity="0.6" fill-rule="evenodd" clip-rule="evenodd" d="M9 18H8V19H9V18ZM7 17V20H10V17H7Z" fill="#00C853"/>
<path fill-rule="evenodd" clip-rule="evenodd" d="M17 10H12V11H17V10ZM11 9V12H18V9H11Z" fill="#00C853"/>
<path opacity="0.6" fill-rule="evenodd" clip-rule="evenodd" d="M17 14H12V15H17V14ZM11 13V16H18V13H11Z" fill="#00C853"/>
<path opacity="0.6" fill-rule="evenodd" clip-rule="evenodd" d="M17 18H12V19H17V18ZM11 17V20H18V17H11Z" fill="#00C853"/>
<defs>
<linearGradient id="paint0_linear" x1="4" y1="1" x2="4" y2="23" gradientUnits="userSpaceOnUse">
<stop stop-color="white"/>
<stop offset="1" stop-color="#E5E5E5"/>
</linearGradient>
</defs>
</svg>
