<svg width="24" height="24" viewBox="0 0 24 24" fill="none" xmlns="http://www.w3.org/2000/svg">
<g id="n-icon-termometer">
<path id="Union" fill-rule="evenodd" clip-rule="evenodd" d="M9 11.9176L8.42848 12.5008C7.54277 13.4047 7 14.637 7 16C7 18.7614 9.23858 21 12 21C14.7614 21 17 18.7614 17 16C17 14.637 16.4572 13.4047 15.5715 12.5008L15 11.9176V6C15 4.34315 13.6569 3 12 3C10.3431 3 9 4.34315 9 6V11.9176ZM7 6C7 3.23858 9.23858 1 12 1C14.7614 1 17 3.23858 17 6V11.101C18.2372 12.3636 19 14.0927 19 16C19 19.866 15.866 23 12 23C8.13401 23 5 19.866 5 16C5 14.0927 5.76281 12.3636 7 11.101V6ZM19 5.5C19 5.22386 19.2239 5 19.5 5H21.5C21.7761 5 22 5.22386 22 5.5V6.5C22 6.77614 21.7761 7 21.5 7H19.5C19.2239 7 19 6.77614 19 6.5V5.5ZM11 7C11 6.44771 11.4477 6 12 6C12.5523 6 13 6.44772 13 7V13.1707C14.1652 13.5825 15 14.6938 15 16C15 17.6569 13.6569 19 12 19C10.3431 19 9 17.6569 9 16C9 14.6938 9.83481 13.5825 11 13.1707V7Z" fill="black"/>
</g>
</svg>
