<svg width="24" height="24" viewBox="0 0 24 24" fill="none" xmlns="http://www.w3.org/2000/svg">
<g id="n-icon-folder-open">
<path id="Shape" fill-rule="evenodd" clip-rule="evenodd" d="M8.58579 3C8.851 3 9.10536 3.10536 9.29289 3.29289L11 5H19C19.5523 5 20 5.44772 20 6V8H21.7429C22.2952 8 22.7429 8.44772 22.7429 9C22.7429 9.07568 22.7344 9.15112 22.7173 9.22486L20.1789 20.2249C20.0742 20.6786 19.6701 21 19.2045 21H2.25705C2.21341 21 2.17043 20.9972 2.12826 20.9918C2.08662 20.9972 2.04364 21 2 21C1.44772 21 1 20.5523 1 20V4C1 3.44772 1.44772 3 2 3H8.58579ZM20.4859 10H5.59103L3.5141 19H18.409L20.4859 10ZM3 5H8.17157L10.1716 7H18V8H4.79551C4.32986 8 3.92583 8.32141 3.82112 8.77514L3 12.332V5Z" fill="black"/>
</g>
</svg>
