<svg width="24" height="24" viewBox="0 0 24 24" fill="none" xmlns="http://www.w3.org/2000/svg">
<g id="n-icon-product-alt">
<path id="Shape" fill-rule="evenodd" clip-rule="evenodd" d="M17.628 14H8C7.44772 14 7 14.4477 7 15C7 15.5128 7.38604 15.9355 7.88338 15.9933L8 16H18.5C18.7455 16 18.9496 16.1769 18.9919 16.4101L19 16.5V17.5C19 17.7455 18.8231 17.9496 18.5899 17.9919L18.5 18H8C6.34315 18 5 16.6569 5 15C5 13.8824 5.61115 12.9075 6.51749 12.3913L4 4H2.5C2.25454 4 2.05039 3.82312 2.00806 3.58988L2 3.5V2.5C2 2.25454 2.17688 2.05039 2.41012 2.00806L2.5 2H5.33852C5.51376 2 5.67387 2.09145 5.76386 2.23712L5.80275 2.3143L6.477 4H20.328C20.6041 4 20.828 4.22386 20.828 4.5C20.828 4.54866 20.8209 4.59706 20.8069 4.64367L18.1069 13.6437C18.0434 13.8552 17.8488 14 17.628 14ZM9 20.5C9 19.6716 8.32843 19 7.5 19C6.67157 19 6 19.6716 6 20.5C6 21.3284 6.67157 22 7.5 22C8.32843 22 9 21.3284 9 20.5ZM19 20.5C19 19.6716 18.3284 19 17.5 19C16.6716 19 16 19.6716 16 20.5C16 21.3284 16.6716 22 17.5 22C18.3284 22 19 21.3284 19 20.5ZM6.68806 6H18.3119L16.5119 12H8.48806L6.68806 6Z" fill="black"/>
</g>
</svg>
