<svg width="500" height="88" viewBox="0 0 500 88" fill="none" xmlns="http://www.w3.org/2000/svg">
<rect y="12" width="500" height="76" fill="url(#paint0_radial)"/>
<path d="M239.247 85.1856L219.126 73.8717C215.749 71.9732 212.94 69.2149 210.985 65.879C209.03 62.5431 208 58.7496 208 54.8866V33.1134C208 29.2504 209.03 25.4569 210.985 22.121C212.94 18.7851 215.749 16.0268 219.126 14.1283L239.247 2.81438C242.529 0.969425 246.232 0 250 0C253.768 0 257.471 0.969425 260.753 2.81438L280.874 14.1283C284.251 16.0268 287.06 18.7851 289.015 22.121C290.97 25.4569 292 29.2504 292 33.1134V54.8866C292 58.7496 290.97 62.5431 289.015 65.879C287.06 69.2149 284.251 71.9732 280.874 73.8717L260.753 85.1856C257.471 87.0306 253.768 88 250 88C246.232 88 242.529 87.0306 239.247 85.1856Z" fill="#EDEEF3"/>
<path fill-rule="evenodd" clip-rule="evenodd" d="M59.9993 36.667C67.3631 36.667 73.3327 42.6365 73.3327 50.0003C73.3327 57.3641 67.3631 63.3337 59.9993 63.3337C52.6356 63.3337 46.666 57.3641 46.666 50.0003C46.666 42.6365 52.6356 36.667 59.9993 36.667ZM59.9993 39.3337C54.1083 39.3337 49.3327 44.1093 49.3327 50.0003C49.3327 55.8914 54.1083 60.667 59.9993 60.667C65.8904 60.667 70.666 55.8914 70.666 50.0003C70.666 44.1093 65.8904 39.3337 59.9993 39.3337ZM66.0606 46.243L65.1178 45.3002C64.8574 45.0398 64.4353 45.0398 64.175 45.3002L58.0477 51.4275L55.6897 49.0714C55.4294 48.811 55.0072 48.811 54.7469 49.0714L53.8041 50.0142C53.5437 50.2746 53.5437 50.6967 53.8041 50.957L57.5753 54.7282L57.6677 54.8054C57.9275 54.9854 58.2867 54.9597 58.5181 54.7282L66.0606 47.1858C66.321 46.9254 66.321 46.5033 66.0606 46.243Z" fill="#AEB0BA"/>
<path fill-rule="evenodd" clip-rule="evenodd" d="M134.666 62V40.6667C134.666 39.1939 135.86 38 137.333 38H145.333C146.805 38 147.999 39.1939 147.999 40.6667V43.3333H158.666C160.139 43.3333 161.333 44.5272 161.333 46V62H134.666ZM145.333 56.6667H137.333V59.3333H145.333V56.6667ZM147.999 46H158.666V59.3333H147.999V56.6667H150.666V54H147.999V51.3333H150.666V48.6667H147.999V46ZM155.999 54V56.6667H153.333V54H155.999ZM137.333 51.3333H139.999V54H137.333V51.3333ZM145.333 51.3333H142.666V54H145.333V51.3333ZM155.999 51.3333V48.6667H153.333V51.3333H155.999ZM139.999 46H137.333V48.6667H139.999V46ZM142.666 46H145.333V48.6667H142.666V46ZM139.999 40.6667H137.333V43.3333H139.999V40.6667ZM142.666 40.6667H145.333V43.3333H142.666V40.6667Z" fill="#AEB0BA"/>
<path fill-rule="evenodd" clip-rule="evenodd" d="M361.427 40.5722C358.927 38.0718 355.536 36.667 351.999 36.667C344.636 36.667 338.666 42.6365 338.666 50.0003C338.666 57.3641 344.636 63.3337 351.999 63.3337C359.363 63.3337 365.333 57.3641 365.333 50.0003C365.333 46.4641 363.928 43.0727 361.427 40.5722ZM341.333 50.0003C341.333 44.1093 346.108 39.3337 351.999 39.3337C354.828 39.3337 357.541 40.4575 359.542 42.4579C361.542 44.4582 362.666 47.1714 362.666 50.0003C362.666 55.8914 357.89 60.667 351.999 60.667C346.108 60.667 341.333 55.8914 341.333 50.0003Z" fill="#AEB0BA"/>
<path d="M352.666 41.3337C353.034 41.3337 353.333 41.632 353.333 42.0001L353.333 43.4044C355.511 43.7964 356.889 45.2201 356.935 47.1787H354.693C354.583 45.9482 353.553 45.21 352.049 45.21C350.564 45.21 349.561 45.9391 349.561 47.0329C349.561 47.9079 350.227 48.4183 351.84 48.8011L353.353 49.1475C356.023 49.7581 357.154 50.861 357.154 52.8206C357.154 54.9385 355.712 56.3878 353.333 56.7794L353.333 58.0006C353.333 58.3687 353.034 58.667 352.666 58.667H351.332C350.964 58.667 350.666 58.3687 350.666 58.0007L350.665 56.7845C348.382 56.4109 346.939 55.0232 346.854 52.9665H349.133C349.279 54.1787 350.491 54.9717 352.095 54.9717C353.681 54.9717 354.784 54.1878 354.784 53.0941C354.784 52.1462 354.109 51.5993 352.451 51.2074L350.746 50.8063C348.322 50.2503 347.173 49.0837 347.173 47.2061C347.173 45.2758 348.564 43.8633 350.665 43.4329L350.666 41.9999C350.666 41.6319 350.964 41.3337 351.332 41.3337H352.666Z" fill="#AEB0BA"/>
<path d="M242.32 73.0171L227.947 65.046C225.535 63.7084 223.529 61.765 222.132 59.4147C220.736 57.0645 220 54.3917 220 51.6701V36.3299C220 33.6083 220.736 30.9355 222.132 28.5853C223.529 26.235 225.535 24.2916 227.947 22.954L242.32 14.9829C244.663 13.683 247.309 13 250 13C252.691 13 255.337 13.683 257.68 14.9829L272.053 22.954C274.465 24.2916 276.471 26.235 277.868 28.5853C279.264 30.9355 280 33.6083 280 36.3299V51.6701C280 54.3917 279.264 57.0645 277.868 59.4147C276.471 61.765 274.465 63.7084 272.053 65.046L257.68 73.0171C255.337 74.317 252.691 75 250 75C247.309 75 244.663 74.317 242.32 73.0171Z" fill="#FEC10D"/>
<path fill-rule="evenodd" clip-rule="evenodd" d="M250.221 48.6443L250.981 61.0766C250.992 61.2469 250.95 61.4165 250.862 61.5642C250.773 61.7119 250.642 61.8313 250.484 61.9076C250.296 61.999 250.08 62.0235 249.874 61.9771C249.669 61.9306 249.487 61.816 249.36 61.6532L249.274 61.5198L240.191 44.0024C240.136 43.8972 240.093 43.7869 240.061 43.6732C239.947 43.2609 239.994 42.8224 240.192 42.4409C240.39 42.0595 240.727 41.7617 241.137 41.6041L241.337 41.5404L249.779 39.3545L249.019 26.9226C249.005 26.6919 249.087 26.4654 249.245 26.2927C249.404 26.12 249.627 26.0153 249.866 26.0016C250.042 25.9913 250.217 26.0312 250.37 26.1163C250.523 26.2014 250.647 26.328 250.726 26.4803L259.81 43.9964C259.915 44.2009 259.979 44.4237 259.995 44.6518C260.012 44.88 259.982 45.1092 259.908 45.3262C259.833 45.5432 259.714 45.7438 259.559 45.9166C259.404 46.0894 259.215 46.231 259.004 46.3333C258.895 46.386 258.78 46.4279 258.663 46.4584L250.221 48.6443Z" fill="#F5F5FA"/>
<path fill-rule="evenodd" clip-rule="evenodd" d="M447.503 52.667H434.666C433.93 52.667 433.333 53.2639 433.333 54.0003C433.333 54.6841 433.847 55.2477 434.511 55.3247L434.666 55.3337H448.666C448.993 55.3337 449.265 55.5695 449.322 55.8805L449.333 56.0003V57.3337C449.333 57.6609 449.097 57.9331 448.786 57.9896L448.666 58.0003H434.666C432.457 58.0003 430.666 56.2095 430.666 54.0003C430.666 52.5102 431.481 51.2103 432.689 50.5221L429.333 39.3337H427.333C427.005 39.3337 426.733 39.0978 426.677 38.7868L426.666 38.667V37.3337C426.666 37.0064 426.902 36.7342 427.213 36.6777L427.333 36.667H431.117C431.351 36.667 431.565 36.7889 431.684 36.9832L431.736 37.0861L432.635 39.3337H451.103C451.472 39.3337 451.77 39.6321 451.77 40.0003C451.77 40.0652 451.761 40.1297 451.742 40.1919L448.142 52.1919C448.057 52.4739 447.798 52.667 447.503 52.667ZM435.999 61.3337C435.999 60.2291 435.104 59.3337 433.999 59.3337C432.895 59.3337 431.999 60.2291 431.999 61.3337C431.999 62.4382 432.895 63.3337 433.999 63.3337C435.104 63.3337 435.999 62.4382 435.999 61.3337ZM449.333 61.3337C449.333 60.2291 448.437 59.3337 447.333 59.3337C446.228 59.3337 445.333 60.2291 445.333 61.3337C445.333 62.4382 446.228 63.3337 447.333 63.3337C448.437 63.3337 449.333 62.4382 449.333 61.3337ZM432.917 42.0003H448.415L446.015 50.0003H435.317L432.917 42.0003Z" fill="#AEB0BA"/>
<defs>
<radialGradient id="paint0_radial" cx="0" cy="0" r="1" gradientUnits="userSpaceOnUse" gradientTransform="translate(250 50) scale(250 1577.13)">
<stop offset="0.167164" stop-color="#EDEEF3"/>
<stop offset="1" stop-color="#EDEEF3" stop-opacity="0"/>
</radialGradient>
</defs>
</svg>
