<svg width="116" height="36" viewBox="0 0 116 36" fill="none" xmlns="http://www.w3.org/2000/svg">
<path d="M111.704 0H4.2963C1.92352 0 0 2.01472 0 4.5V31.5C0 33.9853 1.92352 36 4.2963 36H111.704C114.076 36 116 33.9853 116 31.5V4.5C116 2.01472 114.076 0 111.704 0Z" fill="#2B2B33"/>
<path d="M51.4496 22.7207H53.2857L49.8295 12.9797H47.8651L44.4088 22.7207H46.2045L47.0348 20.2028H50.6193L51.4496 22.7207ZM48.8034 14.7011H48.8506L50.2075 18.8594H47.4398L48.8034 14.7011ZM57.8156 15.4437C56.776 15.4437 55.9659 15.9702 55.5609 16.8005H55.5272V15.5652H53.8868V25.0766H55.5677V21.5326H55.6014C55.9929 22.3359 56.803 22.8355 57.8426 22.8355C59.6382 22.8355 60.7858 21.4246 60.7858 19.1429C60.7858 16.8545 59.6315 15.4437 57.8156 15.4437ZM57.3025 21.4584C56.2562 21.4584 55.5609 20.547 55.5542 19.1429C55.5609 17.7523 56.2562 16.8275 57.3025 16.8275C58.3894 16.8275 59.0644 17.7321 59.0644 19.1429C59.0644 20.5605 58.3894 21.4584 57.3025 21.4584ZM65.5182 15.4437C64.4786 15.4437 63.6685 15.9702 63.2635 16.8005H63.2297V15.5652H61.5894V25.0766H63.2702V21.5326H63.304C63.6955 22.3359 64.5056 22.8355 65.5452 22.8355C67.3408 22.8355 68.4884 21.4246 68.4884 19.1429C68.4884 16.8545 67.334 15.4437 65.5182 15.4437ZM65.0051 21.4584C63.9588 21.4584 63.2635 20.547 63.2567 19.1429C63.2635 17.7523 63.9588 16.8275 65.0051 16.8275C66.0919 16.8275 66.767 17.7321 66.767 19.1429C66.767 20.5605 66.0919 21.4584 65.0051 21.4584ZM71.5536 19.98C71.6279 21.7756 73.0995 22.8827 75.3407 22.8827C77.6966 22.8827 79.1817 21.7216 79.1817 19.872C79.1817 18.4206 78.3446 17.6038 76.3667 17.1515L75.2462 16.895C74.0513 16.6115 73.5585 16.2335 73.5585 15.5854C73.5585 14.7754 74.3011 14.2353 75.4014 14.2353C76.5152 14.2353 77.2781 14.7821 77.3591 15.6934H79.0197C78.9792 13.9788 77.5616 12.8177 75.4149 12.8177C73.2953 12.8177 71.7899 13.9856 71.7899 15.7137C71.7899 17.1043 72.6405 17.9684 74.4361 18.3801L75.6984 18.6772C76.927 18.9674 77.4266 19.3725 77.4266 20.0745C77.4266 20.8846 76.6098 21.4651 75.4352 21.4651C74.2471 21.4651 73.3493 20.8778 73.2413 19.98H71.5536ZM80.5186 13.8911V15.5652H79.4925V16.8613H80.5186V20.8171C80.5186 22.2077 81.1261 22.7545 82.672 22.7545C83.0297 22.7545 83.3605 22.7275 83.5428 22.687V21.4044C83.4348 21.4246 83.2188 21.4381 83.0635 21.4381C82.4694 21.4381 82.1994 21.1681 82.1994 20.5808V16.8613H83.5495V15.5652H82.1994V13.8911H80.5186ZM87.4516 22.8625C89.551 22.8625 90.9146 21.4651 90.9146 19.1429C90.9146 16.8275 89.5375 15.4167 87.4516 15.4167C85.3657 15.4167 83.9886 16.8343 83.9886 19.1429C83.9886 21.4651 85.3522 22.8625 87.4516 22.8625ZM87.4516 21.5326C86.385 21.5326 85.6965 20.6686 85.6965 19.1429C85.6965 17.6241 86.3918 16.7533 87.4516 16.7533C88.5182 16.7533 89.2067 17.6241 89.2067 19.1429C89.2067 20.6686 88.5182 21.5326 87.4516 21.5326ZM91.7182 22.7207H93.399V18.5556C93.399 17.5498 93.9728 16.9355 94.9246 16.9355C95.2082 16.9355 95.4647 16.976 95.6064 17.03V15.5112C95.4849 15.4842 95.2959 15.4437 95.0799 15.4437C94.2361 15.4437 93.6083 15.9432 93.3653 16.814H93.3315V15.5652H91.7182V22.7207ZM99.009 16.7195C99.9743 16.7195 100.622 17.4283 100.656 18.4409H97.3146C97.3821 17.4418 98.0639 16.7195 99.009 16.7195ZM100.663 20.5808C100.481 21.1748 99.8865 21.5664 99.1035 21.5664C98.0031 21.5664 97.3011 20.7968 97.3011 19.6492V19.548H102.303V19.0012C102.303 16.8275 101.034 15.4167 99.0022 15.4167C96.9366 15.4167 95.627 16.9085 95.627 19.1699C95.627 21.4516 96.9231 22.8625 99.0697 22.8625C100.764 22.8625 102.02 21.9309 102.236 20.5808H100.663Z" fill="#D1D3DD"/>
<path fill-rule="evenodd" clip-rule="evenodd" d="M24.5389 9.15494C25.2523 8.28192 26.4765 7.61151 27.5239 7.53906C27.6995 8.73255 27.2144 9.90148 26.5735 10.7278C25.8883 11.6156 24.7059 12.302 23.5615 12.2664C23.3528 11.1232 23.8881 9.94691 24.5389 9.15494ZM27.91 12.1365C29.2447 12.1365 30.658 12.8683 31.6636 14.1293C28.3668 15.9478 28.9009 20.6849 32.2321 21.9533C31.7741 22.9749 31.5543 23.4304 30.9637 24.3354C30.1398 25.5976 28.9795 27.1705 27.5392 27.1816C26.9471 27.1878 26.5587 27.0086 26.1399 26.8154C25.6545 26.5915 25.1283 26.3487 24.1969 26.354C23.2706 26.3586 22.736 26.5983 22.2439 26.819C21.8143 27.0117 21.4172 27.1898 20.8202 27.184C19.3812 27.1717 18.281 25.7523 17.4571 24.4901C15.1548 20.9624 14.9117 16.8208 16.3323 14.618C17.3429 13.0537 18.9367 12.1389 20.4334 12.1389C21.2312 12.1389 21.8741 12.3695 22.4868 12.5891C23.0444 12.7891 23.577 12.98 24.1785 12.98C24.735 12.98 25.1926 12.8057 25.6917 12.6155C26.2904 12.3874 26.949 12.1365 27.91 12.1365Z" fill="#D1D3DD"/>
</svg>
