<svg width="120" height="36" viewBox="0 0 120 36" fill="none" xmlns="http://www.w3.org/2000/svg">
<path d="M115.556 0H4.44444C1.98985 0 0 2.01472 0 4.5V31.5C0 33.9853 1.98985 36 4.44444 36H115.556C118.01 36 120 33.9853 120 31.5V4.5C120 2.01472 118.01 0 115.556 0Z" fill="#2B2B33"/>
<path d="M60.8673 15.2177C60.1776 15.2193 59.5039 15.4254 58.9313 15.8099C58.3588 16.1944 57.9131 16.7401 57.6506 17.3779C57.3882 18.0157 57.3208 18.717 57.4569 19.3932C57.5931 20.0693 57.9266 20.6899 58.4155 21.1764C58.9043 21.663 59.5264 21.9936 60.2032 22.1266C60.88 22.2595 61.581 22.1888 62.2175 21.9234C62.8541 21.658 63.3977 21.2098 63.7795 20.6354C64.1613 20.061 64.3643 19.3863 64.3627 18.6966C64.3693 18.2366 64.2834 17.7798 64.1099 17.3536C63.9364 16.9274 63.6789 16.5405 63.3527 16.2159C63.0266 15.8913 62.6385 15.6357 62.2115 15.4642C61.7845 15.2927 61.3274 15.2088 60.8673 15.2177ZM60.8673 20.8086C60.4446 20.8382 60.0227 20.7399 59.6566 20.5265C59.2905 20.3131 58.997 19.9946 58.8143 19.6122C58.6316 19.2298 58.5682 18.8013 58.6323 18.3824C58.6964 17.9635 58.885 17.5736 59.1736 17.2633C59.4622 16.9531 59.8375 16.7368 60.2507 16.6426C60.6639 16.5485 61.0958 16.5808 61.4904 16.7354C61.885 16.89 62.2239 17.1597 62.4631 17.5095C62.7024 17.8592 62.8309 18.2729 62.8319 18.6966C62.8451 18.9652 62.8044 19.2336 62.7122 19.4861C62.62 19.7386 62.4781 19.9701 62.295 20.167C62.1119 20.3638 61.8913 20.522 61.6461 20.6322C61.4009 20.7424 61.1361 20.8024 60.8673 20.8086ZM53.2381 15.2177C52.5484 15.2193 51.8747 15.4254 51.3021 15.8099C50.7295 16.1944 50.2839 16.7401 50.0214 17.3779C49.759 18.0157 49.6916 18.717 49.8277 19.3932C49.9639 20.0693 50.2974 20.6899 50.7863 21.1764C51.2751 21.663 51.8972 21.9936 52.574 22.1266C53.2507 22.2595 53.9517 22.1888 54.5883 21.9234C55.2249 21.658 55.7685 21.2098 56.1503 20.6354C56.5321 20.061 56.7351 19.3863 56.7334 18.6966C56.7401 18.2366 56.6541 17.7798 56.4806 17.3536C56.3071 16.9274 56.0496 16.5405 55.7235 16.2159C55.3974 15.8913 55.0093 15.6357 54.5823 15.4642C54.1553 15.2927 53.6981 15.2088 53.2381 15.2177ZM53.2381 20.8086C52.8153 20.8382 52.3935 20.7399 52.0274 20.5265C51.6612 20.3131 51.3678 19.9946 51.1851 19.6122C51.0024 19.2298 50.939 18.8013 51.0031 18.3824C51.0672 17.9635 51.2558 17.5736 51.5444 17.2633C51.833 16.9531 52.2083 16.7368 52.6215 16.6426C53.0347 16.5485 53.4666 16.5808 53.8612 16.7354C54.2557 16.89 54.5947 17.1597 54.8339 17.5095C55.0732 17.8592 55.2017 18.2729 55.2027 18.6966C55.2159 18.9652 55.1752 19.2336 55.083 19.4861C54.9907 19.7386 54.8489 19.9701 54.6658 20.167C54.4827 20.3638 54.262 20.522 54.0168 20.6322C53.7716 20.7424 53.5068 20.8024 53.2381 20.8086ZM44.1681 16.29V17.7635H47.7044C47.649 18.4575 47.3605 19.1123 46.8859 19.6217C46.5311 19.9831 46.1045 20.266 45.6335 20.4521C45.1625 20.6383 44.6577 20.7234 44.1518 20.7022C43.1097 20.7022 42.1103 20.2882 41.3734 19.5513C40.6365 18.8145 40.2226 17.8151 40.2226 16.773C40.2226 15.7309 40.6365 14.7315 41.3734 13.9946C42.1103 13.2577 43.1097 12.8438 44.1518 12.8438C45.1508 12.8289 46.1155 13.2083 46.8367 13.8997L47.8763 12.8601C47.3885 12.3776 46.8092 11.9973 46.1724 11.7414C45.5357 11.4856 44.8543 11.3594 44.1681 11.3703C43.4404 11.342 42.7145 11.4609 42.0338 11.7198C41.3531 11.9788 40.7317 12.3725 40.2068 12.8773C39.6819 13.3822 39.2644 13.9878 38.9791 14.6579C38.6939 15.328 38.5469 16.0488 38.5469 16.7771C38.5469 17.5053 38.6939 18.2261 38.9791 18.8962C39.2644 19.5663 39.6819 20.1719 40.2068 20.6768C40.7317 21.1817 41.3531 21.5754 42.0338 21.8343C42.7145 22.0933 43.4404 22.2121 44.1681 22.1838C44.8684 22.2118 45.5666 22.0913 46.217 21.8303C46.8674 21.5693 47.4552 21.1737 47.9418 20.6694C48.8014 19.7251 49.2595 18.4831 49.2188 17.2068C49.2218 16.8996 49.1971 16.5928 49.1451 16.29H44.1681ZM81.2583 17.436C81.0448 16.808 80.6456 16.2595 80.1135 15.8634C79.5814 15.4673 78.9415 15.2421 78.2786 15.2177C77.8309 15.2168 77.3877 15.3078 76.9764 15.485C76.5652 15.6622 76.1947 15.9218 75.8878 16.2479C75.581 16.5739 75.3442 16.9595 75.1922 17.3807C75.0403 17.8019 74.9763 18.2498 75.0043 18.6966C74.9973 19.4439 75.2322 20.1734 75.674 20.7761C76.1157 21.3788 76.7406 21.8224 77.4553 22.0407C78.17 22.259 78.9362 22.2402 79.6393 21.9871C80.3424 21.7341 80.9448 21.2603 81.3565 20.6367L80.1696 19.8181C79.9926 20.113 79.7416 20.3566 79.4415 20.5246C79.1414 20.6926 78.8026 20.7792 78.4587 20.7759C78.1039 20.7905 77.753 20.6975 77.452 20.509C77.1511 20.3206 76.9142 20.0455 76.7724 19.7199L81.4302 17.7962L81.2583 17.436ZM76.5105 18.5984C76.4939 18.3441 76.5282 18.0891 76.6114 17.8483C76.6946 17.6074 76.825 17.3856 76.995 17.1958C77.165 17.006 77.3712 16.852 77.6014 16.7428C77.8316 16.6337 78.0814 16.5716 78.3359 16.5601C78.5997 16.544 78.8623 16.6061 79.0909 16.7386C79.3195 16.8712 79.504 17.0682 79.6211 17.3051L76.5105 18.5984ZM72.7286 21.971H74.2594V11.7387H72.7286V21.971ZM70.2237 15.9953H70.1664C69.9378 15.7349 69.6555 15.5269 69.3391 15.3856C69.0226 15.2444 68.6794 15.1731 68.3328 15.1767C67.4382 15.2201 66.5947 15.606 65.9769 16.2545C65.3591 16.9029 65.0145 17.7642 65.0145 18.6598C65.0145 19.5554 65.3591 20.4167 65.9769 21.0652C66.5947 21.7136 67.4382 22.0995 68.3328 22.1429C68.6799 22.1499 69.0242 22.0801 69.3411 21.9386C69.6581 21.7971 69.9399 21.5873 70.1664 21.3243H70.2237V21.8236C70.2237 23.1579 69.5116 23.8701 68.3655 23.8701C67.9827 23.8617 67.611 23.7397 67.2977 23.5196C66.9843 23.2995 66.7434 22.9913 66.6056 22.634L65.2795 23.1825C65.5246 23.7983 65.9509 24.3252 66.502 24.6935C67.053 25.0618 67.7028 25.2542 68.3655 25.2453C70.1583 25.2453 71.6399 24.1894 71.6399 21.619V15.4223H70.2237V15.9953ZM68.4638 20.8086C67.9274 20.7752 67.424 20.5385 67.0561 20.1469C66.6881 19.7553 66.4832 19.2381 66.4832 18.7007C66.4832 18.1634 66.6881 17.6462 67.0561 17.2546C67.424 16.863 67.9274 16.6263 68.4638 16.5929C68.7259 16.6042 68.9831 16.6681 69.22 16.7809C69.457 16.8936 69.6688 17.0528 69.8429 17.2491C70.0171 17.4454 70.1499 17.6747 70.2336 17.9234C70.3173 18.1721 70.3502 18.435 70.3301 18.6966C70.3525 18.9592 70.3213 19.2235 70.2386 19.4736C70.1559 19.7237 70.0233 19.9545 69.8488 20.1519C69.6743 20.3493 69.4616 20.5093 69.2236 20.6222C68.9855 20.7351 68.727 20.7985 68.4638 20.8086ZM88.4291 11.7387H84.7618V21.971H86.2926V18.0909H88.4291C88.8654 18.1222 89.3034 18.0634 89.7159 17.918C90.1284 17.7725 90.5066 17.5437 90.8267 17.2457C91.1469 16.9477 91.4023 16.5869 91.5769 16.1859C91.7515 15.7849 91.8416 15.3522 91.8416 14.9148C91.8416 14.4774 91.7515 14.0447 91.5769 13.6437C91.4023 13.2426 91.1469 12.8819 90.8267 12.5839C90.5066 12.2859 90.1284 12.057 89.7159 11.9116C89.3034 11.7662 88.8654 11.7073 88.4291 11.7387ZM88.4291 16.6502H86.2926V13.163H88.4618C88.6919 13.163 88.9197 13.2083 89.1322 13.2964C89.3447 13.3844 89.5378 13.5134 89.7005 13.6761C89.8632 13.8388 89.9922 14.0319 90.0803 14.2444C90.1683 14.4569 90.2136 14.6847 90.2136 14.9148C90.2136 15.1448 90.1683 15.3726 90.0803 15.5852C89.9922 15.7977 89.8632 15.9908 89.7005 16.1535C89.5378 16.3161 89.3447 16.4452 89.1322 16.5332C88.9197 16.6212 88.6919 16.6666 88.4618 16.6666L88.4291 16.6502ZM97.8756 15.1849C97.3181 15.1505 96.7628 15.2803 96.2783 15.5582C95.7939 15.8361 95.4015 16.2499 95.1497 16.7484L96.5003 17.3132C96.6368 17.0672 96.8416 16.8659 97.09 16.7337C97.3384 16.6015 97.6198 16.5441 97.9001 16.5683C98.0944 16.5456 98.2913 16.5619 98.4793 16.6161C98.6673 16.6703 98.8426 16.7614 98.995 16.8841C99.1474 17.0067 99.2738 17.1585 99.367 17.3306C99.4601 17.5027 99.518 17.6916 99.5373 17.8862V17.9845C99.045 17.7257 98.4972 17.5909 97.9411 17.5916C96.484 17.5916 94.9941 18.4101 94.9941 19.9C95.0086 20.2166 95.0865 20.5272 95.2232 20.8131C95.36 21.0991 95.5529 21.3547 95.7903 21.5647C96.0278 21.7746 96.305 21.9348 96.6056 22.0355C96.9062 22.1362 97.2239 22.1755 97.5399 22.1511C97.9241 22.1723 98.3069 22.091 98.6493 21.9155C98.9916 21.7401 99.2812 21.4767 99.4882 21.1524H99.5373V21.971H101.011V18.0336C101.011 16.2409 99.6519 15.2013 97.9083 15.2013L97.8756 15.1849ZM97.6873 20.7922C97.188 20.7922 96.4922 20.5385 96.4922 19.9245C96.4922 19.1059 97.3599 18.8276 98.1293 18.8276C98.6156 18.8156 99.0962 18.9344 99.5209 19.1714C99.4695 19.616 99.2587 20.0268 98.9276 20.3279C98.5965 20.6289 98.1675 20.7997 97.72 20.8086L97.6873 20.7922ZM106.381 15.4223L104.629 19.859H104.58L102.763 15.4223H101.125L103.851 21.6272L102.296 25.0734H103.892L108.083 15.4223H106.381ZM92.6284 21.971H94.151V11.7387H92.6284V21.971Z" fill="#D1D3DD"/>
<path d="M13.5432 7.33571C13.273 7.65515 13.1351 8.06577 13.1578 8.48352V26.6189C13.1299 27.0374 13.2684 27.4499 13.5432 27.7667L13.6006 27.8323L23.7587 17.6742V17.4283L13.6006 7.27832L13.5432 7.33571Z" fill="url(#paint0_linear)"/>
<path d="M27.1212 21.06L23.7598 17.674V17.428L27.1212 14.042L27.195 14.0912L31.2205 16.3704C32.3683 17.0181 32.3683 18.0839 31.2205 18.7398L27.2114 21.019L27.1212 21.06Z" fill="url(#paint1_linear)"/>
<path d="M27.2203 21.0106L23.7604 17.5508L13.5449 27.7663C13.7766 27.9725 14.0731 28.0912 14.3831 28.1016C14.6931 28.1121 14.997 28.0138 15.242 27.8237L27.2203 21.0106Z" fill="url(#paint2_linear)"/>
<path d="M27.2203 14.0919L15.242 7.28697C14.9986 7.09424 14.6949 6.99351 14.3845 7.00251C14.0741 7.0115 13.7768 7.12965 13.5449 7.33617L23.7604 17.5517L27.2203 14.0919Z" fill="url(#paint3_linear)"/>
<path opacity="0.2" d="M27.1219 20.9375L15.242 27.7014C15.0059 27.8796 14.7181 27.976 14.4222 27.976C14.1263 27.976 13.8385 27.8796 13.6023 27.7014L13.5449 27.7588L13.6023 27.8244C13.8385 28.0026 14.1263 28.099 14.4222 28.099C14.7181 28.099 15.0059 28.0026 15.242 27.8244L27.2203 21.0113L27.1219 20.9375Z" fill="black"/>
<path opacity="0.12" d="M13.5432 27.6531C13.2798 27.3279 13.1508 26.9143 13.1824 26.4971V26.6201C13.1545 27.0385 13.293 27.451 13.5678 27.7679L13.6252 27.7105L13.5432 27.6531Z" fill="black"/>
<path opacity="0.12" d="M31.2185 18.6166L27.1191 20.9368L27.1929 21.0106L31.2185 18.7314C31.4561 18.6309 31.6622 18.4682 31.8152 18.2605C31.9681 18.0527 32.0622 17.8075 32.0875 17.5508C32.0363 17.7841 31.9309 18.0021 31.78 18.1872C31.629 18.3724 31.4367 18.5194 31.2185 18.6166Z" fill="black"/>
<path opacity="0.25" d="M15.2426 7.40162L31.2218 16.4857C31.44 16.5829 31.6323 16.73 31.7833 16.9151C31.9342 17.1002 32.0396 17.3182 32.0908 17.5515C32.0655 17.2948 31.9714 17.0496 31.8185 16.8419C31.6655 16.6341 31.4594 16.4714 31.2218 16.3709L15.2426 7.28684C14.103 6.63094 13.1602 7.17206 13.1602 8.48384V8.60682C13.1848 7.29504 14.103 6.75393 15.2426 7.40162Z" fill="white"/>
<defs>
<linearGradient id="paint0_linear" x1="22.8568" y1="8.29495" x2="9.09949" y2="22.0523" gradientUnits="userSpaceOnUse">
<stop stop-color="#00A0FF"/>
<stop offset="0.01" stop-color="#00A1FF"/>
<stop offset="0.26" stop-color="#00BEFF"/>
<stop offset="0.51" stop-color="#00D2FF"/>
<stop offset="0.76" stop-color="#00DFFF"/>
<stop offset="1" stop-color="#00E3FF"/>
</linearGradient>
<linearGradient id="paint1_linear" x1="32.7209" y1="17.551" x2="12.8884" y2="17.551" gradientUnits="userSpaceOnUse">
<stop stop-color="#FFE000"/>
<stop offset="0.41" stop-color="#FFBD00"/>
<stop offset="0.78" stop-color="#FFA500"/>
<stop offset="1" stop-color="#FF9C00"/>
</linearGradient>
<linearGradient id="paint2_linear" x1="25.3428" y1="19.4365" x2="6.68265" y2="38.0884" gradientUnits="userSpaceOnUse">
<stop stop-color="#FF3A44"/>
<stop offset="1" stop-color="#C31162"/>
</linearGradient>
<linearGradient id="paint3_linear" x1="10.9705" y1="1.30196" x2="19.3004" y2="9.63179" gradientUnits="userSpaceOnUse">
<stop stop-color="#32A071"/>
<stop offset="0.07" stop-color="#2DA771"/>
<stop offset="0.48" stop-color="#15CF74"/>
<stop offset="0.8" stop-color="#06E775"/>
<stop offset="1" stop-color="#00F076"/>
</linearGradient>
</defs>
</svg>
