<svg width="366" height="200" viewBox="0 0 366 200" fill="none" xmlns="http://www.w3.org/2000/svg">
<g clip-path="url(#clip0)">
<path d="M308.078 188.584L300.897 186.449C299.506 189.865 296.73 191.766 292.535 191.766C287.457 191.766 283.351 188.119 283.126 183.245L283.104 182.771H308.586L308.607 182.493C308.661 181.75 308.694 181.083 308.7 180.446V180.264L308.697 179.911C308.564 168.907 302.168 162.293 291.596 162.293C282.208 162.293 274.566 169.999 274.566 180.551C274.566 191.645 282.288 199.099 292.463 199.099C300.233 199.099 306.031 194.869 308.078 188.584ZM364.612 146.617H356.052V168.209L355.206 166.684L355.146 166.575C353.792 164.205 350.544 162.509 345.558 162.509C335.947 162.509 328.961 170.271 328.961 180.623C328.961 191.198 336.04 198.882 345.847 198.882C350.207 198.882 353.811 196.984 355.423 194.127L356.268 192.629V194.348C356.275 195.576 356.371 196.801 356.556 198.015H364.858C364.743 196.677 364.652 194.868 364.623 193.183L364.614 192.415L364.612 146.617ZM254.519 147.701H223.059V198.015H232.197V178.078H252.063V169.806H232.125V156.261H254.519V147.701ZM268.786 163.376H260.081V198.015H268.786V163.376ZM323.183 146.617H314.478V198.015H323.183V146.617ZM347.005 170.203C352.432 170.203 356.197 174.228 356.197 180.552C356.197 186.975 352.399 191.189 347.005 191.189C341.512 191.189 337.74 187.027 337.74 180.624C337.739 174.301 341.576 170.203 347.005 170.203ZM291.739 169.191C296.936 169.191 299.959 172.278 300.137 176.632L300.156 177.102H283.31L283.342 176.62C283.61 172.607 287.004 169.191 291.739 169.191ZM264.398 145.751C263.68 145.751 262.968 145.893 262.304 146.168C261.64 146.443 261.037 146.846 260.529 147.354C260.021 147.862 259.618 148.465 259.343 149.129C259.068 149.793 258.926 150.505 258.926 151.223C258.926 151.942 259.068 152.653 259.343 153.317C259.618 153.981 260.021 154.585 260.529 155.093C261.037 155.601 261.64 156.004 262.304 156.279C262.968 156.554 263.68 156.695 264.398 156.695C265.117 156.695 265.829 156.554 266.492 156.279C267.156 156.004 267.76 155.601 268.268 155.093C268.776 154.585 269.179 153.981 269.454 153.317C269.729 152.653 269.871 151.942 269.871 151.223C269.871 150.505 269.729 149.793 269.454 149.129C269.179 148.465 268.776 147.862 268.268 147.354C267.76 146.846 267.156 146.443 266.492 146.168C265.829 145.893 265.117 145.751 264.398 145.751Z" fill="url(#paint0_radial)" stroke="white" stroke-opacity="0.15"/>
<path fill-rule="evenodd" clip-rule="evenodd" d="M53.3851 161.842C64.3656 161.842 70.9395 168.849 70.9395 180.262L70.9348 180.704C70.9217 181.364 70.8819 182.007 70.8484 182.48L70.7984 183.153L70.7952 183.224H45.3665C45.583 187.92 49.5563 191.315 54.3242 191.315C58.7013 191.315 61.1467 189.176 62.334 186.112L62.4149 185.897L70.435 188.281C68.629 194.421 62.9942 199.55 54.2535 199.55C44.5011 199.55 35.9047 192.543 35.9047 180.551C35.9032 169.21 44.2831 161.842 53.3851 161.842ZM92.4668 161.842C102.012 161.842 107.484 167.672 109.09 173.584L109.156 173.833L100.559 176.723C99.6925 173.761 97.4531 170.727 92.6852 170.727C87.7729 170.727 83.6553 174.267 83.6553 180.696C83.6553 187.126 87.8436 190.736 92.7559 190.736C97.5657 190.736 100.021 187.619 100.867 184.913L100.919 184.741L109.371 187.558C107.781 193.481 102.219 199.551 92.7559 199.551C82.281 199.551 74.0458 191.604 74.0458 180.697C74.0469 169.715 82.1366 161.842 92.4668 161.842ZM154.015 162.058C160.033 162.058 162.928 164.486 163.994 166.351L164.057 166.465L164.111 162.345H173.574L173.521 192.414L173.531 193.176C173.562 194.958 173.658 196.739 173.764 197.972L173.809 198.465H164.634L164.584 198.189C164.384 196.918 164.28 195.634 164.274 194.348C162.684 197.165 159.072 199.332 154.305 199.332C144.191 199.332 136.967 191.385 136.967 180.622C136.968 170.221 143.974 162.058 154.015 162.058ZM127.395 152.306V162.925H134.547V171.449H127.395V186.331C127.395 189.437 128.84 190.45 131.585 190.45C132.541 190.455 133.495 190.368 134.435 190.19L134.547 190.161V198.108L134.322 198.197C133.395 198.547 131.721 198.975 129.128 198.975C122.297 198.975 117.989 194.979 117.862 188.3L117.859 187.995V171.449H111.43V162.925H113.236C116.909 162.925 118.648 160.577 118.723 157.501L118.726 157.29V152.306H127.395ZM199.743 162.636C200.379 162.636 200.968 162.682 201.548 162.738L201.982 162.78V172.46C201.031 172.267 200.063 172.171 199.093 172.171C194.254 172.171 190.046 174.485 189.921 181.873L189.918 182.213V198.467H180.31L180.347 162.798H189.666L189.629 168.198C191.666 163.785 196.129 162.754 199.178 162.646L199.37 162.641L199.743 162.636ZM19.5769 161.986C28.2802 161.986 32.3336 168.115 32.4338 175.781L32.4356 176.072V198.467H22.828V177.734C22.828 173.76 20.8776 170.654 16.2541 170.654C12.1449 170.654 9.70317 173.782 9.61057 177.786L9.60802 178.023V198.467H0V162.923H9.31893V167.332C11.4862 163.647 15.7481 161.986 19.5769 161.986ZM155.46 170.655C150.548 170.655 146.647 174.267 146.647 180.624C146.647 186.981 150.401 190.737 155.46 190.737C160.372 190.737 164.201 186.983 164.201 180.552C164.2 174.194 160.372 170.654 155.46 170.654V170.655ZM53.5295 169.644C48.545 169.644 45.801 173.398 45.5823 176.651H61.4766C61.3315 173.111 59.0199 169.643 53.5298 169.643L53.5295 169.644Z" fill="url(#paint1_radial)"/>
<path fill-rule="evenodd" clip-rule="evenodd" d="M182.24 122.602C218.412 106 236.489 83.3524 236.47 54.6602C236.469 24.9379 212.314 0.842773 182.516 0.842773C152.717 0.842773 128.562 24.9379 128.562 54.6602C128.562 82.9896 146.455 105.637 182.24 122.602ZM182.802 16.7831C203.787 16.7831 220.799 33.7802 220.799 54.7478C220.799 75.7155 203.787 92.7125 182.802 92.7125C161.817 92.7125 144.805 75.7155 144.805 54.7478C144.805 33.7802 161.817 16.7831 182.802 16.7831Z" fill="url(#paint2_radial)" stroke="white" stroke-opacity="0.12" stroke-width="2"/>
<path fill-rule="evenodd" clip-rule="evenodd" d="M182.668 19.9809C163.502 19.9809 147.966 35.5486 147.966 54.7524C147.966 73.9561 163.502 89.5238 182.668 89.5238C201.833 89.5238 217.37 73.9561 217.37 54.7524C217.37 35.5486 201.833 19.9809 182.668 19.9809ZM144.32 54.7524C144.32 33.5312 161.489 16.3281 182.668 16.3281C203.847 16.3281 221.015 33.5312 221.015 54.7524C221.015 75.9735 203.847 93.1766 182.668 93.1766C161.489 93.1766 144.32 75.9735 144.32 54.7524Z" fill="url(#paint3_linear)"/>
<path fill-rule="evenodd" clip-rule="evenodd" d="M182.668 19.9809C163.502 19.9809 147.966 35.5486 147.966 54.7524C147.966 73.9561 163.502 89.5238 182.668 89.5238C201.833 89.5238 217.37 73.9561 217.37 54.7524C217.37 35.5486 201.833 19.9809 182.668 19.9809ZM144.32 54.7524C144.32 33.5312 161.489 16.3281 182.668 16.3281C203.847 16.3281 221.015 33.5312 221.015 54.7524C221.015 75.9735 203.847 93.1766 182.668 93.1766C161.489 93.1766 144.32 75.9735 144.32 54.7524Z" fill="url(#paint4_linear)"/>
<path fill-rule="evenodd" clip-rule="evenodd" d="M182.24 122.602C218.412 106 236.489 83.3524 236.47 54.6602C236.469 24.9379 212.314 0.842773 182.516 0.842773C152.717 0.842773 128.562 24.9379 128.562 54.6602C128.562 82.9896 146.455 105.637 182.24 122.602ZM182.802 16.7831C203.787 16.7831 220.799 33.7802 220.799 54.7478C220.799 75.7155 203.787 92.7125 182.802 92.7125C161.817 92.7125 144.805 75.7155 144.805 54.7478C144.805 33.7802 161.817 16.7831 182.802 16.7831Z" fill="url(#paint5_radial)"/>
<path fill-rule="evenodd" clip-rule="evenodd" d="M182.793 61.6646L183.854 80.0457C183.868 80.323 183.792 80.5976 183.639 80.8292C183.486 81.0609 183.263 81.2374 183.002 81.333C182.741 81.4286 182.457 81.4384 182.19 81.3608C181.923 81.2832 181.688 81.1223 181.52 80.9017L181.397 80.7043L168.375 54.831C168.297 54.6758 168.234 54.513 168.189 54.3451C168.028 53.733 168.097 53.0828 168.383 52.5181C168.67 51.9535 169.154 51.5138 169.743 51.2825L170.031 51.1875L182.182 47.9295L181.122 29.5483C181.107 29.2511 181.195 28.9576 181.37 28.7169C181.545 28.4762 181.797 28.3029 182.084 28.2258C182.372 28.1487 182.677 28.1726 182.949 28.2934C183.221 28.4142 183.444 28.6247 183.579 28.8897L196.601 54.7626C196.753 55.066 196.843 55.3964 196.866 55.7347C196.889 56.0729 196.845 56.4125 196.737 56.7338C196.629 57.0551 196.458 57.3519 196.235 57.607C196.011 57.8622 195.74 58.0707 195.436 58.2206C195.279 58.2987 195.115 58.3611 194.946 58.4065L182.793 61.6646Z" fill="url(#paint6_linear)"/>
<path fill-rule="evenodd" clip-rule="evenodd" d="M182.793 61.6649L183.426 72.6146L178.231 74.0076L176.782 68.6045C176.433 67.2785 176.625 65.8683 177.316 64.6839C178.006 63.4995 179.139 62.638 180.465 62.289L182.793 61.6649Z" fill="url(#paint7_linear)"/>
<path fill-rule="evenodd" clip-rule="evenodd" d="M186.746 35.586L188.195 40.989C188.528 42.2498 188.372 43.5898 187.757 44.74C187.143 45.8903 186.117 46.7656 184.884 47.1901L184.511 47.3032L182.184 47.9265L181.55 36.9768L186.746 35.586Z" fill="url(#paint8_linear)"/>
</g>
<defs>
<radialGradient id="paint0_radial" cx="0" cy="0" r="1" gradientUnits="userSpaceOnUse" gradientTransform="translate(223.103 145.574) scale(141.809 140.399)">
<stop stop-color="#FEC10D"/>
<stop offset="1" stop-color="#FF9900"/>
</radialGradient>
<radialGradient id="paint1_radial" cx="0" cy="0" r="1" gradientUnits="userSpaceOnUse" gradientTransform="translate(100.833 152.5) scale(100.833 559.604)">
<stop stop-color="#F5F5FA"/>
<stop offset="1" stop-color="#AEB0BA"/>
</radialGradient>
<radialGradient id="paint2_radial" cx="0" cy="0" r="1" gradientUnits="userSpaceOnUse" gradientTransform="translate(132.494 28.6205) rotate(65.9708) scale(126.337 154.302)">
<stop stop-color="#FEC10D"/>
<stop offset="1" stop-color="#FF9900"/>
</radialGradient>
<linearGradient id="paint3_linear" x1="182.668" y1="18.1545" x2="182.668" y2="91.3502" gradientUnits="userSpaceOnUse">
<stop stop-color="#FF9900"/>
<stop offset="1" stop-color="#FEC10D"/>
</linearGradient>
<linearGradient id="paint4_linear" x1="182.668" y1="18.1545" x2="182.668" y2="91.3502" gradientUnits="userSpaceOnUse">
<stop stop-color="#FF9900"/>
<stop offset="1" stop-color="#FEC10D"/>
</linearGradient>
<radialGradient id="paint5_radial" cx="0" cy="0" r="1" gradientUnits="userSpaceOnUse" gradientTransform="translate(123.951 11.6274) rotate(41.3737) scale(132.093 147.558)">
<stop stop-color="#FEC10D"/>
<stop offset="1" stop-color="#FF9900"/>
</radialGradient>
<linearGradient id="paint6_linear" x1="181.215" y1="48.1482" x2="181.372" y2="61.6236" gradientUnits="userSpaceOnUse">
<stop stop-color="#FEC10D"/>
<stop offset="1" stop-color="#FF9900"/>
</linearGradient>
<linearGradient id="paint7_linear" x1="179.14" y1="62.722" x2="181.897" y2="73.0024" gradientUnits="userSpaceOnUse">
<stop stop-color="#CD6A00"/>
<stop offset="1" stop-color="#FF9900"/>
</linearGradient>
<linearGradient id="paint8_linear" x1="183.074" y1="36.5683" x2="185.856" y2="46.9427" gradientUnits="userSpaceOnUse">
<stop stop-color="#FEBD0C"/>
<stop offset="1" stop-color="#FF8B00"/>
</linearGradient>
<clipPath id="clip0">
<rect width="365.55" height="200" fill="white"/>
</clipPath>
</defs>
</svg>
