<svg width="179" height="64" viewBox="0 0 179 64" fill="none" xmlns="http://www.w3.org/2000/svg">
<path d="M72.0257 32.9773C72.0257 30.9275 73.2462 29.3074 75.3277 29.3074C77.6249 29.3074 78.5939 30.8537 78.5939 32.8318V43.1536H83.3676V32.0071C83.3676 28.1228 81.3579 24.9939 76.9788 24.9939C75.0766 24.9939 72.9588 25.8211 71.8822 27.6552V25.4615H67.252V43.1561H72.0257V32.9773ZM90.8884 32.1155C90.9626 31.1298 91.413 30.2103 92.1463 29.5474C92.8796 28.8846 93.8398 28.5291 94.828 28.5545C97.5495 28.5545 98.6958 30.3169 98.7675 32.1155H90.8884ZM99.1535 36.8068C98.5762 38.3675 97.3445 39.4672 95.1009 39.4672C92.713 39.4672 90.7231 37.7997 90.6142 35.4939H103.35L103.392 34.9166C103.408 34.6589 103.423 34.3451 103.423 34.0387C103.423 28.4337 100.13 24.9927 94.6309 24.9927C90.072 24.9927 85.8747 28.611 85.8747 34.1805C85.8747 40.0705 90.1784 43.5115 95.0647 43.5115C99.4425 43.5115 102.265 40.9929 103.169 37.9774L99.1535 36.8068ZM114.83 29.3569C117.199 29.3569 118.311 30.8467 118.742 32.3015L123.012 30.8826C122.258 27.938 119.531 24.9939 114.724 24.9939C109.592 24.9939 105.573 28.8609 105.573 34.2531C105.573 39.6099 109.664 43.5123 114.868 43.5123C119.569 43.5123 122.331 40.5323 123.122 37.6236L118.923 36.2402C118.679 37.1164 118.145 37.8842 117.409 38.4187C116.673 38.9533 115.777 39.2232 114.868 39.1848C112.428 39.1848 110.347 37.4117 110.347 34.2535C110.347 31.0954 112.39 29.3569 114.83 29.3569H114.83ZM132.825 20.0078H128.526V22.4819C128.526 24.0587 127.667 25.2768 125.805 25.2768H124.91V29.505H128.098V37.7106C128.098 41.1145 130.246 43.1573 133.685 43.1573C134.599 43.1894 135.512 43.0433 136.371 42.7272V38.7856C135.888 38.8857 135.395 38.9338 134.902 38.9291C133.541 38.9291 132.825 38.4273 132.825 36.8868V29.5058H136.371V25.2751H132.825V20.0078ZM155.924 25.1729H151.233V27.1826C150.731 26.2495 149.299 24.9935 146.255 24.9935C141.277 24.9935 137.802 29.0489 137.802 34.2168C137.804 39.5637 141.384 43.5115 146.398 43.5115C148.762 43.5115 150.552 42.4349 151.34 41.0354C151.342 41.7211 151.402 42.4054 151.519 43.081H156.067L156.044 42.8361C155.985 42.1351 155.931 41.0799 155.924 40.0734V25.1729ZM142.817 33.8606C142.817 30.7041 144.727 28.9124 147.132 28.9124C149.537 28.9124 151.412 30.6682 151.412 33.8247C151.412 37.0171 149.537 38.8821 147.132 38.8821C144.656 38.8821 142.817 37.0171 142.817 33.8606ZM170.751 25.4215V30.2319C170.279 30.136 169.799 30.088 169.318 30.0884C166.883 30.0884 164.77 31.2731 164.77 35.0778V43.1552H160.007V25.492H164.625V28.1125C165.7 25.779 168.135 25.3497 169.639 25.3497C170.011 25.3546 170.382 25.3785 170.751 25.4215Z" fill="white"/>
<path d="M25.9208 55.0732L14.7028 48.7427C12.8204 47.6804 11.2541 46.1371 10.1642 44.2705C9.07433 42.404 8.49999 40.2814 8.5 38.12V25.9371C8.49999 23.7757 9.07433 21.6531 10.1642 19.7866C11.2541 17.9201 12.8204 16.3767 14.7028 15.3144L25.9208 8.98391C27.7501 7.9516 29.815 7.40918 31.9154 7.40918C34.0159 7.40918 36.0808 7.9516 37.9101 8.98391L49.1281 15.3144C51.0105 16.3767 52.5768 17.9201 53.6666 19.7866C54.7565 21.6531 55.3309 23.7757 55.3309 25.9371V38.12C55.3309 40.2814 54.7565 42.404 53.6666 44.2705C52.5768 46.1371 51.0105 47.6804 49.1281 48.7427L37.9101 55.0732C36.0808 56.1055 34.0159 56.6479 31.9154 56.6479C29.815 56.6479 27.7501 56.1055 25.9208 55.0732ZM27.9187 12.5244L16.7012 18.8553C15.4462 19.5635 14.402 20.5924 13.6754 21.8367C12.9487 23.0811 12.5658 24.4962 12.5658 25.9371V38.12C12.5658 39.5609 12.9487 40.976 13.6754 42.2204C14.402 43.4647 15.4462 44.4936 16.7012 45.2018L27.9187 51.5327C29.1383 52.2209 30.5149 52.5825 31.9152 52.5825C33.3156 52.5825 34.6922 52.2209 35.9117 51.5327L47.1297 45.2018C48.3846 44.4936 49.4287 43.4646 50.1553 42.2203C50.8818 40.9759 51.2647 39.5609 51.2647 38.12V25.9371C51.2647 24.4962 50.8818 23.0812 50.1553 21.8368C49.4287 20.5925 48.3846 19.5635 47.1297 18.8553L35.9117 12.5244C34.6922 11.8362 33.3156 11.4746 31.9152 11.4746C30.5149 11.4746 29.1383 11.8362 27.9187 12.5244Z" fill="url(#paint0_radial)"/>
<path fill-rule="evenodd" clip-rule="evenodd" d="M32.2692 36.2731L32.9164 47.2223C32.9254 47.3723 32.8901 47.5216 32.8149 47.6517C32.7397 47.7818 32.628 47.887 32.4936 47.9542C32.333 48.0346 32.1494 48.0563 31.9745 48.0153C31.7997 47.9744 31.6447 47.8735 31.5365 47.7301L31.4637 47.6126L23.7326 32.1849C23.6861 32.0922 23.6492 31.9951 23.6224 31.895C23.5253 31.5318 23.5649 31.1456 23.7337 30.8097C23.9024 30.4738 24.1887 30.2116 24.538 30.0727L24.7084 30.0166L31.8931 28.0914L31.2466 17.1426C31.2347 16.9395 31.304 16.7399 31.4391 16.5878C31.5743 16.4357 31.7643 16.3435 31.9675 16.3315C32.1173 16.3224 32.2666 16.3576 32.3966 16.4325C32.5267 16.5075 32.632 16.6189 32.6993 16.7531L40.4305 32.1796C40.5206 32.3598 40.5744 32.5559 40.5887 32.7569C40.603 32.9578 40.5776 33.1597 40.5139 33.3508C40.4502 33.5419 40.3495 33.7186 40.2175 33.8708C40.0855 34.023 39.9248 34.1477 39.7446 34.2377C39.6518 34.2842 39.5545 34.3211 39.4543 34.3479L32.2692 36.2731Z" fill="url(#paint1_linear)"/>
<path fill-rule="evenodd" clip-rule="evenodd" d="M32.2691 36.2734L32.655 42.7962L29.584 43.6191L28.7213 40.3994C28.6172 40.0101 28.5908 39.6042 28.6437 39.2047C28.6965 38.8052 28.8275 38.42 29.0292 38.0712C29.2309 37.7223 29.4993 37.4166 29.8191 37.1715C30.139 36.9264 30.5039 36.7467 30.8932 36.6426L32.2691 36.2734Z" fill="url(#paint2_linear)"/>
<path fill-rule="evenodd" clip-rule="evenodd" d="M34.5791 20.7451L35.4419 23.9648C35.6422 24.7126 35.5523 25.5084 35.1904 26.1926C34.8284 26.8769 34.2211 27.399 33.4903 27.6542L33.2699 27.7208L31.8937 28.0892L31.5078 21.5664L34.5791 20.7451Z" fill="url(#paint3_linear)"/>
<defs>
<radialGradient id="paint0_radial" cx="0" cy="0" r="1" gradientUnits="userSpaceOnUse" gradientTransform="translate(32.0003 7.4999) rotate(90.0004) scale(49.2501 7635.26)">
<stop offset="0.0159186" stop-color="#FEC10D"/>
<stop offset="1" stop-color="#FF9900"/>
</radialGradient>
<linearGradient id="paint1_linear" x1="32.0815" y1="16.3301" x2="32.0815" y2="48.0355" gradientUnits="userSpaceOnUse">
<stop stop-color="#FEC10D"/>
<stop offset="1" stop-color="#FF9900"/>
</linearGradient>
<linearGradient id="paint2_linear" x1="30.6361" y1="36.2734" x2="30.6361" y2="43.6191" gradientUnits="userSpaceOnUse">
<stop stop-color="#CD6A00"/>
<stop offset="1" stop-color="#FF9900" stop-opacity="0"/>
</linearGradient>
<linearGradient id="paint3_linear" x1="33.5271" y1="20.7451" x2="33.5271" y2="28.0892" gradientUnits="userSpaceOnUse">
<stop stop-color="#FEC10D" stop-opacity="0"/>
<stop offset="1" stop-color="#FF8C00"/>
</linearGradient>
</defs>
</svg>
